SplineFontDB: 3.0
FontName: MenloClojure-Italic
FullName: Menlo Clojure Italic
FamilyName: MenloClojure
Weight: Italic
Copyright: Copyright (c) 2009 Apple Inc. Copyright (c)  2006 by Tavmjong Bah. Copyright (c) 2003 by Bitstream, Inc. All Rights Reserved.
Version: 8.0d2e1
ItalicAngle: -11
UnderlinePosition: -175
UnderlineWidth: 90
Ascent: 1556
Descent: 492
InvalidEm: 0
sfntRevision: 0x0002072b
LayerCount: 2
Layer: 0 1 "Back" 1
Layer: 1 1 "Fore" 0
XUID: [1021 234 1713769992 12396243]
FSType: 0
OS2Version: 3
OS2_WeightWidthSlopeOnly: 0
OS2_UseTypoMetrics: 1
CreationTime: 1229875379
ModificationTime: 1443291937
PfmFamily: 17
TTFWeight: 400
TTFWidth: 5
LineGap: 0
VLineGap: 0
Panose: 2 11 6 9 3 8 4 2 2 4
OS2TypoAscent: 1556
OS2TypoAOffset: 0
OS2TypoDescent: -492
OS2TypoDOffset: 0
OS2TypoLinegap: 410
OS2WinAscent: 1901
OS2WinAOffset: 0
OS2WinDescent: 483
OS2WinDOffset: 0
HheadAscent: 1901
HheadAOffset: 0
HheadDescent: -483
HheadDOffset: 0
OS2SubXSize: 1331
OS2SubYSize: 1433
OS2SubXOff: 0
OS2SubYOff: 286
OS2SupXSize: 1331
OS2SupYSize: 1433
OS2SupXOff: 0
OS2SupYOff: 983
OS2StrikeYSize: 102
OS2StrikeYPos: 530
OS2CapHeight: 1493
OS2XHeight: 1120
OS2Vendor: 'PfEd'
OS2CodePages: 600001df.ffdf0000
OS2UnicodeRanges: e60022ff.d200f9fb.02000028.00000000
MarkAttachClasses: 1
DEI: 91125
MacFeat: 1 0 0
MacName: 0 0 9 "Ligatures"
MacSetting: 2
MacName: 0 0 16 "Common Ligatures"
EndMacFeatures
TtTable: prep
PUSHW_1
 8
CALL
PUSHW_2
 640
 277
PUSHB_3
 148
 93
 5
NPUSHW
 28
 277
 150
 3
 277
 128
 4
 276
 254
 3
 275
 254
 3
 274
 18
 3
 273
 254
 3
 272
 254
 3
 271
 154
 3
 270
 254
 3
 269
PUSHB_3
 235
 71
 5
NPUSHW
 37
 269
 125
 3
 268
 37
 3
 267
 50
 3
 266
 150
 3
 265
 254
 3
 264
 14
 3
 263
 254
 3
 262
 37
 3
 261
 254
 3
 260
 14
 3
 259
 37
 3
 258
 254
 3
 257
NPUSHB
 89
 254
 3
 254
 254
 3
 253
 125
 3
 252
 254
 3
 251
 254
 3
 250
 50
 3
 249
 187
 3
 248
 125
 3
 247
 246
 140
 5
 247
 254
 3
 247
 192
 4
 246
 245
 89
 5
 246
 140
 3
 246
 128
 4
 245
 244
 38
 5
 245

StartChar: exclam
Encoding: 33 33 1
Width: 1233
Flags: W
LayerCount: 2
Back
Fore
SplineSet
684 1493 m 1,0,-1
 887 1493 l 1,1,-1
 747 838 l 1,2,-1
 661 531 l 1,3,-1
 500 531 l 1,4,-1
 544 838 l 1,5,-1
 684 1493 l 1,0,-1
390 254 m 1,6,-1
 653 254 l 1,7,-1
 599 0 l 1,8,-1
 336 0 l 1,9,-1
 390 254 l 1,6,-1
EndSplineSet
EndChar

StartChar: quotedbl
Encoding: 34 34 2
Width: 1233
Flags: W
LayerCount: 2
Back
Fore
SplineSet
905 1547 m 1,0,-1
 905 935 l 1,1,-1
 681 935 l 1,2,-1
 681 1547 l 1,3,-1
 905 1547 l 1,0,-1
412 1547 m 1,4,-1
 412 935 l 1,5,-1
 188 935 l 1,6,-1
 188 1547 l 1,7,-1
 412 1547 l 1,4,-1
EndSplineSet
EndChar

StartChar: numbersign
Encoding: 35 35 3
Width: 1233
Flags: W
LayerCount: 2
Back
Fore
SplineSet
684 1465 m 1,0,-1
 594 1111 l 1,1,-1
 839 1111 l 1,2,-1
 930 1465 l 1,3,-1
 1090 1465 l 1,4,-1
 999 1111 l 1,5,-1
 1243 1111 l 1,6,-1
 1243 958 l 1,7,-1
 962 958 l 1,8,-1
 864 565 l 1,9,-1
 1114 565 l 1,10,-1
 1114 412 l 1,11,-1
 825 412 l 1,12,-1
 721 0 l 1,13,-1
 561 0 l 1,14,-1
 666 412 l 1,15,-1
 420 412 l 1,16,-1
 315 0 l 1,17,-1
 156 0 l 1,18,-1
 260 412 l 1,19,-1
 2 412 l 1,20,-1
 2 565 l 1,21,-1
 299 565 l 1,22,-1
 397 958 l 1,23,-1
 131 958 l 1,24,-1
 131 1111 l 1,25,-1
 434 1111 l 1,26,-1
 524 1465 l 1,27,-1
 684 1465 l 1,0,-1
802 958 m 1,28,-1
 557 958 l 1,29,-1
 459 565 l 1,30,-1
 705 565 l 1,31,-1
 802 958 l 1,28,-1
EndSplineSet
EndChar

StartChar: dollar
Encoding: 36 36 4
Width: 1233
Flags: W
LayerCount: 2
Back
Fore
SplineSet
629 588 m 1,0,-1
 543 145 l 1,1,2
 672 145 672 145 751.5 217.5 c 128,-1,3
 831 290 831 290 831 406 c 0,4,5
 831 484 831 484 784 526.5 c 128,-1,6
 737 569 737 569 629 588 c 1,0,-1
563 774 m 1,7,-1
 643 1184 l 1,8,9
 524 1176 524 1176 448.5 1107.5 c 128,-1,10
 373 1039 373 1039 373 940 c 0,11,12
 373 871 373 871 415 834 c 128,-1,13
 457 797 457 797 563 774 c 1,7,-1
455 -301 m 1,14,-1
 354 -301 l 1,15,-1
 413 0 l 1,16,17
 318 3 318 3 222 26 c 128,-1,18
 126 49 126 49 31 92 c 1,19,-1
 66 272 l 1,20,21
 147 212 147 212 241.5 179 c 128,-1,22
 336 146 336 146 440 141 c 1,23,-1
 530 606 l 1,24,25
 354 641 354 641 274.5 713.5 c 128,-1,26
 195 786 195 786 195 911 c 0,27,28
 195 1084 195 1084 327.5 1199 c 128,-1,29
 460 1314 460 1314 669 1321 c 1,30,-1
 717 1556 l 1,31,-1
 817 1556 l 1,32,-1
 770 1321 l 1,33,34
 855 1315 855 1315 933 1299.5 c 128,-1,35
 1011 1284 1011 1284 1083 1260 c 1,36,-1
 1051 1087 l 1,37,38
 986 1127 986 1127 909 1150.5 c 128,-1,39
 832 1174 832 1174 743 1182 c 1,40,-1
 662 756 l 1,41,42
 836 722 836 722 925 639 c 128,-1,43
 1014 556 1014 556 1014 426 c 0,44,45
 1014 242 1014 242 877 122 c 128,-1,46
 740 2 740 2 524 2 c 2,47,-1
 514 2 l 1,48,-1
 455 -301 l 1,14,-1
EndSplineSet
EndChar

StartChar: percent
Encoding: 37 37 5
Width: 1233
Flags: W
LayerCount: 2
Back
Fore
SplineSet
696 319 m 0,0,1
 696 241 696 241 748.5 188 c 128,-1,2
 801 135 801 135 879 135 c 0,3,4
 956 135 956 135 1009.5 188.5 c 128,-1,5
 1063 242 1063 242 1063 319 c 256,6,7
 1063 396 1063 396 1009 450 c 128,-1,8
 955 504 955 504 879 504 c 0,9,10
 801 504 801 504 748.5 451 c 128,-1,11
 696 398 696 398 696 319 c 0,0,1
561 319 m 0,12,13
 561 454 561 454 653 546.5 c 128,-1,14
 745 639 745 639 879 639 c 0,15,16
 943 639 943 639 1000.5 615 c 128,-1,17
 1058 591 1058 591 1104 545 c 0,18,19
 1150 498 1150 498 1175 440 c 128,-1,20
 1200 382 1200 382 1200 319 c 0,21,22
 1200 186 1200 186 1107 93 c 128,-1,23
 1014 0 1014 0 879 0 c 0,24,25
 743 0 743 0 652 91.5 c 128,-1,26
 561 183 561 183 561 319 c 0,12,13
83 440 m 1,27,-1
 39 553 l 1,28,-1
 1154 999 l 1,29,-1
 1204 886 l 1,30,-1
 83 440 l 1,27,-1
168 1112 m 0,31,32
 168 1033 168 1033 220.5 980.5 c 128,-1,33
 273 928 273 928 352 928 c 0,34,35
 429 928 429 928 483 981.5 c 128,-1,36
 537 1035 537 1035 537 1112 c 256,37,38
 537 1189 537 1189 483 1242.5 c 128,-1,39
 429 1296 429 1296 352 1296 c 256,40,41
 275 1296 275 1296 221.5 1243 c 128,-1,42
 168 1190 168 1190 168 1112 c 0,31,32
33 1112 m 256,43,44
 33 1247 33 1247 125 1339.5 c 128,-1,45
 217 1432 217 1432 352 1432 c 0,46,47
 416 1432 416 1432 474.5 1408 c 128,-1,48
 533 1384 533 1384 578 1339 c 256,49,50
 623 1294 623 1294 647.5 1235.5 c 128,-1,51
 672 1177 672 1177 672 1112 c 0,52,53
 672 978 672 978 579 885.5 c 128,-1,54
 486 793 486 793 352 793 c 0,55,56
 217 793 217 793 125 885 c 128,-1,57
 33 977 33 977 33 1112 c 256,43,44
EndSplineSet
EndChar

StartChar: ampersand
Encoding: 38 38 6
Width: 1233
Flags: W
LayerCount: 2
Back
Fore
SplineSet
567 907 m 2,0,-1
 874 350 l 1,1,2
 936 416 936 416 973 518.5 c 128,-1,3
 1010 621 1010 621 1022 760 c 1,4,-1
 1190 760 l 1,5,6
 1173 592 1173 592 1112 457.5 c 128,-1,7
 1051 323 1051 323 944 221 c 1,8,-1
 1067 0 l 1,9,-1
 868 0 l 1,10,-1
 809 113 l 1,11,12
 714 42 714 42 614 6.5 c 128,-1,13
 514 -29 514 -29 410 -29 c 0,14,15
 215 -29 215 -29 97.5 78 c 128,-1,16
 -20 185 -20 185 -20 360 c 0,17,18
 -20 528 -20 528 79.5 672.5 c 128,-1,19
 179 817 179 817 367 920 c 1,20,21
 338 972 338 972 323.5 1026 c 128,-1,22
 309 1080 309 1080 309 1135 c 0,23,24
 309 1309 309 1309 432 1414.5 c 128,-1,25
 555 1520 555 1520 762 1520 c 0,26,27
 827 1520 827 1520 889 1508 c 128,-1,28
 951 1496 951 1496 1008 1473 c 1,29,-1
 973 1290 l 1,30,31
 931 1328 931 1328 870 1347 c 128,-1,32
 809 1366 809 1366 733 1366 c 0,33,34
 620 1366 620 1366 551.5 1308.5 c 128,-1,35
 483 1251 483 1251 483 1157 c 0,36,37
 483 1110 483 1110 505 1044.5 c 128,-1,38
 527 979 527 979 567 907 c 2,0,-1
432 795 m 1,39,40
 297 722 297 722 227.5 623.5 c 128,-1,41
 158 525 158 525 158 408 c 0,42,43
 158 289 158 289 244 209 c 128,-1,44
 330 129 330 129 459 129 c 0,45,46
 524 129 524 129 597 157.5 c 128,-1,47
 670 186 670 186 741 240 c 1,48,-1
 432 795 l 1,39,40
EndSplineSet
EndChar

StartChar: quotesingle
Encoding: 39 39 7
Width: 1233
Flags: W
LayerCount: 2
Back
Fore
SplineSet
712 1558 m 1,0,-1
 712 935 l 1,1,-1
 488 935 l 1,2,-1
 488 1558 l 1,3,-1
 712 1558 l 1,0,-1
EndSplineSet
EndChar

StartChar: parenleft
Encoding: 40 40 8
Width: 1233
Flags: W
LayerCount: 2
Back
Fore
SplineSet
1042 1554 m 1,0,1
 806 1253 806 1253 686.5 947.5 c 128,-1,2
 567 642 567 642 567 340 c 0,3,4
 567 194 567 194 596.5 43 c 128,-1,5
 626 -108 626 -108 686 -270 c 1,6,-1
 526 -270 l 1,7,8
 447 -81 447 -81 410 76 c 128,-1,9
 373 233 373 233 373 375 c 0,10,11
 373 678 373 678 502 977.5 c 128,-1,12
 631 1277 631 1277 883 1554 c 1,13,-1
 1042 1554 l 1,0,1
EndSplineSet
EndChar

StartChar: parenright
Encoding: 41 41 9
Width: 1233
Flags: W
LayerCount: 2
Back
Fore
SplineSet
150 -270 m 1,0,1
 386 30 386 30 505.5 335.5 c 128,-1,2
 625 641 625 641 625 944 c 0,3,4
 625 1090 625 1090 595.5 1241 c 128,-1,5
 566 1392 566 1392 506 1554 c 1,6,-1
 666 1554 l 1,7,8
 744 1366 744 1366 781.5 1208.5 c 128,-1,9
 819 1051 819 1051 819 909 c 0,10,11
 819 606 819 606 690 306.5 c 128,-1,12
 561 7 561 7 309 -270 c 1,13,-1
 150 -270 l 1,0,1
EndSplineSet
EndChar

StartChar: asterisk
Encoding: 42 42 10
Width: 1233
Flags: W
LayerCount: 2
Back
Fore
SplineSet
1179 871 m 1,0,-1
 735 631 l 1,1,-1
 1179 390 l 1,2,-1
 1109 268 l 1,3,-1
 691 519 l 1,4,-1
 691 53 l 1,5,-1
 548 53 l 1,6,-1
 548 519 l 1,7,-1
 130 268 l 1,8,-1
 60 390 l 1,9,-1
 505 631 l 1,10,-1
 60 871 l 1,11,-1
 130 994 l 1,12,-1
 548 743 l 1,13,-1
 548 1209 l 1,14,-1
 691 1209 l 1,15,-1
 691 743 l 1,16,-1
 1109 994 l 1,17,-1
 1179 871 l 1,0,-1
EndSplineSet
EndChar

StartChar: plus
Encoding: 43 43 11
Width: 1233
Flags: W
LayerCount: 2
Back
Fore
SplineSet
806 1158 m 1,0,-1
 720 715 l 1,1,-1
 1165 715 l 1,2,-1
 1132 546 l 1,3,-1
 687 546 l 1,4,-1
 601 103 l 1,5,-1
 433 103 l 1,6,-1
 519 546 l 1,7,-1
 75 546 l 1,8,-1
 108 715 l 1,9,-1
 552 715 l 1,10,-1
 638 1158 l 1,11,-1
 806 1158 l 1,0,-1
EndSplineSet
EndChar

StartChar: comma
Encoding: 44 44 12
Width: 1233
Flags: W
LayerCount: 2
Back
Fore
SplineSet
431 361 m 1,0,-1
 743 361 l 1,1,-1
 691 96 l 1,2,-1
 385 -335 l 1,3,-1
 185 -336 l 1,4,-1
 379 96 l 1,5,-1
 431 361 l 1,0,-1
EndSplineSet
EndChar

StartChar: hyphen
Encoding: 45 45 13
Width: 1233
Flags: W
LayerCount: 2
Back
Fore
SplineSet
135 724 m 1,0,-1
 1195 724 l 1,1,-1
 1159 555 l 1,2,-1
 99 555 l 1,3,-1
 135 724 l 1,0,-1
EndSplineSet
EndChar

StartChar: period
Encoding: 46 46 14
Width: 1233
Flags: W
LayerCount: 2
Back
Fore
SplineSet
428 404 m 1,0,-1
 780 404 l 1,1,-1
 701 0 l 1,2,-1
 349 0 l 1,3,-1
 428 404 l 1,0,-1
EndSplineSet
EndChar

StartChar: slash
Encoding: 47 47 15
Width: 1233
Flags: W
LayerCount: 2
Back
Fore
SplineSet
16 -190 m 1,0,-1
 868 1493 l 1,1,-1
 1059 1493 l 1,2,-1
 205 -190 l 1,3,-1
 16 -190 l 1,0,-1
EndSplineSet
EndChar

StartChar: zero
Encoding: 48 48 16
Width: 1233
Flags: W
LayerCount: 2
Back
Fore
SplineSet
754 1520 m 0,0,1
 993 1528 993 1528 1079.5 1335 c 128,-1,2
 1166 1142 1166 1142 1097 758 c 0,3,4
 1028 373 1028 373 870 173 c 128,-1,5
 712 -27 712 -27 473 -34 c 256,6,7
 234 -41 234 -41 148 151.5 c 128,-1,8
 62 344 62 344 130 728 c 0,9,10
 200 1113 200 1113 357.5 1313 c 128,-1,11
 515 1513 515 1513 754 1520 c 0,0,1
502 128 m 0,12,13
 644 132 644 132 741 286 c 128,-1,14
 838 440 838 440 894 752 c 0,15,16
 925 918 925 918 929 1051 c 1,17,-1
 317 286 l 1,18,19
 362 123 362 123 502 128 c 0,12,13
725 1358 m 0,20,21
 584 1354 584 1354 487 1200 c 128,-1,22
 390 1046 390 1046 333 734 c 0,23,24
 307 593 307 593 304 469 c 1,25,-1
 905 1232 l 1,26,27
 854 1363 854 1363 725 1358 c 0,20,21
EndSplineSet
EndChar

StartChar: one
Encoding: 49 49 17
Width: 1233
Flags: W
LayerCount: 2
Back
Fore
SplineSet
156 170 m 1,0,-1
 469 170 l 1,1,-1
 690 1311 l 1,2,-1
 338 1235 l 1,3,-1
 373 1419 l 1,4,-1
 725 1493 l 1,5,-1
 928 1493 l 1,6,-1
 670 170 l 1,7,-1
 979 170 l 1,8,-1
 946 0 l 1,9,-1
 123 0 l 1,10,-1
 156 170 l 1,0,-1
EndSplineSet
EndChar

StartChar: two
Encoding: 50 50 18
Width: 1233
Flags: W
LayerCount: 2
Back
Fore
SplineSet
268 170 m 1,0,-1
 952 170 l 1,1,-1
 920 0 l 1,2,-1
 6 0 l 1,3,-1
 39 170 l 1,4,-1
 350 444 l 1,5,-1
 389 479 l 1,6,7
 926 950 926 950 926 1153 c 0,8,9
 926 1246 926 1246 862 1299 c 128,-1,10
 798 1352 798 1352 684 1352 c 0,11,12
 592 1352 592 1352 486 1318.5 c 128,-1,13
 380 1285 380 1285 254 1217 c 1,14,-1
 295 1421 l 1,15,16
 407 1470 407 1470 511.5 1495 c 128,-1,17
 616 1520 616 1520 713 1520 c 0,18,19
 898 1520 898 1520 1012 1423 c 128,-1,20
 1126 1326 1126 1326 1126 1171 c 0,21,22
 1126 1075 1126 1075 1090.5 988.5 c 128,-1,23
 1055 902 1055 902 973 799 c 0,24,25
 940 757 940 757 854 678 c 128,-1,26
 768 599 768 599 588 444 c 2,27,-1
 268 170 l 1,0,-1
EndSplineSet
EndChar

StartChar: three
Encoding: 51 51 19
Width: 1233
Flags: W
LayerCount: 2
Back
Fore
SplineSet
762 799 m 1,0,1
 876 779 876 779 940 697 c 128,-1,2
 1004 615 1004 615 1004 489 c 0,3,4
 1004 255 1004 255 836.5 113 c 128,-1,5
 669 -29 669 -29 389 -29 c 0,6,7
 281 -29 281 -29 178.5 -10.5 c 128,-1,8
 76 8 76 8 -18 45 c 1,9,-1
 20 246 l 1,10,11
 111 194 111 194 206 167.5 c 128,-1,12
 301 141 301 141 399 141 c 0,13,14
 581 141 581 141 693 234.5 c 128,-1,15
 805 328 805 328 805 477 c 0,16,17
 805 594 805 594 733.5 654.5 c 128,-1,18
 662 715 662 715 524 715 c 2,19,-1
 371 715 l 1,20,-1
 403 881 l 1,21,-1
 557 881 l 2,22,23
 715 881 715 881 808 956 c 128,-1,24
 901 1031 901 1031 901 1155 c 0,25,26
 901 1255 901 1255 839.5 1302.5 c 128,-1,27
 778 1350 778 1350 649 1350 c 0,28,29
 567 1350 567 1350 470 1330 c 128,-1,30
 373 1310 373 1310 260 1270 c 1,31,-1
 297 1456 l 1,32,33
 420 1489 420 1489 517 1504.5 c 128,-1,34
 614 1520 614 1520 698 1520 c 0,35,36
 886 1520 886 1520 994 1432 c 128,-1,37
 1102 1344 1102 1344 1102 1192 c 0,38,39
 1102 1039 1102 1039 1012.5 935.5 c 128,-1,40
 923 832 923 832 762 799 c 1,0,1
EndSplineSet
EndChar

StartChar: four
Encoding: 52 52 20
Width: 1233
Flags: W
LayerCount: 2
Back
Fore
SplineSet
842 1282 m 1,0,-1
 217 520 l 1,1,-1
 690 520 l 1,2,-1
 842 1282 l 1,0,-1
846 1493 m 1,3,-1
 1079 1493 l 1,4,-1
 889 520 l 1,5,-1
 1087 520 l 1,6,-1
 1057 356 l 1,7,-1
 858 356 l 1,8,-1
 788 0 l 1,9,-1
 590 0 l 1,10,-1
 659 356 l 1,11,-1
 25 356 l 1,12,-1
 61 547 l 1,13,-1
 846 1493 l 1,3,-1
EndSplineSet
EndChar

StartChar: five
Encoding: 53 53 21
Width: 1233
Flags: W
LayerCount: 2
Back
Fore
SplineSet
352 1493 m 1,0,-1
 1108 1493 l 1,1,-1
 1075 1323 l 1,2,-1
 504 1323 l 1,3,-1
 432 956 l 1,4,5
 479 972 479 972 523.5 979.5 c 128,-1,6
 568 987 568 987 612 987 c 0,7,8
 800 987 800 987 915 873.5 c 128,-1,9
 1030 760 1030 760 1030 575 c 0,10,11
 1030 451 1030 451 977.5 334 c 128,-1,12
 925 217 925 217 829 131 c 0,13,14
 741 51 741 51 627.5 11 c 128,-1,15
 514 -29 514 -29 371 -29 c 0,16,17
 263 -29 263 -29 169.5 -12.5 c 128,-1,18
 76 4 76 4 4 35 c 1,19,-1
 45 240 l 1,20,21
 129 189 129 189 217 164 c 128,-1,22
 305 139 305 139 399 139 c 0,23,24
 585 139 585 139 707 256 c 128,-1,25
 829 373 829 373 829 547 c 0,26,27
 829 675 829 675 748.5 748 c 128,-1,28
 668 821 668 821 526 821 c 0,29,30
 447 821 447 821 364.5 801 c 128,-1,31
 282 781 282 781 207 743 c 1,32,-1
 352 1493 l 1,0,-1
EndSplineSet
EndChar

StartChar: six
Encoding: 54 54 22
Width: 1233
Flags: W
LayerCount: 2
Back
Fore
SplineSet
860 594 m 0,0,1
 860 707 860 707 802 768 c 128,-1,2
 744 829 744 829 637 829 c 0,3,4
 491 829 491 829 392 703 c 128,-1,5
 293 577 293 577 293 387 c 0,6,7
 293 266 293 266 354 197.5 c 128,-1,8
 415 129 415 129 522 129 c 0,9,10
 666 129 666 129 763 263 c 128,-1,11
 860 397 860 397 860 594 c 0,0,1
1128 1460 m 1,12,-1
 1092 1274 l 1,13,14
 1034 1311 1034 1311 966 1330.5 c 128,-1,15
 898 1350 898 1350 823 1350 c 0,16,17
 630 1350 630 1350 504.5 1206.5 c 128,-1,18
 379 1063 379 1063 324 780 c 1,19,20
 392 882 392 882 485.5 934.5 c 128,-1,21
 579 987 579 987 692 987 c 0,22,23
 870 987 870 987 966.5 887.5 c 128,-1,24
 1063 788 1063 788 1063 604 c 0,25,26
 1063 485 1063 485 1023 366 c 128,-1,27
 983 247 983 247 915 164 c 0,28,29
 837 67 837 67 737.5 19 c 128,-1,30
 638 -29 638 -29 516 -29 c 0,31,32
 313 -29 313 -29 202.5 88 c 128,-1,33
 92 205 92 205 92 420 c 0,34,35
 92 586 92 586 131 765 c 128,-1,36
 170 944 170 944 238 1090 c 0,37,38
 336 1305 336 1305 488.5 1412.5 c 128,-1,39
 641 1520 641 1520 848 1520 c 0,40,41
 923 1520 923 1520 994 1504.5 c 128,-1,42
 1065 1489 1065 1489 1128 1460 c 1,12,-1
EndSplineSet
EndChar

StartChar: seven
Encoding: 55 55 23
Width: 1233
Flags: W
LayerCount: 2
Back
Fore
SplineSet
276 1493 m 1,0,-1
 1212 1493 l 1,1,-1
 1196 1399 l 1,2,-1
 391 0 l 1,3,-1
 174 0 l 1,4,-1
 952 1323 l 1,5,-1
 244 1323 l 1,6,-1
 276 1493 l 1,0,-1
EndSplineSet
EndChar

StartChar: eight
Encoding: 56 56 24
Width: 1233
Flags: W
LayerCount: 2
Back
Fore
SplineSet
821 461 m 0,0,1
 821 577 821 577 755 643 c 128,-1,2
 689 709 689 709 571 709 c 0,3,4
 429 709 429 709 337.5 610.5 c 128,-1,5
 246 512 246 512 246 358 c 0,6,7
 246 253 246 253 313 190 c 128,-1,8
 380 127 380 127 492 127 c 0,9,10
 640 127 640 127 730.5 219 c 128,-1,11
 821 311 821 311 821 461 c 0,0,1
430 793 m 1,12,13
 323 831 323 831 269 903.5 c 128,-1,14
 215 976 215 976 215 1081 c 0,15,16
 215 1263 215 1263 363 1391.5 c 128,-1,17
 511 1520 511 1520 725 1520 c 0,18,19
 903 1520 903 1520 1014.5 1429 c 128,-1,20
 1126 1338 1126 1338 1126 1194 c 256,21,22
 1126 1050 1126 1050 1029 936.5 c 128,-1,23
 932 823 932 823 772 782 c 1,24,25
 898 752 898 752 962 669 c 128,-1,26
 1026 586 1026 586 1026 453 c 0,27,28
 1026 244 1026 244 874 107.5 c 128,-1,29
 722 -29 722 -29 485 -29 c 0,30,31
 278 -29 278 -29 159.5 73 c 128,-1,32
 41 175 41 175 41 354 c 0,33,34
 41 520 41 520 145.5 638 c 128,-1,35
 250 756 250 756 430 793 c 1,12,13
707 1364 m 0,36,37
 580 1364 580 1364 498 1283.5 c 128,-1,38
 416 1203 416 1203 416 1079 c 0,39,40
 416 980 416 980 474.5 923 c 128,-1,41
 533 866 533 866 635 866 c 0,42,43
 758 866 758 866 842 953 c 128,-1,44
 926 1040 926 1040 926 1165 c 0,45,46
 926 1256 926 1256 866 1310 c 128,-1,47
 806 1364 806 1364 707 1364 c 0,36,37
EndSplineSet
EndChar

StartChar: nine
Encoding: 57 57 25
Width: 1233
Flags: W
LayerCount: 2
Back
Fore
SplineSet
330 897 m 0,0,1
 330 784 330 784 388 723 c 128,-1,2
 446 662 446 662 553 662 c 0,3,4
 699 662 699 662 798 788 c 128,-1,5
 897 914 897 914 897 1104 c 0,6,7
 897 1226 897 1226 837 1294 c 128,-1,8
 777 1362 777 1362 670 1362 c 0,9,10
 526 1362 526 1362 428 1228 c 128,-1,11
 330 1094 330 1094 330 897 c 0,0,1
63 31 m 1,12,-1
 98 217 l 1,13,14
 156 180 156 180 224 160.5 c 128,-1,15
 292 141 292 141 367 141 c 0,16,17
 560 141 560 141 685.5 284.5 c 128,-1,18
 811 428 811 428 866 711 c 1,19,20
 798 609 798 609 704.5 556.5 c 128,-1,21
 611 504 611 504 498 504 c 0,22,23
 320 504 320 504 223.5 604 c 128,-1,24
 127 704 127 704 127 889 c 0,25,26
 127 1007 127 1007 167 1125.5 c 128,-1,27
 207 1244 207 1244 274 1327 c 0,28,29
 352 1423 352 1423 452 1471.5 c 128,-1,30
 552 1520 552 1520 674 1520 c 0,31,32
 877 1520 877 1520 988.5 1402.5 c 128,-1,33
 1100 1285 1100 1285 1100 1071 c 0,34,35
 1100 905 1100 905 1061 726 c 128,-1,36
 1022 547 1022 547 954 401 c 0,37,38
 856 187 856 187 703 79 c 128,-1,39
 550 -29 550 -29 342 -29 c 0,40,41
 267 -29 267 -29 197 -14 c 128,-1,42
 127 1 127 1 63 31 c 1,12,-1
EndSplineSet
EndChar

StartChar: colon
Encoding: 58 58 26
Width: 1233
Flags: W
LayerCount: 2
Back
Fore
SplineSet
566 1119 m 1,0,-1
 878 1119 l 1,1,-1
 808 758 l 1,2,-1
 496 758 l 1,3,-1
 566 1119 l 1,0,-1
419 364 m 1,4,-1
 731 364 l 1,5,-1
 661 0 l 1,6,-1
 349 0 l 1,7,-1
 419 364 l 1,4,-1
EndSplineSet
EndChar

StartChar: semicolon
Encoding: 59 59 27
Width: 1233
Flags: W
LayerCount: 2
Back
Fore
SplineSet
422 361 m 1,0,-1
 734 361 l 1,1,-1
 682 96 l 1,2,-1
 411 -286 l 1,3,-1
 197 -286 l 1,4,-1
 370 96 l 1,5,-1
 422 361 l 1,0,-1
556 1119 m 1,6,-1
 868 1119 l 1,7,-1
 798 758 l 1,8,-1
 486 758 l 1,9,-1
 556 1119 l 1,6,-1
EndSplineSet
EndChar

StartChar: less
Encoding: 60 60 28
Width: 1233
Flags: W
LayerCount: 2
Back
Fore
SplineSet
1145 961 m 1,0,-1
 295 641 l 1,1,-1
 1145 324 l 1,2,-1
 1145 141 l 1,3,-1
 88 559 l 1,4,-1
 88 725 l 1,5,-1
 1145 1143 l 1,6,-1
 1145 961 l 1,0,-1
EndSplineSet
EndChar

StartChar: equal
Encoding: 61 61 29
Width: 1233
Flags: W
LayerCount: 2
Back
Fore
SplineSet
88 524 m 1,0,-1
 1145 524 l 1,1,-1
 1145 352 l 1,2,-1
 88 352 l 1,3,-1
 88 524 l 1,0,-1
88 930 m 1,4,-1
 1145 930 l 1,5,-1
 1145 760 l 1,6,-1
 88 760 l 1,7,-1
 88 930 l 1,4,-1
88 550 m 1,8,-1
 1145 550 l 1,9,-1
 1145 381 l 1,10,-1
 88 381 l 1,11,-1
 88 550 l 1,8,-1
88 921 m 1,12,-1
 1145 921 l 1,13,-1
 1145 752 l 1,14,-1
 88 752 l 1,15,-1
 88 921 l 1,12,-1
EndSplineSet
EndChar

StartChar: greater
Encoding: 62 62 30
Width: 1233
Flags: W
LayerCount: 2
Back
Fore
SplineSet
88 961 m 1,0,-1
 88 1143 l 1,1,-1
 1145 725 l 1,2,-1
 1145 559 l 1,3,-1
 88 141 l 1,4,-1
 88 324 l 1,5,-1
 938 641 l 1,6,-1
 88 961 l 1,0,-1
EndSplineSet
EndChar

StartChar: question
Encoding: 63 63 31
Width: 1233
Flags: W
LayerCount: 2
Back
Fore
SplineSet
608 401 m 1,0,-1
 418 401 l 1,1,-1
 446 555 l 2,2,3
 465 646 465 646 503.5 711 c 128,-1,4
 542 776 542 776 655 870 c 2,5,-1
 762 961 l 2,6,7
 847 1033 847 1033 882.5 1088.5 c 128,-1,8
 918 1144 918 1144 918 1200 c 0,9,10
 918 1274 918 1274 862 1315 c 128,-1,11
 806 1356 806 1356 707 1356 c 0,12,13
 628 1356 628 1356 529.5 1320.5 c 128,-1,14
 431 1285 431 1285 326 1219 c 1,15,-1
 362 1407 l 1,16,17
 471 1464 471 1464 572 1492 c 128,-1,18
 673 1520 673 1520 774 1520 c 0,19,20
 927 1520 927 1520 1023.5 1438.5 c 128,-1,21
 1120 1357 1120 1357 1120 1231 c 0,22,23
 1120 1137 1120 1137 1071.5 1056.5 c 128,-1,24
 1023 976 1023 976 893 868 c 2,25,-1
 788 782 l 2,26,27
 704 712 704 712 674 661 c 128,-1,28
 644 610 644 610 629 524 c 2,29,-1
 608 401 l 1,0,-1
383 254 m 1,30,-1
 586 254 l 1,31,-1
 537 0 l 1,32,-1
 332 0 l 1,33,-1
 383 254 l 1,30,-1
EndSplineSet
EndChar

StartChar: at
Encoding: 64 64 32
Width: 1233
Flags: W
LayerCount: 2
Back
Fore
SplineSet
990 545 m 0,0,1
 1016 674 1016 674 967 751.5 c 128,-1,2
 918 829 918 829 811 829 c 256,3,4
 704 829 704 829 624.5 751.5 c 128,-1,5
 545 674 545 674 519 545 c 0,6,7
 493 415 493 415 542 337.5 c 128,-1,8
 591 260 591 260 698 260 c 256,9,10
 805 260 805 260 884.5 337.5 c 128,-1,11
 964 415 964 415 990 545 c 0,0,1
1048 135 m 1,12,-1
 904 135 l 1,13,-1
 926 246 l 1,14,15
 877 183 877 183 804.5 149 c 128,-1,16
 732 115 732 115 650 115 c 0,17,18
 489 115 489 115 407.5 236 c 128,-1,19
 326 357 326 357 364 545 c 0,20,21
 401 733 401 733 530.5 854 c 128,-1,22
 660 975 660 975 821 975 c 0,23,24
 901 975 901 975 961 940 c 128,-1,25
 1021 905 1021 905 1045 844 c 1,26,-1
 1057 907 l 2,27,28
 1089 1063 1089 1063 1020 1158 c 128,-1,29
 951 1253 951 1253 806 1253 c 0,30,31
 560 1253 560 1253 376 1061.5 c 128,-1,32
 192 870 192 870 127 543 c 0,33,34
 62 214 62 214 188 19 c 128,-1,35
 314 -176 314 -176 600 -177 c 1,36,37
 653 -185 653 -185 751 -185 c 128,-1,38
 849 -185 849 -185 927 -181 c 1,39,-1
 898 -325 l 1,40,41
 832 -330 832 -330 729.5 -330.5 c 128,-1,42
 627 -331 627 -331 572 -322 c 1,43,44
 225 -319 225 -319 63 -86 c 128,-1,45
 -99 147 -99 147 -21 543 c 0,46,47
 56 933 56 933 290 1164 c 128,-1,48
 524 1395 524 1395 840 1395 c 0,49,50
 1049 1395 1049 1395 1147.5 1262 c 128,-1,51
 1246 1129 1246 1129 1201 905 c 2,52,-1
 1048 135 l 1,12,-1
EndSplineSet
EndChar

StartChar: A
Encoding: 65 65 33
Width: 1233
Flags: W
LayerCount: 2
Back
Fore
SplineSet
735 1325 m 1,0,-1
 371 551 l 1,1,-1
 801 551 l 1,2,-1
 735 1325 l 1,0,-1
639 1493 m 1,3,-1
 885 1493 l 1,4,-1
 1051 0 l 1,5,-1
 850 0 l 1,6,-1
 815 389 l 1,7,-1
 295 389 l 1,8,-1
 111 0 l 1,9,-1
 -106 0 l 1,10,-1
 639 1493 l 1,3,-1
EndSplineSet
EndChar

StartChar: B
Encoding: 66 66 34
Width: 1233
Flags: W
LayerCount: 2
Back
Fore
SplineSet
365 713 m 1,0,-1
 258 166 l 1,1,-1
 506 166 l 2,2,3
 690 166 690 166 787.5 253 c 128,-1,4
 885 340 885 340 885 504 c 0,5,6
 885 611 885 611 817 662 c 128,-1,7
 749 713 749 713 606 713 c 2,8,-1
 365 713 l 1,0,-1
483 1327 m 1,9,-1
 395 877 l 1,10,-1
 639 877 l 2,11,12
 790 877 790 877 876.5 949.5 c 128,-1,13
 963 1022 963 1022 963 1149 c 0,14,15
 963 1243 963 1243 907.5 1285 c 128,-1,16
 852 1327 852 1327 727 1327 c 2,17,-1
 483 1327 l 1,9,-1
313 1493 m 1,18,-1
 756 1493 l 2,19,20
 959 1493 959 1493 1063 1413.5 c 128,-1,21
 1167 1334 1167 1334 1167 1180 c 256,22,23
 1167 1026 1167 1026 1075 922.5 c 128,-1,24
 983 819 983 819 827 799 c 1,25,26
 952 776 952 776 1018.5 697 c 128,-1,27
 1085 618 1085 618 1085 494 c 0,28,29
 1085 260 1085 260 925.5 130 c 128,-1,30
 766 0 766 0 475 0 c 2,31,-1
 23 0 l 1,32,-1
 313 1493 l 1,18,-1
EndSplineSet
EndChar

StartChar: C
Encoding: 67 67 35
Width: 1233
Flags: W
LayerCount: 2
Back
Fore
SplineSet
944 53 m 1,0,1
 860 12 860 12 774.5 -8.5 c 128,-1,2
 689 -29 689 -29 598 -29 c 0,3,4
 368 -29 368 -29 241.5 104 c 128,-1,5
 115 237 115 237 115 477 c 0,6,7
 115 697 115 697 185 913 c 128,-1,8
 255 1129 255 1129 369 1266 c 0,9,10
 476 1396 476 1396 605 1458 c 128,-1,11
 734 1520 734 1520 899 1520 c 0,12,13
 979 1520 979 1520 1058 1499 c 128,-1,14
 1137 1478 1137 1478 1212 1438 c 1,15,-1
 1171 1231 l 1,16,17
 1107 1294 1107 1294 1036 1325 c 128,-1,18
 965 1356 965 1356 885 1356 c 0,19,20
 790 1356 790 1356 709 1315.5 c 128,-1,21
 628 1275 628 1275 557 1192 c 0,22,23
 453 1069 453 1069 389.5 877 c 128,-1,24
 326 685 326 685 326 492 c 0,25,26
 326 319 326 319 404 227 c 128,-1,27
 482 135 482 135 629 135 c 0,28,29
 714 135 714 135 804.5 167 c 128,-1,30
 895 199 895 199 983 260 c 1,31,-1
 944 53 l 1,0,1
EndSplineSet
EndChar

StartChar: D
Encoding: 68 68 36
Width: 1233
Flags: W
LayerCount: 2
Back
Fore
SplineSet
324 166 m 2,0,1
 509 166 509 166 621 228.5 c 128,-1,2
 733 291 733 291 801 432 c 0,3,4
 855 547 855 547 889.5 706.5 c 128,-1,5
 924 866 924 866 924 999 c 0,6,7
 924 1175 924 1175 842 1251 c 128,-1,8
 760 1327 760 1327 567 1327 c 2,9,-1
 453 1327 l 1,10,-1
 227 166 l 1,11,-1
 324 166 l 2,0,1
586 1493 m 2,12,13
 859 1493 859 1493 994.5 1369 c 128,-1,14
 1130 1245 1130 1245 1130 993 c 0,15,16
 1130 831 1130 831 1088 659 c 128,-1,17
 1046 487 1046 487 975 354 c 0,18,19
 871 163 871 163 715.5 81.5 c 128,-1,20
 560 0 560 0 295 0 c 2,21,-1
 -8 0 l 1,22,-1
 283 1493 l 1,23,-1
 586 1493 l 2,12,13
EndSplineSet
EndChar

StartChar: E
Encoding: 69 69 37
Width: 1233
Flags: W
LayerCount: 2
Back
Fore
SplineSet
344 1493 m 1,0,-1
 1229 1493 l 1,1,-1
 1196 1323 l 1,2,-1
 512 1323 l 1,3,-1
 426 881 l 1,4,-1
 1079 881 l 1,5,-1
 1047 711 l 1,6,-1
 393 711 l 1,7,-1
 289 170 l 1,8,-1
 991 170 l 1,9,-1
 958 0 l 1,10,-1
 53 0 l 1,11,-1
 344 1493 l 1,0,-1
EndSplineSet
EndChar

StartChar: F
Encoding: 70 70 38
Width: 1233
Flags: W
LayerCount: 2
Back
Fore
SplineSet
383 1493 m 1,0,-1
 1262 1493 l 1,1,-1
 1229 1323 l 1,2,-1
 553 1323 l 1,3,-1
 467 883 l 1,4,-1
 1079 883 l 1,5,-1
 1047 713 l 1,6,-1
 434 713 l 1,7,-1
 295 0 l 1,8,-1
 92 0 l 1,9,-1
 383 1493 l 1,0,-1
EndSplineSet
EndChar

StartChar: G
Encoding: 71 71 39
Width: 1233
Flags: W
LayerCount: 2
Back
Fore
SplineSet
969 96 m 1,0,1
 882 34 882 34 779 2.5 c 128,-1,2
 676 -29 676 -29 559 -29 c 0,3,4
 327 -29 327 -29 202.5 105.5 c 128,-1,5
 78 240 78 240 78 489 c 0,6,7
 78 579 78 579 94.5 680.5 c 128,-1,8
 111 782 111 782 143 893 c 0,9,10
 178 1010 178 1010 225 1104.5 c 128,-1,11
 272 1199 272 1199 328 1266 c 0,12,13
 435 1396 435 1396 564.5 1458 c 128,-1,14
 694 1520 694 1520 860 1520 c 0,15,16
 940 1520 940 1520 1019.5 1499 c 128,-1,17
 1099 1478 1099 1478 1176 1438 c 1,18,-1
 1135 1231 l 1,19,20
 1070 1294 1070 1294 998.5 1325 c 128,-1,21
 927 1356 927 1356 846 1356 c 0,22,23
 748 1356 748 1356 662 1314.5 c 128,-1,24
 576 1273 576 1273 508 1192 c 0,25,26
 464 1140 464 1140 425 1062 c 128,-1,27
 386 984 386 984 356 887 c 0,28,29
 322 773 322 773 304.5 673 c 128,-1,30
 287 573 287 573 287 492 c 0,31,32
 287 321 287 321 366 228 c 128,-1,33
 445 135 445 135 590 135 c 0,34,35
 658 135 658 135 712 153.5 c 128,-1,36
 766 172 766 172 803 207 c 1,37,-1
 879 600 l 1,38,-1
 662 600 l 1,39,-1
 692 766 l 1,40,-1
 1102 766 l 1,41,-1
 969 96 l 1,0,1
EndSplineSet
EndChar

StartChar: H
Encoding: 72 72 40
Width: 1233
Flags: W
LayerCount: 2
Back
Fore
SplineSet
283 1493 m 1,0,-1
 485 1493 l 1,1,-1
 367 881 l 1,2,-1
 920 881 l 1,3,-1
 1038 1493 l 1,4,-1
 1241 1493 l 1,5,-1
 950 0 l 1,6,-1
 748 0 l 1,7,-1
 887 711 l 1,8,-1
 332 711 l 1,9,-1
 195 0 l 1,10,-1
 -8 0 l 1,11,-1
 283 1493 l 1,0,-1
EndSplineSet
EndChar

StartChar: I
Encoding: 73 73 41
Width: 1233
Flags: W
LayerCount: 2
Back
Fore
SplineSet
346 1493 m 1,0,-1
 1176 1493 l 1,1,-1
 1143 1323 l 1,2,-1
 829 1323 l 1,3,-1
 606 170 l 1,4,-1
 920 170 l 1,5,-1
 887 0 l 1,6,-1
 57 0 l 1,7,-1
 90 170 l 1,8,-1
 403 170 l 1,9,-1
 627 1323 l 1,10,-1
 313 1323 l 1,11,-1
 346 1493 l 1,0,-1
EndSplineSet
EndChar

StartChar: J
Encoding: 74 74 42
Width: 1233
Flags: W
LayerCount: 2
Back
Fore
SplineSet
-25 61 m 1,0,-1
 20 297 l 1,1,2
 92 218 92 218 184 176.5 c 128,-1,3
 276 135 276 135 379 135 c 0,4,5
 521 135 521 135 591.5 208 c 128,-1,6
 662 281 662 281 702 487 c 2,7,-1
 866 1323 l 1,8,-1
 485 1323 l 1,9,-1
 518 1493 l 1,10,-1
 1102 1493 l 1,11,-1
 905 487 l 2,12,13
 849 198 849 198 729 84.5 c 128,-1,14
 609 -29 609 -29 371 -29 c 0,15,16
 274 -29 274 -29 174 -6 c 128,-1,17
 74 17 74 17 -25 61 c 1,0,-1
EndSplineSet
EndChar

StartChar: K
Encoding: 75 75 43
Width: 1233
Flags: W
LayerCount: 2
Back
Fore
SplineSet
283 1493 m 1,0,-1
 485 1493 l 1,1,-1
 358 846 l 1,2,-1
 1100 1493 l 1,3,-1
 1354 1493 l 1,4,-1
 651 874 l 1,5,-1
 1079 0 l 1,6,-1
 860 0 l 1,7,-1
 500 741 l 1,8,-1
 307 573 l 1,9,-1
 195 0 l 1,10,-1
 -8 0 l 1,11,-1
 283 1493 l 1,0,-1
EndSplineSet
EndChar

StartChar: L
Encoding: 76 76 44
Width: 1233
Flags: W
LayerCount: 2
Back
Fore
SplineSet
369 1493 m 1,0,-1
 571 1493 l 1,1,-1
 313 170 l 1,2,-1
 1034 170 l 1,3,-1
 1001 0 l 1,4,-1
 78 0 l 1,5,-1
 369 1493 l 1,0,-1
EndSplineSet
EndChar

StartChar: M
Encoding: 77 77 45
Width: 1233
Flags: W
LayerCount: 2
Back
Fore
SplineSet
229 1493 m 1,0,-1
 498 1493 l 1,1,-1
 608 737 l 1,2,-1
 1022 1493 l 1,3,-1
 1292 1493 l 1,4,-1
 1001 0 l 1,5,-1
 815 0 l 1,6,-1
 1073 1327 l 1,7,-1
 639 532 l 1,8,-1
 498 532 l 1,9,-1
 383 1327 l 1,10,-1
 127 0 l 1,11,-1
 -59 0 l 1,12,-1
 229 1493 l 1,0,-1
EndSplineSet
EndChar

StartChar: N
Encoding: 78 78 46
Width: 1233
Flags: W
LayerCount: 2
Back
Fore
SplineSet
285 1493 m 1,0,-1
 541 1493 l 1,1,-1
 805 264 l 1,2,-1
 1044 1493 l 1,3,-1
 1239 1493 l 1,4,-1
 948 0 l 1,5,-1
 692 0 l 1,6,-1
 428 1229 l 1,7,-1
 188 0 l 1,8,-1
 -6 0 l 1,9,-1
 285 1493 l 1,0,-1
EndSplineSet
EndChar

StartChar: O
Encoding: 79 79 47
Width: 1233
Flags: W
LayerCount: 2
Back
Fore
SplineSet
502 135 m 0,0,1
 587 135 587 135 659 186 c 128,-1,2
 731 237 731 237 778 332 c 0,3,4
 852 477 852 477 898 683 c 128,-1,5
 944 889 944 889 944 1079 c 0,6,7
 944 1221 944 1221 891.5 1288.5 c 128,-1,8
 839 1356 839 1356 729 1356 c 0,9,10
 644 1356 644 1356 573 1305 c 128,-1,11
 502 1254 502 1254 455 1159 c 0,12,13
 379 1012 379 1012 333 808 c 128,-1,14
 287 604 287 604 287 414 c 0,15,16
 287 271 287 271 339.5 203 c 128,-1,17
 392 135 392 135 502 135 c 0,0,1
1151 1020 m 0,18,19
 1151 910 1151 910 1128.5 781 c 128,-1,20
 1106 652 1106 652 1063 516 c 0,21,22
 1034 424 1034 424 1000.5 351 c 128,-1,23
 967 278 967 278 928 219 c 0,24,25
 840 92 840 92 731 31.5 c 128,-1,26
 622 -29 622 -29 477 -29 c 0,27,28
 276 -29 276 -29 179 94 c 128,-1,29
 82 217 82 217 82 473 c 0,30,31
 82 584 82 584 103.5 711.5 c 128,-1,32
 125 839 125 839 168 975 c 0,33,34
 197 1067 197 1067 230.5 1140 c 128,-1,35
 264 1213 264 1213 303 1272 c 0,36,37
 391 1399 391 1399 500 1459.5 c 128,-1,38
 609 1520 609 1520 754 1520 c 0,39,40
 956 1520 956 1520 1053.5 1397.5 c 128,-1,41
 1151 1275 1151 1275 1151 1020 c 0,18,19
EndSplineSet
EndChar

StartChar: P
Encoding: 80 80 48
Width: 1233
Flags: W
LayerCount: 2
Back
Fore
SplineSet
512 1327 m 1,0,-1
 403 766 l 1,1,-1
 637 766 l 2,2,3
 802 766 802 766 900.5 861.5 c 128,-1,4
 999 957 999 957 999 1116 c 0,5,6
 999 1224 999 1224 937 1275.5 c 128,-1,7
 875 1327 875 1327 745 1327 c 2,8,-1
 512 1327 l 1,0,-1
342 1493 m 1,9,-1
 782 1493 l 2,10,11
 988 1493 988 1493 1096 1401 c 128,-1,12
 1204 1309 1204 1309 1204 1135 c 0,13,14
 1204 886 1204 886 1044 743 c 128,-1,15
 884 600 884 600 604 600 c 2,16,-1
 371 600 l 1,17,-1
 254 0 l 1,18,-1
 51 0 l 1,19,-1
 342 1493 l 1,9,-1
EndSplineSet
EndChar

StartChar: Q
Encoding: 81 81 49
Width: 1233
Flags: W
LayerCount: 2
Back
Fore
SplineSet
504 -27 m 1,0,-1
 494 -27 l 2,1,2
 279 -27 279 -27 180.5 92 c 128,-1,3
 82 211 82 211 82 473 c 0,4,5
 82 584 82 584 103.5 711.5 c 128,-1,6
 125 839 125 839 168 975 c 0,7,8
 197 1067 197 1067 230.5 1140 c 128,-1,9
 264 1213 264 1213 303 1272 c 0,10,11
 391 1399 391 1399 500 1459.5 c 128,-1,12
 609 1520 609 1520 754 1520 c 0,13,14
 956 1520 956 1520 1053.5 1397.5 c 128,-1,15
 1151 1275 1151 1275 1151 1020 c 0,16,17
 1151 937 1151 937 1136.5 838.5 c 128,-1,18
 1122 740 1122 740 1094 629 c 0,19,20
 1064 513 1064 513 1032 427 c 128,-1,21
 1000 341 1000 341 963 274 c 0,22,23
 909 179 909 179 839 111 c 128,-1,24
 769 43 769 43 690 10 c 1,25,-1
 844 -178 l 1,26,-1
 690 -270 l 1,27,-1
 504 -27 l 1,0,-1
502 135 m 0,28,29
 587 135 587 135 659 186 c 128,-1,30
 731 237 731 237 778 332 c 0,31,32
 852 477 852 477 898 683 c 128,-1,33
 944 889 944 889 944 1079 c 0,34,35
 944 1221 944 1221 891.5 1288.5 c 128,-1,36
 839 1356 839 1356 729 1356 c 0,37,38
 644 1356 644 1356 573 1305 c 128,-1,39
 502 1254 502 1254 455 1159 c 0,40,41
 379 1012 379 1012 333 808 c 128,-1,42
 287 604 287 604 287 414 c 0,43,44
 287 271 287 271 339.5 203 c 128,-1,45
 392 135 392 135 502 135 c 0,28,29
EndSplineSet
EndChar

StartChar: R
Encoding: 82 82 50
Width: 1233
Flags: W
LayerCount: 2
Back
Fore
SplineSet
766 705 m 1,0,1
 838 691 838 691 881.5 638 c 128,-1,2
 925 585 925 585 979 408 c 2,3,-1
 1100 0 l 1,4,-1
 899 0 l 1,5,-1
 793 377 l 2,6,7
 749 533 749 533 694.5 582 c 128,-1,8
 640 631 640 631 530 631 c 2,9,-1
 338 631 l 1,10,-1
 215 0 l 1,11,-1
 12 0 l 1,12,-1
 301 1493 l 1,13,-1
 717 1493 l 2,14,15
 924 1493 924 1493 1037.5 1403.5 c 128,-1,16
 1151 1314 1151 1314 1151 1151 c 0,17,18
 1151 968 1151 968 1047.5 848 c 128,-1,19
 944 728 944 728 766 705 c 1,0,1
473 1327 m 1,20,-1
 371 797 l 1,21,-1
 590 797 l 2,22,23
 753 797 753 797 850.5 882.5 c 128,-1,24
 948 968 948 968 948 1110 c 0,25,26
 948 1222 948 1222 885 1274.5 c 128,-1,27
 822 1327 822 1327 686 1327 c 2,28,-1
 473 1327 l 1,20,-1
EndSplineSet
EndChar

StartChar: S
Encoding: 83 83 51
Width: 1233
Flags: W
LayerCount: 2
Back
Fore
SplineSet
1147 1442 m 1,0,-1
 1108 1237 l 1,1,2
 1027 1296 1027 1296 940 1326 c 128,-1,3
 853 1356 853 1356 760 1356 c 0,4,5
 595 1356 595 1356 491 1274 c 128,-1,6
 387 1192 387 1192 387 1065 c 0,7,8
 387 994 387 994 436 950 c 128,-1,9
 485 906 485 906 614 866 c 2,10,-1
 735 827 l 2,11,12
 898 777 898 777 973.5 693.5 c 128,-1,13
 1049 610 1049 610 1049 481 c 0,14,15
 1049 246 1049 246 883 108.5 c 128,-1,16
 717 -29 717 -29 430 -29 c 0,17,18
 326 -29 326 -29 225.5 -6.5 c 128,-1,19
 125 16 125 16 25 61 c 1,20,-1
 66 270 l 1,21,22
 164 201 164 201 264.5 168 c 128,-1,23
 365 135 365 135 477 135 c 0,24,25
 642 135 642 135 745 223 c 128,-1,26
 848 311 848 311 848 446 c 0,27,28
 848 528 848 528 804 573 c 128,-1,29
 760 618 760 618 627 659 c 2,30,-1
 526 692 l 2,31,32
 342 750 342 750 268.5 823.5 c 128,-1,33
 195 897 195 897 195 1018 c 0,34,35
 195 1239 195 1239 360 1379.5 c 128,-1,36
 525 1520 525 1520 791 1520 c 0,37,38
 871 1520 871 1520 961.5 1500 c 128,-1,39
 1052 1480 1052 1480 1147 1442 c 1,0,-1
EndSplineSet
EndChar

StartChar: T
Encoding: 84 84 52
Width: 1233
Flags: W
LayerCount: 2
Back
Fore
SplineSet
193 1493 m 1,0,-1
 1333 1493 l 1,1,-1
 1300 1323 l 1,2,-1
 831 1323 l 1,3,-1
 575 0 l 1,4,-1
 371 0 l 1,5,-1
 629 1323 l 1,6,-1
 160 1323 l 1,7,-1
 193 1493 l 1,0,-1
EndSplineSet
EndChar

StartChar: U
Encoding: 85 85 53
Width: 1233
Flags: W
LayerCount: 2
Back
Fore
SplineSet
115 573 m 2,0,-1
 293 1493 l 1,1,-1
 496 1493 l 1,2,-1
 317 573 l 2,3,4
 315 560 315 560 309 532 c 0,5,6
 279 378 279 378 279 319 c 0,7,8
 279 227 279 227 333.5 181 c 128,-1,9
 388 135 388 135 498 135 c 0,10,11
 587 135 587 135 649 163.5 c 128,-1,12
 711 192 711 192 756 254 c 0,13,14
 778 285 778 285 800.5 360.5 c 128,-1,15
 823 436 823 436 850 573 c 2,16,-1
 1028 1493 l 1,17,-1
 1231 1493 l 1,18,-1
 1053 573 l 2,19,20
 1011 354 1011 354 963.5 251.5 c 128,-1,21
 916 149 916 149 838 86 c 0,22,23
 767 30 767 30 676 0.5 c 128,-1,24
 585 -29 585 -29 479 -29 c 0,25,26
 287 -29 287 -29 183.5 61 c 128,-1,27
 80 151 80 151 80 317 c 0,28,29
 80 354 80 354 88.5 417 c 128,-1,30
 97 480 97 480 115 573 c 2,0,-1
EndSplineSet
EndChar

StartChar: V
Encoding: 86 86 54
Width: 1233
Flags: W
LayerCount: 2
Back
Fore
SplineSet
510 190 m 1,0,-1
 1108 1493 l 1,1,-1
 1323 1493 l 1,2,-1
 604 0 l 1,3,-1
 346 0 l 1,4,-1
 199 1493 l 1,5,-1
 397 1493 l 1,6,-1
 510 190 l 1,0,-1
EndSplineSet
EndChar

StartChar: W
Encoding: 87 87 55
Width: 1233
Flags: W
LayerCount: 2
Back
Fore
SplineSet
145 1493 m 1,0,-1
 336 1493 l 1,1,-1
 246 283 l 1,2,-1
 575 1083 l 1,3,-1
 786 1083 l 1,4,-1
 801 281 l 1,5,-1
 1178 1493 l 1,6,-1
 1376 1493 l 1,7,-1
 866 0 l 1,8,-1
 672 0 l 1,9,-1
 641 870 l 1,10,-1
 270 0 l 1,11,-1
 82 0 l 1,12,-1
 145 1493 l 1,0,-1
EndSplineSet
EndChar

StartChar: X
Encoding: 88 88 56
Width: 1233
Flags: W
LayerCount: 2
Back
Fore
SplineSet
242 1493 m 1,0,-1
 442 1493 l 1,1,-1
 666 961 l 1,2,-1
 1106 1493 l 1,3,-1
 1337 1493 l 1,4,-1
 741 774 l 1,5,-1
 1065 0 l 1,6,-1
 864 0 l 1,7,-1
 610 612 l 1,8,-1
 104 0 l 1,9,-1
 -127 0 l 1,10,-1
 530 797 l 1,11,-1
 242 1493 l 1,0,-1
EndSplineSet
EndChar

StartChar: Y
Encoding: 89 89 57
Width: 1233
Flags: W
LayerCount: 2
Back
Fore
SplineSet
195 1493 m 1,0,-1
 397 1493 l 1,1,-1
 633 842 l 1,2,-1
 1130 1493 l 1,3,-1
 1348 1493 l 1,4,-1
 713 670 l 1,5,-1
 584 0 l 1,6,-1
 377 0 l 1,7,-1
 508 670 l 1,8,-1
 195 1493 l 1,0,-1
EndSplineSet
EndChar

StartChar: Z
Encoding: 90 90 58
Width: 1233
Flags: W
LayerCount: 2
Back
Fore
SplineSet
305 1493 m 1,0,-1
 1274 1493 l 1,1,-1
 1245 1339 l 1,2,-1
 266 170 l 1,3,-1
 1040 170 l 1,4,-1
 1006 0 l 1,5,-1
 -6 0 l 1,6,-1
 23 154 l 1,7,-1
 999 1323 l 1,8,-1
 272 1323 l 1,9,-1
 305 1493 l 1,0,-1
EndSplineSet
EndChar

StartChar: bracketleft
Encoding: 91 91 59
Width: 1233
Flags: W
LayerCount: 2
Back
Fore
SplineSet
681 1456 m 1,0,-1
 1104 1456 l 1,1,-1
 1076 1313 l 1,2,-1
 836 1313 l 1,3,-1
 537 -227 l 1,4,-1
 777 -227 l 1,5,-1
 750 -370 l 1,6,-1
 324 -370 l 1,7,-1
 681 1456 l 1,0,-1
EndSplineSet
EndChar

StartChar: backslash
Encoding: 92 92 60
Width: 1233
Flags: W
LayerCount: 2
Back
Fore
SplineSet
725 -190 m 1,0,-1
 555 -190 l 1,1,-1
 356 1493 l 1,2,-1
 526 1493 l 1,3,-1
 725 -190 l 1,0,-1
EndSplineSet
EndChar

StartChar: bracketright
Encoding: 93 93 61
Width: 1233
Flags: W
LayerCount: 2
Back
Fore
SplineSet
978 1456 m 1,0,-1
 621 -370 l 1,1,-1
 197 -370 l 1,2,-1
 226 -227 l 1,3,-1
 466 -227 l 1,4,-1
 765 1313 l 1,5,-1
 525 1313 l 1,6,-1
 554 1456 l 1,7,-1
 978 1456 l 1,0,-1
EndSplineSet
EndChar

StartChar: asciicircum
Encoding: 94 94 62
Width: 1233
Flags: W
LayerCount: 2
Back
Fore
SplineSet
705 1493 m 1,0,-1
 1161 936 l 1,1,-1
 983 936 l 1,2,-1
 616 1331 l 1,3,-1
 250 936 l 1,4,-1
 72 936 l 1,5,-1
 528 1493 l 1,6,-1
 705 1493 l 1,0,-1
EndSplineSet
EndChar

StartChar: underscore
Encoding: 95 95 63
Width: 1233
Flags: W
LayerCount: 2
Back
Fore
SplineSet
1224 -190 m 1,0,-1
 1224 -360 l 1,1,-1
 0 -360 l 1,2,-1
 0 -190 l 1,3,-1
 1224 -190 l 1,0,-1
EndSplineSet
EndChar

StartChar: grave
Encoding: 96 96 64
Width: 1233
Flags: W
LayerCount: 2
Back
Fore
SplineSet
651 1638 m 1,0,-1
 848 1262 l 1,1,-1
 705 1262 l 1,2,-1
 453 1638 l 1,3,-1
 651 1638 l 1,0,-1
EndSplineSet
EndChar

StartChar: a
Encoding: 97 97 65
Width: 1233
Flags: W
LayerCount: 2
Back
Fore
SplineSet
692 563 m 2,0,1
 573 563 573 563 515 555.5 c 128,-1,2
 457 548 457 548 414 530 c 0,3,4
 346 503 346 503 305 441.5 c 128,-1,5
 264 380 264 380 264 307 c 0,6,7
 264 224 264 224 315.5 174.5 c 128,-1,8
 367 125 367 125 455 125 c 0,9,10
 603 125 603 125 710.5 231 c 128,-1,11
 818 337 818 337 856 522 c 2,12,-1
 864 563 l 1,13,-1
 692 563 l 2,0,1
1063 639 m 2,14,-1
 938 0 l 1,15,-1
 754 0 l 1,16,-1
 786 166 l 1,17,18
 714 72 714 72 616 21.5 c 128,-1,19
 518 -29 518 -29 408 -29 c 0,20,21
 255 -29 255 -29 163.5 54.5 c 128,-1,22
 72 138 72 138 72 276 c 0,23,24
 72 472 72 472 226.5 589.5 c 128,-1,25
 381 707 381 707 645 707 c 2,26,-1
 891 707 l 1,27,-1
 903 768 l 2,28,29
 905 777 905 777 906 787 c 128,-1,30
 907 797 907 797 907 815 c 0,31,32
 907 900 907 900 844 945.5 c 128,-1,33
 781 991 781 991 664 991 c 0,34,35
 578 991 578 991 478.5 965.5 c 128,-1,36
 379 940 379 940 268 889 c 1,37,-1
 303 1069 l 1,38,39
 411 1108 411 1108 508 1127.5 c 128,-1,40
 605 1147 605 1147 694 1147 c 0,41,42
 880 1147 880 1147 983.5 1065 c 128,-1,43
 1087 983 1087 983 1087 838 c 0,44,45
 1087 806 1087 806 1081 754 c 128,-1,46
 1075 702 1075 702 1063 639 c 2,14,-1
EndSplineSet
EndChar

StartChar: b
Encoding: 98 98 66
Width: 1233
Flags: W
LayerCount: 2
Back
Fore
SplineSet
539 127 m 0,0,1
 623 127 623 127 691 172 c 128,-1,2
 759 217 759 217 805 303 c 0,3,4
 854 397 854 397 882.5 513 c 128,-1,5
 911 629 911 629 911 737 c 0,6,7
 911 865 911 865 860.5 929 c 128,-1,8
 810 993 810 993 709 993 c 0,9,10
 626 993 626 993 557.5 947 c 128,-1,11
 489 901 489 901 438 813 c 0,12,13
 390 727 390 727 361 610.5 c 128,-1,14
 332 494 332 494 332 383 c 0,15,16
 332 260 332 260 385.5 193.5 c 128,-1,17
 439 127 439 127 539 127 c 0,0,1
434 977 m 1,18,19
 496 1061 496 1061 578 1104 c 128,-1,20
 660 1147 660 1147 762 1147 c 0,21,22
 926 1147 926 1147 1017 1043.5 c 128,-1,23
 1108 940 1108 940 1108 754 c 0,24,25
 1108 609 1108 609 1067 465 c 128,-1,26
 1026 321 1026 321 954 213 c 0,27,28
 878 98 878 98 768.5 34.5 c 128,-1,29
 659 -29 659 -29 535 -29 c 0,30,31
 437 -29 437 -29 370.5 14 c 128,-1,32
 304 57 304 57 270 141 c 1,33,-1
 244 0 l 1,34,-1
 59 0 l 1,35,-1
 362 1556 l 1,36,-1
 547 1556 l 1,37,-1
 434 977 l 1,18,19
EndSplineSet
EndChar

StartChar: c
Encoding: 99 99 67
Width: 1233
Flags: W
LayerCount: 2
Back
Fore
SplineSet
940 51 m 1,0,1
 867 12 867 12 783.5 -8.5 c 128,-1,2
 700 -29 700 -29 610 -29 c 0,3,4
 386 -29 386 -29 271 83.5 c 128,-1,5
 156 196 156 196 156 416 c 0,6,7
 156 565 156 565 209.5 708.5 c 128,-1,8
 263 852 263 852 354 950 c 0,9,10
 447 1049 447 1049 558.5 1098 c 128,-1,11
 670 1147 670 1147 803 1147 c 0,12,13
 892 1147 892 1147 975 1125.5 c 128,-1,14
 1058 1104 1058 1104 1137 1061 c 1,15,-1
 1100 879 l 1,16,17
 1034 937 1034 937 964 964 c 128,-1,18
 894 991 894 991 809 991 c 0,19,20
 699 991 699 991 614 946.5 c 128,-1,21
 529 902 529 902 469 813 c 0,22,23
 413 731 413 731 381.5 625.5 c 128,-1,24
 350 520 350 520 350 416 c 0,25,26
 350 272 350 272 418.5 199.5 c 128,-1,27
 487 127 487 127 623 127 c 0,28,29
 719 127 719 127 807.5 158 c 128,-1,30
 896 189 896 189 979 252 c 1,31,-1
 940 51 l 1,0,1
EndSplineSet
EndChar

StartChar: d
Encoding: 100 100 68
Width: 1233
Flags: W
LayerCount: 2
Back
Fore
SplineSet
686 991 m 0,0,1
 598 991 598 991 531 947.5 c 128,-1,2
 464 904 464 904 418 817 c 0,3,4
 369 727 369 727 342 612.5 c 128,-1,5
 315 498 315 498 315 383 c 0,6,7
 315 255 315 255 366 191 c 128,-1,8
 417 127 417 127 518 127 c 0,9,10
 603 127 603 127 671.5 172 c 128,-1,11
 740 217 740 217 788 305 c 0,12,13
 837 392 837 392 865 507.5 c 128,-1,14
 893 623 893 623 893 737 c 0,15,16
 893 857 893 857 838.5 924 c 128,-1,17
 784 991 784 991 686 991 c 0,0,1
954 977 m 1,18,-1
 1069 1556 l 1,19,-1
 1253 1556 l 1,20,-1
 950 0 l 1,21,-1
 766 0 l 1,22,-1
 793 141 l 1,23,24
 728 57 728 57 645.5 14 c 128,-1,25
 563 -29 563 -29 463 -29 c 0,26,27
 300 -29 300 -29 209.5 76 c 128,-1,28
 119 181 119 181 119 369 c 0,29,30
 119 512 119 512 159 656.5 c 128,-1,31
 199 801 199 801 268 909 c 0,32,33
 343 1027 343 1027 444.5 1087 c 128,-1,34
 546 1147 546 1147 670 1147 c 0,35,36
 767 1147 767 1147 840 1103.5 c 128,-1,37
 913 1060 913 1060 954 977 c 1,18,-1
EndSplineSet
EndChar

StartChar: e
Encoding: 101 101 69
Width: 1233
Flags: W
LayerCount: 2
Back
Fore
SplineSet
938 659 m 1,0,1
 944 686 944 686 946 703.5 c 128,-1,2
 948 721 948 721 948 737 c 0,3,4
 948 857 948 857 883 924 c 128,-1,5
 818 991 818 991 702 991 c 0,6,7
 579 991 579 991 477.5 901 c 128,-1,8
 376 811 376 811 332 659 c 1,9,-1
 938 659 l 1,0,1
961 57 m 1,10,11
 856 14 856 14 756 -7.5 c 128,-1,12
 656 -29 656 -29 553 -29 c 0,13,14
 330 -29 330 -29 214 82.5 c 128,-1,15
 98 194 98 194 98 408 c 0,16,17
 98 564 98 564 158 714 c 128,-1,18
 218 864 218 864 324 973 c 0,19,20
 407 1059 407 1059 507.5 1104 c 128,-1,21
 608 1149 608 1149 717 1149 c 0,22,23
 903 1149 903 1149 1014.5 1034.5 c 128,-1,24
 1126 920 1126 920 1126 729 c 0,25,26
 1126 695 1126 695 1121 644.5 c 128,-1,27
 1116 594 1116 594 1104 516 c 1,28,-1
 297 516 l 1,29,30
 291 484 291 484 288 458 c 128,-1,31
 285 432 285 432 285 412 c 0,32,33
 285 273 285 273 362 200 c 128,-1,34
 439 127 439 127 586 127 c 0,35,36
 674 127 674 127 778.5 155.5 c 128,-1,37
 883 184 883 184 997 240 c 1,38,-1
 961 57 l 1,10,11
EndSplineSet
EndChar

StartChar: f
Encoding: 102 102 70
Width: 1233
Flags: W
LayerCount: 2
Back
Fore
SplineSet
1245 1556 m 1,0,-1
 1214 1403 l 1,1,-1
 1006 1403 l 2,2,3
 911 1403 911 1403 863 1361.5 c 128,-1,4
 815 1320 815 1320 795 1219 c 2,5,-1
 774 1120 l 1,6,-1
 1159 1120 l 1,7,-1
 1133 977 l 1,8,-1
 748 977 l 1,9,-1
 557 0 l 1,10,-1
 373 0 l 1,11,-1
 563 977 l 1,12,-1
 264 977 l 1,13,-1
 293 1120 l 1,14,-1
 590 1120 l 1,15,-1
 606 1198 l 2,16,17
 644 1391 644 1391 740.5 1473.5 c 128,-1,18
 837 1556 837 1556 1024 1556 c 2,19,-1
 1245 1556 l 1,0,-1
EndSplineSet
EndChar

StartChar: g
Encoding: 103 103 71
Width: 1233
Flags: W
LayerCount: 2
Back
Fore
SplineSet
512 145 m 0,0,1
 591 145 591 145 657.5 190 c 128,-1,2
 724 235 724 235 770 319 c 0,3,4
 819 409 819 409 846.5 521 c 128,-1,5
 874 633 874 633 874 739 c 0,6,7
 874 858 874 858 818 924.5 c 128,-1,8
 762 991 762 991 662 991 c 0,9,10
 508 991 508 991 402.5 822.5 c 128,-1,11
 297 654 297 654 297 399 c 0,12,13
 297 280 297 280 354 212.5 c 128,-1,14
 411 145 411 145 512 145 c 0,0,1
942 72 m 2,15,16
 889 -199 889 -199 755.5 -319.5 c 128,-1,17
 622 -440 622 -440 375 -440 c 0,18,19
 293 -440 293 -440 213.5 -426 c 128,-1,20
 134 -412 134 -412 59 -385 c 1,21,-1
 96 -203 l 1,22,23
 169 -247 169 -247 247.5 -270 c 128,-1,24
 326 -293 326 -293 406 -293 c 0,25,26
 555 -293 555 -293 637 -213 c 128,-1,27
 719 -133 719 -133 756 53 c 2,28,-1
 780 170 l 1,29,30
 722 83 722 83 635 37.5 c 128,-1,31
 548 -8 548 -8 438 -8 c 0,32,33
 284 -8 284 -8 193 99.5 c 128,-1,34
 102 207 102 207 102 391 c 0,35,36
 102 530 102 530 142 667.5 c 128,-1,37
 182 805 182 805 254 911 c 0,38,39
 328 1023 328 1023 432 1085 c 128,-1,40
 536 1147 536 1147 647 1147 c 0,41,42
 748 1147 748 1147 824 1098.5 c 128,-1,43
 900 1050 900 1050 934 965 c 1,44,-1
 961 1116 l 1,45,-1
 1145 1116 l 1,46,-1
 942 72 l 2,15,16
EndSplineSet
EndChar

StartChar: h
Encoding: 104 104 72
Width: 1233
Flags: W
LayerCount: 2
Back
Fore
SplineSet
1075 694 m 2,0,-1
 940 0 l 1,1,-1
 756 0 l 1,2,-1
 891 695 l 2,3,4
 892 699 892 699 894 709 c 0,5,6
 909 780 909 780 909 819 c 0,7,8
 909 900 909 900 862.5 943.5 c 128,-1,9
 816 987 816 987 729 987 c 0,10,11
 602 987 602 987 513 894 c 128,-1,12
 424 801 424 801 391 633 c 2,13,-1
 268 0 l 1,14,-1
 84 0 l 1,15,-1
 387 1556 l 1,16,-1
 571 1556 l 1,17,-1
 455 952 l 1,18,19
 530 1049 530 1049 617.5 1098 c 128,-1,20
 705 1147 705 1147 803 1147 c 0,21,22
 942 1147 942 1147 1019 1074.5 c 128,-1,23
 1096 1002 1096 1002 1096 872 c 0,24,25
 1096 840 1096 840 1090.5 793 c 128,-1,26
 1085 746 1085 746 1075 694 c 2,0,-1
EndSplineSet
EndChar

StartChar: i
Encoding: 105 105 73
Width: 1233
Flags: W
LayerCount: 2
Back
Fore
SplineSet
358 1120 m 1,0,-1
 829 1120 l 1,1,-1
 639 143 l 1,2,-1
 1004 143 l 1,3,-1
 975 0 l 1,4,-1
 61 0 l 1,5,-1
 90 143 l 1,6,-1
 455 143 l 1,7,-1
 616 977 l 1,8,-1
 330 977 l 1,9,-1
 358 1120 l 1,0,-1
729 1556 m 1,10,-1
 913 1556 l 1,11,-1
 868 1323 l 1,12,-1
 684 1323 l 1,13,-1
 729 1556 l 1,10,-1
EndSplineSet
EndChar

StartChar: j
Encoding: 106 106 74
Width: 1233
Flags: W
LayerCount: 2
Back
Fore
SplineSet
498 -20 m 2,0,-1
 690 977 l 1,1,-1
 373 977 l 1,2,-1
 401 1120 l 1,3,-1
 903 1120 l 1,4,-1
 682 -20 l 2,5,6
 641 -233 641 -233 540 -329.5 c 128,-1,7
 439 -426 439 -426 258 -426 c 2,8,-1
 4 -426 l 1,9,-1
 35 -270 l 1,10,-1
 268 -270 l 2,11,12
 363 -270 363 -270 418 -210.5 c 128,-1,13
 473 -151 473 -151 498 -20 c 2,0,-1
803 1556 m 1,14,-1
 987 1556 l 1,15,-1
 942 1323 l 1,16,-1
 758 1323 l 1,17,-1
 803 1556 l 1,14,-1
EndSplineSet
EndChar

StartChar: k
Encoding: 107 107 75
Width: 1233
Flags: W
LayerCount: 2
Back
Fore
SplineSet
393 1556 m 1,0,-1
 584 1556 l 1,1,-1
 414 682 l 1,2,-1
 963 1120 l 1,3,-1
 1204 1120 l 1,4,-1
 684 698 l 1,5,-1
 1057 0 l 1,6,-1
 844 0 l 1,7,-1
 537 582 l 1,8,-1
 369 449 l 1,9,-1
 281 0 l 1,10,-1
 90 0 l 1,11,-1
 393 1556 l 1,0,-1
EndSplineSet
EndChar

StartChar: l
Encoding: 108 108 76
Width: 1233
Flags: W
LayerCount: 2
Back
Fore
SplineSet
600 408 m 2,0,1
 593 373 593 373 589.5 346 c 128,-1,2
 586 319 586 319 586 301 c 0,3,4
 586 228 586 228 630.5 192 c 128,-1,5
 675 156 675 156 766 156 c 2,6,-1
 977 156 l 1,7,-1
 946 0 l 1,8,-1
 739 0 l 2,9,10
 566 0 566 0 481.5 63.5 c 128,-1,11
 397 127 397 127 397 258 c 0,12,13
 397 286 397 286 402 326 c 128,-1,14
 407 366 407 366 416 412 c 2,15,-1
 627 1423 l 1,16,-1
 311 1423 l 1,17,-1
 340 1567 l 1,18,-1
 840 1567 l 1,19,-1
 600 408 l 2,0,1
EndSplineSet
EndChar

StartChar: m
Encoding: 109 109 77
Width: 1233
Flags: W
LayerCount: 2
Back
Fore
SplineSet
748 1006 m 1,0,1
 787 1074 787 1074 849.5 1110.5 c 128,-1,2
 912 1147 912 1147 989 1147 c 0,3,4
 1075 1147 1075 1147 1126.5 1092.5 c 128,-1,5
 1178 1038 1178 1038 1178 946 c 0,6,7
 1178 892 1178 892 1169 824 c 128,-1,8
 1160 756 1160 756 1139 649 c 2,9,-1
 1012 0 l 1,10,-1
 844 0 l 1,11,-1
 969 641 l 2,12,13
 987 733 987 733 996.5 791.5 c 128,-1,14
 1006 850 1006 850 1006 874 c 0,15,16
 1006 937 1006 937 983 965 c 128,-1,17
 960 993 960 993 909 993 c 0,18,19
 834 993 834 993 792 928.5 c 128,-1,20
 750 864 750 864 707 641 c 2,21,-1
 582 0 l 1,22,-1
 414 0 l 1,23,-1
 539 641 l 2,24,25
 558 738 558 738 566.5 794.5 c 128,-1,26
 575 851 575 851 575 874 c 0,27,28
 575 935 575 935 551.5 964 c 128,-1,29
 528 993 528 993 479 993 c 0,30,31
 405 993 405 993 364.5 933.5 c 128,-1,32
 324 874 324 874 279 641 c 2,33,-1
 154 0 l 1,34,-1
 -14 0 l 1,35,-1
 203 1120 l 1,36,-1
 371 1120 l 1,37,-1
 352 1024 l 1,38,39
 396 1084 396 1084 451.5 1115.5 c 128,-1,40
 507 1147 507 1147 571 1147 c 0,41,42
 646 1147 646 1147 692 1109.5 c 128,-1,43
 738 1072 738 1072 748 1006 c 1,0,1
EndSplineSet
EndChar

StartChar: n
Encoding: 110 110 78
Width: 1233
Flags: W
LayerCount: 2
Back
Fore
SplineSet
1075 694 m 2,0,-1
 940 0 l 1,1,-1
 756 0 l 1,2,-1
 891 695 l 2,3,4
 892 699 892 699 894 709 c 0,5,6
 909 780 909 780 909 819 c 0,7,8
 909 900 909 900 862.5 943.5 c 128,-1,9
 816 987 816 987 729 987 c 0,10,11
 602 987 602 987 513 894 c 128,-1,12
 424 801 424 801 391 633 c 2,13,-1
 268 0 l 1,14,-1
 84 0 l 1,15,-1
 303 1120 l 1,16,-1
 487 1120 l 1,17,-1
 455 952 l 1,18,19
 530 1049 530 1049 617.5 1098 c 128,-1,20
 705 1147 705 1147 803 1147 c 0,21,22
 942 1147 942 1147 1019 1074.5 c 128,-1,23
 1096 1002 1096 1002 1096 872 c 0,24,25
 1096 840 1096 840 1090.5 793 c 128,-1,26
 1085 746 1085 746 1075 694 c 2,0,-1
EndSplineSet
EndChar

StartChar: o
Encoding: 111 111 79
Width: 1233
Flags: W
LayerCount: 2
Back
Fore
SplineSet
696 991 m 0,0,1
 532 991 532 991 422.5 820 c 128,-1,2
 313 649 313 649 313 385 c 0,3,4
 313 256 313 256 369 191.5 c 128,-1,5
 425 127 425 127 537 127 c 0,6,7
 701 127 701 127 810.5 298 c 128,-1,8
 920 469 920 469 920 733 c 0,9,10
 920 862 920 862 864 926.5 c 128,-1,11
 808 991 808 991 696 991 c 0,0,1
713 1147 m 0,12,13
 909 1147 909 1147 1011.5 1040 c 128,-1,14
 1114 933 1114 933 1114 727 c 0,15,16
 1114 589 1114 589 1073 452.5 c 128,-1,17
 1032 316 1032 316 958 207 c 0,18,19
 879 89 879 89 766 30 c 128,-1,20
 653 -29 653 -29 506 -29 c 0,21,22
 319 -29 319 -29 218 80.5 c 128,-1,23
 117 190 117 190 117 393 c 0,24,25
 117 528 117 528 158 663 c 128,-1,26
 199 798 199 798 274 911 c 0,27,28
 353 1027 353 1027 464.5 1087 c 128,-1,29
 576 1147 576 1147 713 1147 c 0,12,13
EndSplineSet
EndChar

StartChar: p
Encoding: 112 112 80
Width: 1233
Flags: W
LayerCount: 2
Back
Fore
SplineSet
293 141 m 1,0,-1
 182 -426 l 1,1,-1
 -2 -426 l 1,2,-1
 299 1120 l 1,3,-1
 483 1120 l 1,4,-1
 455 977 l 1,5,6
 516 1059 516 1059 602 1103 c 128,-1,7
 688 1147 688 1147 788 1147 c 0,8,9
 950 1147 950 1147 1039 1043 c 128,-1,10
 1128 939 1128 939 1128 752 c 0,11,12
 1128 609 1128 609 1088.5 465 c 128,-1,13
 1049 321 1049 321 979 211 c 0,14,15
 904 93 904 93 802 32 c 128,-1,16
 700 -29 700 -29 578 -29 c 0,17,18
 478 -29 478 -29 407.5 13 c 128,-1,19
 337 55 337 55 293 141 c 1,0,-1
569 127 m 0,20,21
 650 127 650 127 717 171.5 c 128,-1,22
 784 216 784 216 829 301 c 0,23,24
 878 393 878 393 906 508.5 c 128,-1,25
 934 624 934 624 934 737 c 0,26,27
 934 864 934 864 882.5 927.5 c 128,-1,28
 831 991 831 991 729 991 c 0,29,30
 644 991 644 991 575.5 946 c 128,-1,31
 507 901 507 901 459 813 c 0,32,33
 410 725 410 725 382 611 c 128,-1,34
 354 497 354 497 354 383 c 0,35,36
 354 260 354 260 410 193.5 c 128,-1,37
 466 127 466 127 569 127 c 0,20,21
EndSplineSet
EndChar

StartChar: q
Encoding: 113 113 81
Width: 1233
Flags: W
LayerCount: 2
Back
Fore
SplineSet
774 141 m 1,0,1
 713 57 713 57 630.5 14 c 128,-1,2
 548 -29 548 -29 446 -29 c 0,3,4
 282 -29 282 -29 190 74.5 c 128,-1,5
 98 178 98 178 98 365 c 0,6,7
 98 507 98 507 139 652 c 128,-1,8
 180 797 180 797 252 909 c 0,9,10
 327 1027 327 1027 431.5 1087 c 128,-1,11
 536 1147 536 1147 666 1147 c 0,12,13
 766 1147 766 1147 833.5 1104.5 c 128,-1,14
 901 1062 901 1062 936 977 c 1,15,-1
 963 1120 l 1,16,-1
 1147 1120 l 1,17,-1
 848 -426 l 1,18,-1
 664 -426 l 1,19,-1
 774 141 l 1,0,1
668 991 m 0,20,21
 583 991 583 991 515 947 c 128,-1,22
 447 903 447 903 401 817 c 0,23,24
 352 723 352 723 323.5 607 c 128,-1,25
 295 491 295 491 295 383 c 0,26,27
 295 255 295 255 345.5 191 c 128,-1,28
 396 127 396 127 498 127 c 0,29,30
 580 127 580 127 649 172.5 c 128,-1,31
 718 218 718 218 768 305 c 0,32,33
 816 390 816 390 845 507.5 c 128,-1,34
 874 625 874 625 874 737 c 0,35,36
 874 860 874 860 820.5 925.5 c 128,-1,37
 767 991 767 991 668 991 c 0,20,21
EndSplineSet
EndChar

StartChar: r
Encoding: 114 114 82
Width: 1233
Flags: W
LayerCount: 2
Back
Fore
SplineSet
1184 889 m 1,0,1
 1139 933 1139 933 1079.5 955 c 128,-1,2
 1020 977 1020 977 944 977 c 0,3,4
 780 977 780 977 663 862.5 c 128,-1,5
 546 748 546 748 508 549 c 2,6,-1
 401 0 l 1,7,-1
 217 0 l 1,8,-1
 434 1120 l 1,9,-1
 618 1120 l 1,10,-1
 578 901 l 1,11,12
 645 1021 645 1021 751.5 1084 c 128,-1,13
 858 1147 858 1147 993 1147 c 0,14,15
 1064 1147 1064 1147 1121.5 1128.5 c 128,-1,16
 1179 1110 1179 1110 1219 1075 c 1,17,-1
 1184 889 l 1,0,1
EndSplineSet
EndChar

StartChar: s
Encoding: 115 115 83
Width: 1233
Flags: W
LayerCount: 2
Back
Fore
SplineSet
1077 1081 m 1,0,-1
 1042 901 l 1,1,2
 971 946 971 946 892.5 969.5 c 128,-1,3
 814 993 814 993 737 993 c 0,4,5
 600 993 600 993 524.5 942 c 128,-1,6
 449 891 449 891 449 799 c 0,7,8
 449 701 449 701 670 645 c 0,9,10
 685 641 685 641 692 639 c 2,11,-1
 764 621 l 2,12,13
 881 590 881 590 939 528.5 c 128,-1,14
 997 467 997 467 997 375 c 0,15,16
 997 194 997 194 853 82.5 c 128,-1,17
 709 -29 709 -29 471 -29 c 0,18,19
 390 -29 390 -29 302 -11.5 c 128,-1,20
 214 6 214 6 115 41 c 1,21,-1
 152 231 l 1,22,23
 246 178 246 178 334.5 151.5 c 128,-1,24
 423 125 423 125 506 125 c 0,25,26
 639 125 639 125 723 184.5 c 128,-1,27
 807 244 807 244 807 336 c 0,28,29
 807 435 807 435 611 487 c 0,30,31
 593 491 593 491 583 494 c 2,32,-1
 516 512 l 2,33,34
 387 545 387 545 326.5 609 c 128,-1,35
 266 673 266 673 266 776 c 0,36,37
 266 946 266 946 398 1046.5 c 128,-1,38
 530 1147 530 1147 754 1147 c 0,39,40
 842 1147 842 1147 923 1130.5 c 128,-1,41
 1004 1114 1004 1114 1077 1081 c 1,0,-1
EndSplineSet
EndChar

StartChar: t
Encoding: 116 116 84
Width: 1233
Flags: W
LayerCount: 2
Back
Fore
SplineSet
768 1438 m 1,0,-1
 707 1120 l 1,1,-1
 1124 1120 l 1,2,-1
 1096 977 l 1,3,-1
 678 977 l 1,4,-1
 559 369 l 2,5,6
 553 339 553 339 550 313.5 c 128,-1,7
 547 288 547 288 547 266 c 0,8,9
 547 200 547 200 586 173.5 c 128,-1,10
 625 147 625 147 727 147 c 2,11,-1
 934 147 l 1,12,-1
 905 0 l 1,13,-1
 682 0 l 2,14,15
 515 0 515 0 436.5 55.5 c 128,-1,16
 358 111 358 111 358 229 c 0,17,18
 358 254 358 254 362 288 c 128,-1,19
 366 322 366 322 375 369 c 2,20,-1
 494 977 l 1,21,-1
 195 977 l 1,22,-1
 223 1120 l 1,23,-1
 522 1120 l 1,24,-1
 584 1438 l 1,25,-1
 768 1438 l 1,0,-1
EndSplineSet
EndChar

StartChar: u
Encoding: 117 117 85
Width: 1233
Flags: W
LayerCount: 2
Back
Fore
SplineSet
143 426 m 2,0,-1
 276 1120 l 1,1,-1
 461 1120 l 1,2,-1
 326 426 l 2,3,4
 319 389 319 389 315 355 c 128,-1,5
 311 321 311 321 311 297 c 0,6,7
 311 218 311 218 357.5 175.5 c 128,-1,8
 404 133 404 133 489 133 c 0,9,10
 616 133 616 133 704 225.5 c 128,-1,11
 792 318 792 318 825 487 c 2,12,-1
 948 1120 l 1,13,-1
 1133 1120 l 1,14,-1
 915 0 l 1,15,-1
 731 0 l 1,16,-1
 764 168 l 1,17,18
 691 70 691 70 602 21.5 c 128,-1,19
 513 -27 513 -27 408 -27 c 0,20,21
 277 -27 277 -27 201 46.5 c 128,-1,22
 125 120 125 120 125 246 c 0,23,24
 125 285 125 285 129.5 331.5 c 128,-1,25
 134 378 134 378 143 426 c 2,0,-1
EndSplineSet
EndChar

StartChar: v
Encoding: 118 118 86
Width: 1233
Flags: W
LayerCount: 2
Back
Fore
SplineSet
182 1120 m 1,0,-1
 360 1120 l 1,1,-1
 514 164 l 1,2,-1
 1016 1120 l 1,3,-1
 1214 1120 l 1,4,-1
 600 0 l 1,5,-1
 362 0 l 1,6,-1
 182 1120 l 1,0,-1
EndSplineSet
EndChar

StartChar: w
Encoding: 119 119 87
Width: 1233
Flags: W
LayerCount: 2
Back
Fore
SplineSet
92 1120 m 1,0,-1
 268 1120 l 1,1,-1
 283 215 l 1,2,-1
 551 793 l 1,3,-1
 713 793 l 1,4,-1
 762 215 l 1,5,-1
 1124 1120 l 1,6,-1
 1315 1120 l 1,7,-1
 829 0 l 1,8,-1
 664 0 l 1,9,-1
 604 623 l 1,10,-1
 307 0 l 1,11,-1
 141 0 l 1,12,-1
 92 1120 l 1,0,-1
EndSplineSet
EndChar

StartChar: x
Encoding: 120 120 88
Width: 1233
Flags: W
LayerCount: 2
Back
Fore
SplineSet
1208 1120 m 1,0,-1
 696 573 l 1,1,-1
 1014 0 l 1,2,-1
 817 0 l 1,3,-1
 573 444 l 1,4,-1
 156 0 l 1,5,-1
 -70 0 l 1,6,-1
 494 596 l 1,7,-1
 201 1120 l 1,8,-1
 397 1120 l 1,9,-1
 614 725 l 1,10,-1
 983 1120 l 1,11,-1
 1208 1120 l 1,0,-1
EndSplineSet
EndChar

StartChar: y
Encoding: 121 121 89
Width: 1233
Flags: W
LayerCount: 2
Back
Fore
SplineSet
786 360 m 2,0,1
 724 253 724 253 621 72 c 0,2,3
 466 -203 466 -203 412 -276 c 0,4,5
 354 -352 354 -352 279.5 -389 c 128,-1,6
 205 -426 205 -426 109 -426 c 2,7,-1
 -39 -426 l 1,8,-1
 -10 -272 l 1,9,-1
 98 -272 l 2,10,11
 179 -272 179 -272 237.5 -225.5 c 128,-1,12
 296 -179 296 -179 356 -66 c 2,13,-1
 399 18 l 1,14,-1
 182 1120 l 1,15,-1
 365 1120 l 1,16,-1
 537 258 l 1,17,-1
 1020 1120 l 1,18,-1
 1225 1120 l 1,19,-1
 786 360 l 2,0,1
EndSplineSet
EndChar

StartChar: z
Encoding: 122 122 90
Width: 1233
Flags: W
LayerCount: 2
Back
Fore
SplineSet
319 1120 m 1,0,-1
 1133 1120 l 1,1,-1
 1100 952 l 1,2,-1
 315 147 l 1,3,-1
 944 147 l 1,4,-1
 915 0 l 1,5,-1
 78 0 l 1,6,-1
 111 168 l 1,7,-1
 895 973 l 1,8,-1
 291 973 l 1,9,-1
 319 1120 l 1,0,-1
EndSplineSet
EndChar

StartChar: braceleft
Encoding: 123 123 91
Width: 1233
Flags: W
LayerCount: 2
Back
Fore
SplineSet
1176 1556 m 1,0,-1
 1147 1413 l 1,1,-1
 1069 1413 l 2,2,3
 933 1413 933 1413 886 1373.5 c 128,-1,4
 839 1334 839 1334 809 1184 c 2,5,-1
 758 932 l 2,6,7
 725 772 725 772 665 699.5 c 128,-1,8
 605 627 605 627 494 606 c 1,9,10
 567 588 567 588 607 536.5 c 128,-1,11
 647 485 647 485 647 410 c 0,12,13
 647 385 647 385 643.5 353 c 128,-1,14
 640 321 640 321 633 283 c 2,15,-1
 586 39 l 2,16,17
 580 6 580 6 578 -19.5 c 128,-1,18
 576 -45 576 -45 575 -70 c 0,19,20
 575 -133 575 -133 618 -161.5 c 128,-1,21
 661 -190 661 -190 758 -190 c 2,22,-1
 836 -190 l 1,23,-1
 807 -334 l 1,24,-1
 735 -334 l 2,25,26
 548 -334 548 -334 466.5 -279.5 c 128,-1,27
 385 -225 385 -225 385 -102 c 0,28,29
 385 -71 385 -71 388.5 -37 c 128,-1,30
 392 -3 392 -3 399 34 c 2,31,-1
 444 270 l 2,32,33
 445 273 445 273 447 282 c 0,34,35
 457 332 457 332 457 377 c 0,36,37
 457 462 457 462 408 499.5 c 128,-1,38
 359 537 359 537 246 537 c 2,39,-1
 184 537 l 1,40,-1
 213 684 l 1,41,-1
 274 684 l 2,42,43
 419 684 419 684 482 739 c 128,-1,44
 545 794 545 794 575 944 c 2,45,-1
 625 1188 l 2,46,47
 650 1311 650 1311 686 1382.5 c 128,-1,48
 722 1454 722 1454 776 1493 c 0,49,50
 823 1527 823 1527 892 1541.5 c 128,-1,51
 961 1556 961 1556 1094 1556 c 2,52,-1
 1176 1556 l 1,0,-1
EndSplineSet
EndChar

StartChar: bar
Encoding: 124 124 92
Width: 1233
Flags: W
LayerCount: 2
Back
Fore
SplineSet
702 1565 m 1,0,-1
 702 -483 l 1,1,-1
 530 -483 l 1,2,-1
 530 1565 l 1,3,-1
 702 1565 l 1,0,-1
EndSplineSet
EndChar

StartChar: braceright
Encoding: 125 125 93
Width: 1233
Flags: W
LayerCount: 2
Back
Fore
SplineSet
-14 -334 m 1,0,-1
 14 -190 l 1,1,-1
 92 -190 l 2,2,3
 228 -190 228 -190 275 -150.5 c 128,-1,4
 322 -111 322 -111 352 39 c 2,5,-1
 403 291 l 2,6,7
 436 451 436 451 496 523.5 c 128,-1,8
 556 596 556 596 668 616 c 1,9,10
 594 635 594 635 554 686 c 128,-1,11
 514 737 514 737 514 813 c 0,12,13
 514 837 514 837 517.5 869.5 c 128,-1,14
 521 902 521 902 528 940 c 2,15,-1
 575 1183 l 2,16,17
 581 1217 581 1217 583.5 1242.5 c 128,-1,18
 586 1268 586 1268 586 1292 c 0,19,20
 586 1356 586 1356 543.5 1384.5 c 128,-1,21
 501 1413 501 1413 403 1413 c 2,22,-1
 326 1413 l 1,23,-1
 352 1556 l 1,24,-1
 426 1556 l 2,25,26
 614 1556 614 1556 695 1502 c 128,-1,27
 776 1448 776 1448 776 1325 c 0,28,29
 776 1293 776 1293 772.5 1259 c 128,-1,30
 769 1225 769 1225 762 1188 c 2,31,-1
 717 952 l 2,32,33
 716 949 716 949 715 940 c 0,34,35
 705 891 705 891 705 846 c 0,36,37
 705 760 705 760 754 723 c 128,-1,38
 803 686 803 686 915 686 c 2,39,-1
 977 686 l 1,40,-1
 948 539 l 1,41,-1
 887 539 l 2,42,43
 743 539 743 539 679.5 484 c 128,-1,44
 616 429 616 429 584 279 c 2,45,-1
 537 35 l 2,46,47
 511 -89 511 -89 475 -160 c 128,-1,48
 439 -231 439 -231 385 -270 c 0,49,50
 338 -304 338 -304 269 -319 c 128,-1,51
 200 -334 200 -334 68 -334 c 2,52,-1
 -14 -334 l 1,0,-1
EndSplineSet
EndChar

StartChar: asciitilde
Encoding: 126 126 94
Width: 1233
Flags: W
LayerCount: 2
Back
Fore
SplineSet
1120 804 m 1,0,-1
 1232 716 l 1,1,2
 1104 520 1104 520 1006 448.5 c 128,-1,3
 908 377 908 377 820 377 c 1,4,5
 681 385 681 385 598 522.5 c 128,-1,6
 515 660 515 660 481 717.5 c 128,-1,7
 447 775 447 775 374 774 c 0,8,9
 297 774 297 774 241.5 701.5 c 128,-1,10
 186 629 186 629 118 517 c 1,11,-1
 2 593 l 1,12,13
 99 778 99 778 209.5 866 c 128,-1,14
 320 954 320 954 413 954 c 0,15,16
 583 956 583 956 673.5 754 c 128,-1,17
 764 552 764 552 857 552 c 0,18,19
 936 552 936 552 1004.5 638.5 c 128,-1,20
 1073 725 1073 725 1120 804 c 1,0,-1
EndSplineSet
EndChar

StartChar: exclamdown
Encoding: 161 161 95
Width: 1233
Flags: W
LayerCount: 2
Back
Fore
SplineSet
834 1239 m 1,0,-1
 631 1239 l 1,1,-1
 680 1493 l 1,2,-1
 883 1493 l 1,3,-1
 834 1239 l 1,0,-1
592 0 m 1,4,-1
 389 0 l 1,5,-1
 518 655 l 1,6,-1
 606 1012 l 1,7,-1
 768 1012 l 1,8,-1
 719 655 l 1,9,-1
 592 0 l 1,4,-1
EndSplineSet
EndChar

StartChar: cent
Encoding: 162 162 96
Width: 1233
Flags: W
LayerCount: 2
Back
Fore
SplineSet
1087 1077 m 1,0,-1
 1055 905 l 1,1,2
 1006 943 1006 943 944.5 965 c 128,-1,3
 883 987 883 987 811 993 c 1,4,-1
 641 123 l 1,5,6
 706 128 706 128 775.5 150.5 c 128,-1,7
 845 173 845 173 920 213 c 1,8,-1
 887 41 l 1,9,10
 812 10 812 10 743.5 -6.5 c 128,-1,11
 675 -23 675 -23 612 -27 c 1,12,-1
 557 -313 l 1,13,-1
 455 -313 l 1,14,-1
 510 -27 l 1,15,16
 327 -7 327 -7 225 114 c 128,-1,17
 123 235 123 235 123 430 c 0,18,19
 123 616 123 616 204 778 c 128,-1,20
 285 940 285 940 426 1036 c 0,21,22
 496 1085 496 1085 573.5 1112 c 128,-1,23
 651 1139 651 1139 737 1145 c 1,24,-1
 793 1432 l 1,25,-1
 895 1432 l 1,26,-1
 840 1145 l 1,27,28
 900 1142 900 1142 962.5 1125 c 128,-1,29
 1025 1108 1025 1108 1087 1077 c 1,0,-1
541 127 m 1,30,-1
 709 991 l 1,31,32
 544 976 544 976 429.5 811.5 c 128,-1,33
 315 647 315 647 315 422 c 0,34,35
 315 292 315 292 373.5 215.5 c 128,-1,36
 432 139 432 139 541 127 c 1,30,-1
EndSplineSet
EndChar

StartChar: sterling
Encoding: 163 163 97
Width: 1233
Flags: W
LayerCount: 2
Back
Fore
SplineSet
1229 1462 m 1,0,-1
 1192 1278 l 1,1,2
 1138 1321 1138 1321 1077.5 1343.5 c 128,-1,3
 1017 1366 1017 1366 954 1366 c 0,4,5
 815 1366 815 1366 738 1281 c 128,-1,6
 661 1196 661 1196 623 995 c 2,7,-1
 580 778 l 1,8,-1
 950 778 l 1,9,-1
 922 635 l 1,10,-1
 551 635 l 1,11,-1
 461 170 l 1,12,-1
 997 170 l 1,13,-1
 965 0 l 1,14,-1
 -8 0 l 1,15,-1
 25 170 l 1,16,-1
 262 170 l 1,17,-1
 352 635 l 1,18,-1
 154 635 l 1,19,-1
 180 778 l 1,20,-1
 379 778 l 1,21,-1
 426 1016 l 2,22,23
 477 1276 477 1276 608 1398 c 128,-1,24
 739 1520 739 1520 967 1520 c 0,25,26
 1027 1520 1027 1520 1092 1505.5 c 128,-1,27
 1157 1491 1157 1491 1229 1462 c 1,0,-1
EndSplineSet
EndChar

StartChar: currency
Encoding: 164 164 98
Width: 1233
Flags: W
LayerCount: 2
Back
Fore
SplineSet
868 643 m 0,0,1
 868 733 868 733 806 794.5 c 128,-1,2
 744 856 744 856 653 856 c 0,3,4
 563 856 563 856 500.5 794.5 c 128,-1,5
 438 733 438 733 438 643 c 0,6,7
 438 551 438 551 500.5 488.5 c 128,-1,8
 563 426 563 426 653 426 c 0,9,10
 744 426 744 426 806 489 c 128,-1,11
 868 552 868 552 868 643 c 0,0,1
844 924 m 1,12,-1
 1010 1090 l 1,13,-1
 1100 997 l 1,14,-1
 934 831 l 1,15,16
 964 782 964 782 978.5 735.5 c 128,-1,17
 993 689 993 689 993 641 c 0,18,19
 993 591 993 591 978 545.5 c 128,-1,20
 963 500 963 500 932 455 c 1,21,-1
 1100 289 l 1,22,-1
 1006 195 l 1,23,-1
 840 362 l 1,24,25
 794 331 794 331 748.5 316 c 128,-1,26
 703 301 703 301 653 301 c 0,27,28
 605 301 605 301 557 315.5 c 128,-1,29
 509 330 509 330 461 358 c 1,30,-1
 297 195 l 1,31,-1
 205 285 l 1,32,-1
 371 451 l 1,33,34
 340 502 340 502 325.5 548.5 c 128,-1,35
 311 595 311 595 311 641 c 0,36,37
 311 691 311 691 326.5 737.5 c 128,-1,38
 342 784 342 784 373 829 c 1,39,-1
 205 995 l 1,40,-1
 299 1090 l 1,41,-1
 465 922 l 1,42,43
 511 953 511 953 556.5 968 c 128,-1,44
 602 983 602 983 653 983 c 0,45,46
 699 983 699 983 746 968.5 c 128,-1,47
 793 954 793 954 844 924 c 1,12,-1
EndSplineSet
EndChar

StartChar: yen
Encoding: 165 165 99
Width: 1233
Flags: W
LayerCount: 2
Back
Fore
SplineSet
1036 524 m 1,0,-1
 643 524 l 1,1,-1
 545 0 l 1,2,-1
 346 0 l 1,3,-1
 444 524 l 1,4,-1
 47 524 l 1,5,-1
 70 635 l 1,6,-1
 467 635 l 1,7,-1
 473 670 l 1,8,-1
 418 821 l 1,9,-1
 109 821 l 1,10,-1
 131 932 l 1,11,-1
 377 932 l 1,12,-1
 172 1493 l 1,13,-1
 379 1493 l 1,14,-1
 602 829 l 1,15,-1
 1061 1493 l 1,16,-1
 1272 1493 l 1,17,-1
 868 932 l 1,18,-1
 1120 932 l 1,19,-1
 1098 821 l 1,20,-1
 786 821 l 1,21,-1
 676 670 l 1,22,-1
 666 635 l 1,23,-1
 1059 635 l 1,24,-1
 1036 524 l 1,0,-1
EndSplineSet
EndChar

StartChar: brokenbar
Encoding: 166 166 100
Width: 1233
Flags: W
LayerCount: 2
Back
Fore
SplineSet
702 1432 m 1,0,-1
 702 674 l 1,1,-1
 530 674 l 1,2,-1
 530 1432 l 1,3,-1
 702 1432 l 1,0,-1
702 408 m 1,4,-1
 702 -350 l 1,5,-1
 530 -350 l 1,6,-1
 530 408 l 1,7,-1
 702 408 l 1,4,-1
EndSplineSet
EndChar

StartChar: section
Encoding: 167 167 101
Width: 1233
Flags: W
LayerCount: 2
Back
Fore
SplineSet
1069 1454 m 1,0,-1
 1036 1290 l 1,1,2
 965 1328 965 1328 896.5 1348 c 128,-1,3
 828 1368 828 1368 770 1368 c 0,4,5
 667 1368 667 1368 601 1319 c 128,-1,6
 535 1270 535 1270 535 1198 c 0,7,8
 535 1119 535 1119 669 1029 c 0,9,10
 700 1009 700 1009 717 997 c 2,11,-1
 803 938 l 2,12,13
 927 852 927 852 969.5 793.5 c 128,-1,14
 1012 735 1012 735 1012 666 c 0,15,16
 1012 565 1012 565 946 475 c 128,-1,17
 880 385 880 385 766 332 c 1,18,19
 807 297 807 297 827.5 252 c 128,-1,20
 848 207 848 207 848 152 c 0,21,22
 848 -5 848 -5 726.5 -103 c 128,-1,23
 605 -201 605 -201 406 -201 c 0,24,25
 336 -201 336 -201 259.5 -186.5 c 128,-1,26
 183 -172 183 -172 100 -143 c 1,27,-1
 133 18 l 1,28,29
 207 -18 207 -18 279 -37.5 c 128,-1,30
 351 -57 351 -57 412 -57 c 0,31,32
 524 -57 524 -57 590.5 -10 c 128,-1,33
 657 37 657 37 657 115 c 0,34,35
 657 213 657 213 474 337 c 2,36,-1
 461 346 l 1,37,-1
 387 397 l 2,38,39
 262 482 262 482 222 537.5 c 128,-1,40
 182 593 182 593 182 666 c 0,41,42
 182 762 182 762 246 848 c 128,-1,43
 310 934 310 934 428 997 c 1,44,45
 387 1034 387 1034 368.5 1074 c 128,-1,46
 350 1114 350 1114 350 1167 c 0,47,48
 350 1316 350 1316 470 1413.5 c 128,-1,49
 590 1511 590 1511 776 1511 c 0,50,51
 847 1511 847 1511 920.5 1497 c 128,-1,52
 994 1483 994 1483 1069 1454 c 1,0,-1
678 401 m 1,53,54
 762 452 762 452 806 507.5 c 128,-1,55
 850 563 850 563 850 618 c 0,56,57
 850 671 850 671 796.5 727 c 128,-1,58
 743 783 743 783 596 877 c 2,59,-1
 516 928 l 1,60,61
 434 876 434 876 391 820 c 128,-1,62
 348 764 348 764 348 709 c 0,63,64
 348 658 348 658 390.5 610 c 128,-1,65
 433 562 433 562 559 479 c 2,66,-1
 678 401 l 1,53,54
EndSplineSet
EndChar

StartChar: dieresis
Encoding: 168 168 102
Width: 1233
Flags: W
LayerCount: 2
Back
Fore
SplineSet
475 1552 m 1,0,-1
 678 1552 l 1,1,-1
 639 1350 l 1,2,-1
 436 1350 l 1,3,-1
 475 1552 l 1,0,-1
866 1552 m 1,4,-1
 1069 1552 l 1,5,-1
 1030 1350 l 1,6,-1
 827 1350 l 1,7,-1
 866 1552 l 1,4,-1
EndSplineSet
EndChar

StartChar: guillemotleft
Encoding: 171 171 103
Width: 1233
Flags: W
LayerCount: 2
Back
Fore
SplineSet
1106 1059 m 1,0,-1
 1063 848 l 1,1,-1
 713 584 l 1,2,-1
 963 317 l 1,3,-1
 928 141 l 1,4,-1
 541 559 l 1,5,-1
 557 641 l 1,6,-1
 1106 1059 l 1,0,-1
639 1059 m 1,7,-1
 596 848 l 1,8,-1
 246 584 l 1,9,-1
 496 317 l 1,10,-1
 461 141 l 1,11,-1
 74 559 l 1,12,-1
 90 641 l 1,13,-1
 639 1059 l 1,7,-1
EndSplineSet
EndChar

StartChar: logicalnot
Encoding: 172 172 104
Width: 1233
Flags: W
LayerCount: 2
Back
Fore
SplineSet
88 862 m 1,0,-1
 1145 862 l 1,1,-1
 1145 371 l 1,2,-1
 977 371 l 1,3,-1
 977 690 l 1,4,-1
 88 690 l 1,5,-1
 88 862 l 1,0,-1
EndSplineSet
EndChar

StartChar: sfthyphen
Encoding: 173 173 105
Width: 1233
Flags: W
LayerCount: 2
Back
Fore
SplineSet
137 724 m 1,0,-1
 1127 724 l 1,1,-1
 1092 555 l 1,2,-1
 102 555 l 1,3,-1
 137 724 l 1,0,-1
EndSplineSet
EndChar

StartChar: macron
Encoding: 175 175 106
Width: 1233
Flags: W
LayerCount: 2
Back
Fore
SplineSet
129 1526 m 1,0,-1
 1127 1526 l 1,1,-1
 1101 1378 l 1,2,-1
 103 1378 l 1,3,-1
 129 1526 l 1,0,-1
EndSplineSet
EndChar

StartChar: degree
Encoding: 176 176 107
Width: 1233
Flags: W
LayerCount: 2
Back
Fore
SplineSet
616 1520 m 0,0,1
 681 1520 681 1520 739.5 1495.5 c 128,-1,2
 798 1471 798 1471 842 1425 c 0,3,4
 887 1380 887 1380 910.5 1323 c 128,-1,5
 934 1266 934 1266 934 1200 c 0,6,7
 934 1068 934 1068 841 976.5 c 128,-1,8
 748 885 748 885 614 885 c 0,9,10
 479 885 479 885 389 975 c 128,-1,11
 299 1065 299 1065 299 1200 c 0,12,13
 299 1334 299 1334 391 1427 c 128,-1,14
 483 1520 483 1520 616 1520 c 0,0,1
616 1391 m 256,15,16
 537 1391 537 1391 481.5 1335.5 c 128,-1,17
 426 1280 426 1280 426 1200 c 256,18,19
 426 1120 426 1120 480.5 1066 c 128,-1,20
 535 1012 535 1012 614 1012 c 0,21,22
 694 1012 694 1012 750.5 1067 c 128,-1,23
 807 1122 807 1122 807 1200 c 0,24,25
 807 1279 807 1279 751 1335 c 128,-1,26
 695 1391 695 1391 616 1391 c 256,15,16
EndSplineSet
EndChar

StartChar: plusminus
Encoding: 177 177 108
Width: 1233
Flags: W
LayerCount: 2
Back
Fore
SplineSet
88 170 m 1,0,-1
 1145 170 l 1,1,-1
 1145 0 l 1,2,-1
 88 0 l 1,3,-1
 88 170 l 1,0,-1
700 1171 m 1,4,-1
 700 842 l 1,5,-1
 1145 842 l 1,6,-1
 1145 672 l 1,7,-1
 700 672 l 1,8,-1
 700 340 l 1,9,-1
 532 340 l 1,10,-1
 532 672 l 1,11,-1
 88 672 l 1,12,-1
 88 842 l 1,13,-1
 532 842 l 1,14,-1
 532 1171 l 1,15,-1
 700 1171 l 1,4,-1
EndSplineSet
EndChar

StartChar: twosuperior
Encoding: 178 178 109
Width: 1233
Flags: W
LayerCount: 2
Back
Fore
SplineSet
492 782 m 1,0,-1
 887 782 l 1,1,-1
 864 668 l 1,2,-1
 307 668 l 1,3,-1
 328 778 l 1,4,-1
 498 918 l 1,5,-1
 531 945 l 2,6,7
 844 1198 844 1198 844 1303 c 0,8,9
 844 1354 844 1354 807 1384.5 c 128,-1,10
 770 1415 770 1415 707 1415 c 0,11,12
 656 1415 656 1415 595 1396.5 c 128,-1,13
 534 1378 534 1378 451 1337 c 1,14,-1
 475 1464 l 1,15,16
 559 1493 559 1493 621.5 1506.5 c 128,-1,17
 684 1520 684 1520 737 1520 c 0,18,19
 855 1520 855 1520 923 1464.5 c 128,-1,20
 991 1409 991 1409 991 1315 c 0,21,22
 991 1176 991 1176 682 933 c 1,23,-1
 662 918 l 1,24,-1
 492 782 l 1,0,-1
EndSplineSet
EndChar

StartChar: threesuperior
Encoding: 179 179 110
Width: 1233
Flags: W
LayerCount: 2
Back
Fore
SplineSet
772 1116 m 1,0,1
 844 1104 844 1104 883 1058.5 c 128,-1,2
 922 1013 922 1013 922 942 c 0,3,4
 922 811 922 811 818 732 c 128,-1,5
 714 653 714 653 539 653 c 0,6,7
 473 653 473 653 409.5 663.5 c 128,-1,8
 346 674 346 674 287 694 c 1,9,-1
 311 815 l 1,10,11
 378 786 378 786 430 773 c 128,-1,12
 482 760 482 760 532 760 c 0,13,14
 644 760 644 760 709 806 c 128,-1,15
 774 852 774 852 774 930 c 0,16,17
 774 997 774 997 731.5 1029 c 128,-1,18
 689 1061 689 1061 600 1061 c 2,19,-1
 528 1061 l 1,20,-1
 549 1167 l 1,21,-1
 621 1167 l 2,22,23
 718 1167 718 1167 777 1207 c 128,-1,24
 836 1247 836 1247 836 1311 c 0,25,26
 836 1362 836 1362 793 1387.5 c 128,-1,27
 750 1413 750 1413 664 1413 c 0,28,29
 622 1413 622 1413 571.5 1402.5 c 128,-1,30
 521 1392 521 1392 461 1370 c 1,31,-1
 483 1485 l 1,32,33
 554 1502 554 1502 615 1511 c 128,-1,34
 676 1520 676 1520 731 1520 c 0,35,36
 852 1520 852 1520 917.5 1470 c 128,-1,37
 983 1420 983 1420 983 1329 c 0,38,39
 983 1250 983 1250 926 1192 c 128,-1,40
 869 1134 869 1134 772 1116 c 1,0,1
EndSplineSet
EndChar

StartChar: paragraph
Encoding: 182 182 111
Width: 1233
Flags: W
LayerCount: 2
Back
Fore
SplineSet
735 1493 m 2,0,-1
 1141 1493 l 1,1,-1
 813 -197 l 1,2,-1
 674 -197 l 1,3,-1
 977 1370 l 1,4,-1
 786 1370 l 1,5,-1
 483 -197 l 1,6,-1
 342 -197 l 1,7,-1
 506 649 l 1,8,9
 329 653 329 653 227 748 c 128,-1,10
 125 843 125 843 125 1004 c 0,11,12
 125 1213 125 1213 298 1353 c 128,-1,13
 471 1493 471 1493 735 1493 c 2,0,-1
EndSplineSet
EndChar

StartChar: periodcentered
Encoding: 183 183 112
Width: 1233
Flags: W
LayerCount: 2
Back
Fore
SplineSet
512 864 m 1,0,-1
 766 864 l 1,1,-1
 707 559 l 1,2,-1
 455 559 l 1,3,-1
 512 864 l 1,0,-1
EndSplineSet
EndChar

StartChar: onesuperior
Encoding: 185 185 113
Width: 1233
Flags: W
LayerCount: 2
Back
Fore
SplineSet
369 778 m 1,0,-1
 575 778 l 1,1,-1
 692 1389 l 1,2,-1
 461 1348 l 1,3,-1
 483 1464 l 1,4,-1
 721 1503 l 1,5,-1
 858 1503 l 1,6,-1
 717 778 l 1,7,-1
 922 778 l 1,8,-1
 901 668 l 1,9,-1
 348 668 l 1,10,-1
 369 778 l 1,0,-1
EndSplineSet
EndChar

StartChar: guillemotright
Encoding: 187 187 114
Width: 1233
Flags: W
LayerCount: 2
Back
Fore
SplineSet
82 141 m 1,0,-1
 125 352 l 1,1,-1
 475 614 l 1,2,-1
 225 883 l 1,3,-1
 260 1059 l 1,4,-1
 647 641 l 1,5,-1
 633 559 l 1,6,-1
 82 141 l 1,0,-1
549 141 m 1,7,-1
 592 352 l 1,8,-1
 942 614 l 1,9,-1
 692 883 l 1,10,-1
 727 1059 l 1,11,-1
 1114 641 l 1,12,-1
 1100 559 l 1,13,-1
 549 141 l 1,7,-1
EndSplineSet
EndChar

StartChar: questiondown
Encoding: 191 191 115
Width: 1233
Flags: W
LayerCount: 2
Back
Fore
SplineSet
655 1092 m 1,0,-1
 846 1092 l 1,1,-1
 817 938 l 2,2,3
 799 845 799 845 759 779.5 c 128,-1,4
 719 714 719 714 608 621 c 2,5,-1
 502 532 l 2,6,7
 417 460 417 460 381.5 404.5 c 128,-1,8
 346 349 346 349 346 293 c 0,9,10
 346 219 346 219 401.5 178 c 128,-1,11
 457 137 457 137 557 137 c 0,12,13
 636 137 636 137 734 172.5 c 128,-1,14
 832 208 832 208 938 274 c 1,15,-1
 901 86 l 1,16,17
 793 29 793 29 691.5 1 c 128,-1,18
 590 -27 590 -27 489 -27 c 0,19,20
 337 -27 337 -27 240 54.5 c 128,-1,21
 143 136 143 136 143 262 c 0,22,23
 143 356 143 356 192 436.5 c 128,-1,24
 241 517 241 517 371 625 c 2,25,-1
 475 711 l 2,26,27
 559 781 559 781 589.5 832 c 128,-1,28
 620 883 620 883 635 969 c 2,29,-1
 655 1092 l 1,0,-1
881 1239 m 1,30,-1
 678 1239 l 1,31,-1
 727 1493 l 1,32,-1
 930 1493 l 1,33,-1
 881 1239 l 1,30,-1
EndSplineSet
EndChar

StartChar: Adieresis
Encoding: 196 196 116
Width: 1233
Flags: W
LayerCount: 2
Back
Fore
SplineSet
897 1870 m 5
 1100 1870 l 5
 1061 1667 l 5
 858 1667 l 5
 897 1870 l 5
506 1870 m 5
 710 1870 l 5
 669 1667 l 5
 467 1667 l 5
 506 1870 l 5
EndSplineSet
Refer: 33 65 N 1 0 0 1 0 0 3
EndChar

StartChar: Ecircumflex
Encoding: 202 202 117
Width: 1233
Flags: W
LayerCount: 2
Back
Fore
SplineSet
749 1901 m 5
 962 1901 l 5
 1120 1635 l 5
 987 1635 l 5
 848 1813 l 5
 639 1635 l 5
 487 1635 l 5
 749 1901 l 5
EndSplineSet
Refer: 37 69 N 1 0 0 1 0 0 3
EndChar

StartChar: Edieresis
Encoding: 203 203 118
Width: 1233
Flags: W
LayerCount: 2
Back
Fore
SplineSet
942 1870 m 5
 1145 1870 l 5
 1106 1667 l 5
 903 1667 l 5
 942 1870 l 5
551 1870 m 5
 755 1870 l 5
 714 1667 l 5
 512 1667 l 5
 551 1870 l 5
EndSplineSet
Refer: 37 69 N 1 0 0 1 0 0 3
EndChar

StartChar: Icircumflex
Encoding: 206 206 119
Width: 1233
Flags: W
LayerCount: 2
Back
Fore
SplineSet
710 1901 m 5
 923 1901 l 5
 1081 1635 l 5
 948 1635 l 5
 809 1813 l 5
 600 1635 l 5
 448 1635 l 5
 710 1901 l 5
EndSplineSet
Refer: 41 73 N 1 0 0 1 0 0 3
EndChar

StartChar: Idieresis
Encoding: 207 207 120
Width: 1233
Flags: W
LayerCount: 2
Back
Fore
SplineSet
903 1870 m 5
 1106 1870 l 5
 1067 1667 l 5
 864 1667 l 5
 903 1870 l 5
512 1870 m 5
 716 1870 l 5
 675 1667 l 5
 473 1667 l 5
 512 1870 l 5
EndSplineSet
Refer: 41 73 N 1 0 0 1 0 0 3
EndChar

StartChar: Ocircumflex
Encoding: 212 212 121
Width: 1233
Flags: W
LayerCount: 2
Back
Fore
SplineSet
696 1901 m 5
 909 1901 l 5
 1067 1635 l 5
 934 1635 l 5
 795 1813 l 5
 586 1635 l 5
 434 1635 l 5
 696 1901 l 5
EndSplineSet
Refer: 47 79 N 1 0 0 1 0 0 3
EndChar

StartChar: Odieresis
Encoding: 214 214 122
Width: 1233
Flags: W
LayerCount: 2
Back
Fore
SplineSet
889 1870 m 5
 1092 1870 l 5
 1053 1667 l 5
 850 1667 l 5
 889 1870 l 5
498 1870 m 5
 702 1870 l 5
 661 1667 l 5
 459 1667 l 5
 498 1870 l 5
EndSplineSet
Refer: 47 79 N 1 0 0 1 0 0 3
EndChar

StartChar: multiply
Encoding: 215 215 123
Width: 1233
Flags: W
LayerCount: 2
Back
Fore
SplineSet
150 293 m 1,0,-1
 500 641 l 1,1,-1
 150 991 l 1,2,-1
 266 1108 l 1,3,-1
 616 758 l 1,4,-1
 967 1108 l 1,5,-1
 1083 991 l 1,6,-1
 733 641 l 1,7,-1
 1081 293 l 1,8,-1
 965 174 l 1,9,-1
 616 524 l 1,10,-1
 268 174 l 1,11,-1
 150 293 l 1,0,-1
EndSplineSet
EndChar

StartChar: Ucircumflex
Encoding: 219 219 124
Width: 1233
Flags: W
LayerCount: 2
Back
Fore
SplineSet
708 1901 m 5
 921 1901 l 5
 1079 1635 l 5
 946 1635 l 5
 807 1813 l 5
 598 1635 l 5
 446 1635 l 5
 708 1901 l 5
EndSplineSet
Refer: 53 85 N 1 0 0 1 0 0 3
EndChar

StartChar: Udieresis
Encoding: 220 220 125
Width: 1233
Flags: W
LayerCount: 2
Back
Fore
SplineSet
901 1870 m 5
 1104 1870 l 5
 1065 1667 l 5
 862 1667 l 5
 901 1870 l 5
510 1870 m 5
 714 1870 l 5
 673 1667 l 5
 471 1667 l 5
 510 1870 l 5
EndSplineSet
Refer: 53 85 N 1 0 0 1 0 0 3
EndChar

StartChar: acircumflex
Encoding: 226 226 126
Width: 1233
Flags: W
LayerCount: 2
Back
Fore
SplineSet
721 1638 m 5
 868 1638 l 5
 1032 1262 l 5
 899 1262 l 5
 782 1503 l 5
 557 1262 l 5
 401 1262 l 5
 721 1638 l 5
EndSplineSet
Refer: 65 97 N 1 0 0 1 0 0 3
EndChar

StartChar: ecircumflex
Encoding: 234 234 128
Width: 1233
Flags: W
LayerCount: 2
Back
Fore
SplineSet
717 1638 m 5
 864 1638 l 5
 1028 1262 l 5
 895 1262 l 5
 778 1503 l 5
 553 1262 l 5
 397 1262 l 5
 717 1638 l 5
EndSplineSet
Refer: 69 101 N 1 0 0 1 0 0 3
EndChar

StartChar: icircumflex
Encoding: 238 238 130
Width: 1233
Flags: W
LayerCount: 2
Back
Fore
SplineSet
689 1638 m 5,0,-1
 836 1638 l 5,1,-1
 1000 1262 l 5,2,-1
 867 1262 l 5,3,-1
 750 1503 l 5,4,-1
 525 1262 l 5,5,-1
 369 1262 l 5,6,-1
 689 1638 l 5,0,-1
358 1120 m 5,7,-1
 829 1120 l 5,8,-1
 639 143 l 5,9,-1
 1004 143 l 5,10,-1
 975 0 l 5,11,-1
 61 0 l 5,12,-1
 90 143 l 5,13,-1
 455 143 l 5,14,-1
 616 977 l 5,15,-1
 330 977 l 5,16,-1
 358 1120 l 5,7,-1
EndSplineSet
EndChar

StartChar: idieresis
Encoding: 239 239 131
Width: 1233
Flags: W
LayerCount: 2
Back
Fore
SplineSet
358 1120 m 5
 829 1120 l 5
 639 143 l 5
 1004 143 l 5
 975 0 l 5
 61 0 l 5
 90 143 l 5
 455 143 l 5
 616 977 l 5
 330 977 l 5
 358 1120 l 5
EndSplineSet
Refer: 102 168 N 1 0 0 1 -28 0 2
EndChar

StartChar: ocircumflex
Encoding: 244 244 132
Width: 1233
Flags: W
LayerCount: 2
Back
Fore
SplineSet
717 1638 m 5
 864 1638 l 5
 1028 1262 l 5
 895 1262 l 5
 778 1503 l 5
 553 1262 l 5
 397 1262 l 5
 717 1638 l 5
EndSplineSet
Refer: 79 111 N 1 0 0 1 0 0 3
EndChar

StartChar: divide
Encoding: 247 247 134
Width: 1233
Flags: W
LayerCount: 2
Back
Fore
SplineSet
494 395 m 1,0,-1
 739 395 l 1,1,-1
 739 150 l 1,2,-1
 494 150 l 1,3,-1
 494 395 l 1,0,-1
494 1135 m 1,4,-1
 739 1135 l 1,5,-1
 739 889 l 1,6,-1
 494 889 l 1,7,-1
 494 1135 l 1,4,-1
88 727 m 1,8,-1
 1145 727 l 1,9,-1
 1145 557 l 1,10,-1
 88 557 l 1,11,-1
 88 727 l 1,8,-1
EndSplineSet
EndChar

StartChar: oslash
Encoding: 248 248 135
Width: 1233
Flags: W
LayerCount: 2
Back
Fore
SplineSet
911 825 m 1,0,-1
 377 186 l 1,1,2
 407 156 407 156 446 141.5 c 128,-1,3
 485 127 485 127 537 127 c 0,4,5
 700 127 700 127 810 298.5 c 128,-1,6
 920 470 920 470 920 733 c 0,7,8
 920 759 920 759 918 782 c 128,-1,9
 916 805 916 805 911 825 c 1,0,-1
176 133 m 1,10,11
 147 181 147 181 133 245 c 128,-1,12
 119 309 119 309 119 389 c 0,13,14
 119 531 119 531 159 666 c 128,-1,15
 199 801 199 801 274 911 c 0,16,17
 355 1030 355 1030 466.5 1088.5 c 128,-1,18
 578 1147 578 1147 725 1147 c 0,19,20
 803 1147 803 1147 863 1129 c 128,-1,21
 923 1111 923 1111 969 1075 c 1,22,-1
 1081 1212 l 1,23,-1
 1174 1135 l 1,24,-1
 1051 989 l 1,25,26
 1083 939 1083 939 1098.5 875 c 128,-1,27
 1114 811 1114 811 1114 727 c 0,28,29
 1114 589 1114 589 1073 452.5 c 128,-1,30
 1032 316 1032 316 958 207 c 0,31,32
 879 89 879 89 766 30 c 128,-1,33
 653 -29 653 -29 506 -29 c 0,34,35
 432 -29 432 -29 370.5 -10.5 c 128,-1,36
 309 8 309 8 258 45 c 1,37,-1
 139 -96 l 1,38,-1
 47 -20 l 1,39,-1
 176 133 l 1,10,11
852 938 m 1,40,41
 821 966 821 966 784.5 978.5 c 128,-1,42
 748 991 748 991 696 991 c 0,43,44
 532 991 532 991 422.5 819 c 128,-1,45
 313 647 313 647 313 379 c 0,46,47
 313 359 313 359 314.5 339.5 c 128,-1,48
 316 320 316 320 319 302 c 1,49,-1
 852 938 l 1,40,41
EndSplineSet
EndChar

StartChar: ucircumflex
Encoding: 251 251 136
Width: 1233
Flags: W
LayerCount: 2
Back
Fore
SplineSet
714 1638 m 5
 861 1638 l 5
 1025 1262 l 5
 892 1262 l 5
 775 1503 l 5
 550 1262 l 5
 394 1262 l 5
 714 1638 l 5
EndSplineSet
Refer: 85 117 N 1 0 0 1 0 0 3
EndChar

StartChar: Ccircumflex
Encoding: 264 264 139
Width: 1233
Flags: W
LayerCount: 2
Back
Fore
SplineSet
868 1901 m 5
 1081 1901 l 5
 1239 1635 l 5
 1106 1635 l 5
 967 1813 l 5
 758 1635 l 5
 606 1635 l 5
 868 1901 l 5
EndSplineSet
Refer: 35 67 N 1 0 0 1 0 0 2
EndChar

StartChar: ccircumflex
Encoding: 265 265 140
Width: 1233
Flags: W
LayerCount: 2
Back
Fore
SplineSet
807 1638 m 5
 954 1638 l 5
 1118 1262 l 5
 985 1262 l 5
 868 1503 l 5
 643 1262 l 5
 487 1262 l 5
 807 1638 l 5
EndSplineSet
Refer: 67 99 N 1 0 0 1 0 0 2
EndChar

StartChar: Cdotaccent
Encoding: 266 266 141
Width: 1233
Flags: W
LayerCount: 2
Back
Fore
SplineSet
808 1872 m 5
 1013 1872 l 5
 973 1667 l 5
 768 1667 l 5
 808 1872 l 5
EndSplineSet
Refer: 35 67 N 1 0 0 1 0 0 3
EndChar

StartChar: cdotaccent
Encoding: 267 267 142
Width: 1233
Flags: W
LayerCount: 2
Back
Fore
SplineSet
747 1552 m 5
 952 1552 l 5
 911 1348 l 5
 706 1348 l 5
 747 1552 l 5
EndSplineSet
Refer: 67 99 N 1 0 0 1 0 0 3
EndChar

StartChar: Edotaccent
Encoding: 278 278 143
Width: 1233
Flags: W
LayerCount: 2
Back
Fore
SplineSet
751 1872 m 5
 956 1872 l 5
 916 1667 l 5
 711 1667 l 5
 751 1872 l 5
EndSplineSet
Refer: 37 69 N 1 0 0 1 0 0 3
EndChar

StartChar: edotaccent
Encoding: 279 279 144
Width: 1233
Flags: W
LayerCount: 2
Back
Fore
SplineSet
686 1552 m 5
 891 1552 l 5
 850 1348 l 5
 645 1348 l 5
 686 1552 l 5
EndSplineSet
Refer: 69 101 N 1 0 0 1 0 0 3
EndChar

StartChar: Gcircumflex
Encoding: 284 284 145
Width: 1233
Flags: W
LayerCount: 2
Back
Fore
SplineSet
710 1901 m 5
 923 1901 l 5
 1081 1635 l 5
 948 1635 l 5
 809 1813 l 5
 600 1635 l 5
 448 1635 l 5
 710 1901 l 5
EndSplineSet
Refer: 39 71 N 1 0 0 1 0 0 2
EndChar

StartChar: gcircumflex
Encoding: 285 285 146
Width: 1233
Flags: W
LayerCount: 2
Back
Fore
SplineSet
717 1638 m 5
 864 1638 l 5
 1028 1262 l 5
 895 1262 l 5
 778 1503 l 5
 553 1262 l 5
 397 1262 l 5
 717 1638 l 5
EndSplineSet
Refer: 71 103 N 1 0 0 1 0 0 2
EndChar

StartChar: Gdotaccent
Encoding: 288 288 147
Width: 1233
Flags: W
LayerCount: 2
Back
Fore
SplineSet
783 1872 m 5
 988 1872 l 5
 948 1667 l 5
 743 1667 l 5
 783 1872 l 5
EndSplineSet
Refer: 39 71 N 1 0 0 1 0 0 3
EndChar

StartChar: gdotaccent
Encoding: 289 289 148
Width: 1233
Flags: W
LayerCount: 2
Back
Fore
SplineSet
672 1552 m 5
 877 1552 l 5
 836 1348 l 5
 631 1348 l 5
 672 1552 l 5
EndSplineSet
Refer: 71 103 N 1 0 0 1 0 0 3
EndChar

StartChar: Hcircumflex
Encoding: 292 292 149
Width: 1233
Flags: W
LayerCount: 2
Back
Fore
SplineSet
728 1901 m 5
 941 1901 l 5
 1099 1635 l 5
 966 1635 l 5
 827 1813 l 5
 618 1635 l 5
 466 1635 l 5
 728 1901 l 5
EndSplineSet
Refer: 40 72 N 1 0 0 1 0 0 2
EndChar

StartChar: hcircumflex
Encoding: 293 293 150
Width: 1233
Flags: W
LayerCount: 2
Back
Fore
SplineSet
442 1901 m 5
 655 1901 l 5
 813 1635 l 5
 680 1635 l 5
 541 1813 l 5
 332 1635 l 5
 180 1635 l 5
 442 1901 l 5
EndSplineSet
Refer: 72 104 N 1 0 0 1 0 0 2
EndChar

StartChar: Idotaccent
Encoding: 304 304 151
Width: 1233
Flags: W
LayerCount: 2
Back
Fore
SplineSet
733 1872 m 5
 938 1872 l 5
 898 1667 l 5
 693 1667 l 5
 733 1872 l 5
EndSplineSet
Refer: 41 73 N 1 0 0 1 0 0 3
EndChar

StartChar: Jcircumflex
Encoding: 308 308 152
Width: 1233
Flags: W
LayerCount: 2
Back
Fore
SplineSet
788 1901 m 5
 1001 1901 l 5
 1159 1635 l 5
 1026 1635 l 5
 887 1813 l 5
 678 1635 l 5
 526 1635 l 5
 788 1901 l 5
EndSplineSet
Refer: 42 74 N 1 0 0 1 0 0 2
EndChar

StartChar: jcircumflex
Encoding: 309 309 153
Width: 1233
Flags: W
LayerCount: 2
Back
Fore
SplineSet
498 -20 m 6,0,-1
 690 977 l 5,1,-1
 373 977 l 5,2,-1
 401 1120 l 5,3,-1
 903 1120 l 5,4,-1
 682 -20 l 6,5,6
 641 -233 641 -233 540 -329.5 c 132,-1,7
 439 -426 439 -426 258 -426 c 6,8,-1
 4 -426 l 5,9,-1
 35 -270 l 5,10,-1
 268 -270 l 6,11,12
 363 -270 363 -270 418 -210.5 c 132,-1,13
 473 -151 473 -151 498 -20 c 6,0,-1
689 1638 m 5,14,-1
 836 1638 l 5,15,-1
 1000 1262 l 5,16,-1
 867 1262 l 5,17,-1
 750 1503 l 5,18,-1
 525 1262 l 5,19,-1
 369 1262 l 5,20,-1
 689 1638 l 5,14,-1
EndSplineSet
EndChar

StartChar: Scircumflex
Encoding: 348 348 154
Width: 1233
Flags: W
LayerCount: 2
Back
Fore
SplineSet
764 1901 m 5
 977 1901 l 5
 1135 1635 l 5
 1002 1635 l 5
 863 1813 l 5
 654 1635 l 5
 502 1635 l 5
 764 1901 l 5
EndSplineSet
Refer: 51 83 N 1 0 0 1 0 0 2
EndChar

StartChar: scircumflex
Encoding: 349 349 155
Width: 1233
Flags: W
LayerCount: 2
Back
Fore
SplineSet
786 1666 m 5
 933 1666 l 5
 1097 1290 l 5
 964 1290 l 5
 847 1531 l 5
 622 1290 l 5
 466 1290 l 5
 786 1666 l 5
EndSplineSet
Refer: 83 115 N 1 0 0 1 0 0 2
EndChar

StartChar: Wcircumflex
Encoding: 372 372 156
Width: 1233
Flags: W
LayerCount: 2
Back
Fore
SplineSet
727 1908 m 5
 940 1908 l 5
 1098 1642 l 5
 965 1642 l 5
 826 1820 l 5
 617 1642 l 5
 465 1642 l 5
 727 1908 l 5
EndSplineSet
Refer: 55 87 N 1 0 0 1 0 0 3
EndChar

StartChar: wcircumflex
Encoding: 373 373 157
Width: 1233
Flags: W
LayerCount: 2
Back
Fore
SplineSet
737 1645 m 5
 884 1645 l 5
 1048 1269 l 5
 915 1269 l 5
 798 1510 l 5
 573 1269 l 5
 417 1269 l 5
 737 1645 l 5
EndSplineSet
Refer: 87 119 N 1 0 0 1 0 0 2
EndChar

StartChar: Ycircumflex
Encoding: 374 374 158
Width: 1233
Flags: W
LayerCount: 2
Back
Fore
SplineSet
735 1908 m 5
 948 1908 l 5
 1106 1642 l 5
 973 1642 l 5
 834 1820 l 5
 625 1642 l 5
 473 1642 l 5
 735 1908 l 5
EndSplineSet
Refer: 57 89 N 1 0 0 1 0 0 3
EndChar

StartChar: ycircumflex
Encoding: 375 375 159
Width: 1233
Flags: W
LayerCount: 2
Back
Fore
SplineSet
737 1645 m 5
 884 1645 l 5
 1048 1269 l 5
 915 1269 l 5
 798 1510 l 5
 573 1269 l 5
 417 1269 l 5
 737 1645 l 5
EndSplineSet
Refer: 89 121 N 1 0 0 1 0 0 2
EndChar

StartChar: Ydieresis
Encoding: 376 376 160
Width: 1233
Flags: W
LayerCount: 2
Back
Fore
SplineSet
903 1870 m 5
 1106 1870 l 5
 1067 1667 l 5
 864 1667 l 5
 903 1870 l 5
512 1870 m 5
 716 1870 l 5
 675 1667 l 5
 473 1667 l 5
 512 1870 l 5
EndSplineSet
Refer: 57 89 N 1 0 0 1 0 0 3
EndChar

StartChar: Zdotaccent
Encoding: 379 379 161
Width: 1233
Flags: W
LayerCount: 2
Back
Fore
SplineSet
783 1872 m 5
 988 1872 l 5
 948 1667 l 5
 743 1667 l 5
 783 1872 l 5
EndSplineSet
Refer: 58 90 N 1 0 0 1 0 0 3
EndChar

StartChar: zdotaccent
Encoding: 380 380 162
Width: 1233
Flags: W
LayerCount: 2
Back
Fore
SplineSet
672 1552 m 5
 877 1552 l 5
 836 1348 l 5
 631 1348 l 5
 672 1552 l 5
EndSplineSet
Refer: 90 122 N 1 0 0 1 0 0 3
EndChar

StartChar: uni0186
Encoding: 390 390 163
Width: 1233
Flags: W
LayerCount: 2
Back
Fore
SplineSet
4 53 m 1,0,1
 4 53 4 53 45 260 c 1,2,3
 106 199 106 199 184 167 c 128,-1,4
 262 135 262 135 350 135 c 0,5,6
 547 135 547 135 674.5 287 c 128,-1,7
 802 439 802 439 862 745 c 0,8,9
 922 1052 922 1052 853.5 1204 c 128,-1,10
 785 1356 785 1356 588 1356 c 0,11,12
 502 1356 502 1356 410.5 1324 c 128,-1,13
 319 1292 319 1292 233 1231 c 1,14,-1
 274 1438 l 1,15,16
 359 1479 359 1479 444 1499.5 c 128,-1,17
 529 1520 529 1520 620 1520 c 0,18,19
 905 1520 905 1520 1024.5 1315.5 c 128,-1,20
 1144 1111 1144 1111 1073 745 c 0,21,22
 1001 377 1001 377 803 174 c 128,-1,23
 605 -29 605 -29 318 -29 c 0,24,25
 227 -29 227 -29 150 -8.5 c 128,-1,26
 73 12 73 12 4 53 c 1,0,1
EndSplineSet
EndChar

StartChar: uni0191
Encoding: 401 401 164
Width: 1233
Flags: W
LayerCount: 2
Back
Fore
SplineSet
567 1493 m 1,0,-1
 1357 1493 l 1,1,-1
 1323 1323 l 1,2,-1
 736 1323 l 1,3,-1
 651 883 l 1,4,-1
 1175 883 l 1,5,-1
 1142 713 l 1,6,-1
 618 713 l 1,7,-1
 475 -20 l 2,8,9
 438 -215 438 -215 328 -320 c 0,10,11
 217 -426 217 -426 52 -426 c 2,12,-1
 -124 -426 l 1,13,-1
 -93 -270 l 1,14,-1
 45 -270 l 2,15,16
 135 -270 135 -270 192 -208 c 0,17,18
 248 -146 248 -146 272 -20 c 2,19,-1
 567 1493 l 1,0,-1
EndSplineSet
EndChar

StartChar: florin
Encoding: 402 402 165
Width: 1233
Flags: W
LayerCount: 2
Back
Fore
SplineSet
1256 1556 m 1,0,-1
 1226 1403 l 1,1,-1
 1017 1403 l 1,2,-1
 1015 1403 l 2,3,4
 917 1403 917 1403 871 1362 c 0,5,6
 825 1322 825 1322 805 1219 c 2,7,-1
 786 1120 l 1,8,-1
 1171 1120 l 1,9,-1
 1143 977 l 1,10,-1
 758 977 l 1,11,-1
 564 -20 l 2,12,13
 523 -234 523 -234 423 -330 c 0,14,15
 322 -426 322 -426 141 -426 c 2,16,-1
 71 -426 l 1,17,-1
 102 -270 l 1,18,-1
 151 -270 l 2,19,20
 256 -270 256 -270 303 -222 c 0,21,22
 351 -173 351 -173 380 -20 c 2,23,-1
 572 977 l 1,24,-1
 275 977 l 1,25,-1
 303 1120 l 1,26,-1
 599 1120 l 1,27,-1
 614 1198 l 2,28,29
 649 1378 649 1378 754 1470 c 0,30,31
 798 1509 798 1509 863 1530 c 0,32,33
 937 1556 937 1556 1035 1556 c 2,34,-1
 1043 1556 l 1,35,-1
 1047 1556 l 1,36,-1
 1256 1556 l 1,0,-1
EndSplineSet
EndChar

StartChar: uni019B
Encoding: 411 411 166
Width: 1233
Flags: W
LayerCount: 2
Back
Fore
SplineSet
670 1213 m 1,0,-1
 1065 1455 l 1,1,-1
 1123 1345 l 1,2,-1
 703 1087 l 1,3,-1
 988 0 l 1,4,-1
 797 0 l 1,5,-1
 612 704 l 1,6,-1
 146 0 l 1,7,-1
 -45 0 l 1,8,-1
 557 913 l 1,9,-1
 538 987 l 1,10,-1
 127 736 l 1,11,-1
 69 847 l 1,12,-1
 505 1113 l 1,13,-1
 405 1493 l 1,14,-1
 596 1493 l 1,15,-1
 670 1213 l 1,0,-1
EndSplineSet
EndChar

StartChar: Ohorn
Encoding: 416 416 167
Width: 1233
Flags: W
LayerCount: 2
Back
Fore
SplineSet
871 1292 m 5
 894 1411 l 5
 946 1366 946 1366 986 1344.5 c 4
 1026 1323 1026 1323 1057 1323 c 4
 1103 1323 1103 1323 1131 1350.5 c 4
 1159 1378 1159 1378 1170 1432 c 4
 1176 1464 1176 1464 1174.5 1495 c 4
 1173 1526 1173 1526 1164 1557 c 5
 1297 1557 l 5
 1300 1519 1300 1519 1298.5 1485 c 4
 1297 1451 1297 1451 1291 1421 c 4
 1267 1299 1267 1299 1212.5 1241.5 c 4
 1158 1184 1158 1184 1065 1184 c 4
 1017 1184 1017 1184 969.5 1210.5 c 4
 922 1237 922 1237 871 1292 c 5
EndSplineSet
Refer: 47 79 N 1 0 0 1 -122 0 3
EndChar

StartChar: ohorn
Encoding: 417 417 168
Width: 1233
Flags: W
LayerCount: 2
Back
Fore
SplineSet
792 872 m 5
 815 991 l 5
 867 946 867 946 907 924.5 c 4
 947 903 947 903 978 903 c 4
 1024 903 1024 903 1052 930.5 c 4
 1080 958 1080 958 1091 1012 c 4
 1097 1044 1097 1044 1095.5 1075 c 4
 1094 1106 1094 1106 1085 1137 c 5
 1218 1137 l 5
 1221 1099 1221 1099 1219.5 1065 c 4
 1218 1031 1218 1031 1212 1001 c 4
 1188 879 1188 879 1133.5 821.5 c 4
 1079 764 1079 764 986 764 c 4
 938 764 938 764 890.5 790.5 c 4
 843 817 843 817 792 872 c 5
EndSplineSet
Refer: 79 111 N 1 0 0 1 -105 0 3
EndChar

StartChar: uni01A4
Encoding: 420 420 169
Width: 1233
Flags: W
LayerCount: 2
Back
Fore
SplineSet
1236 1047 m 0,0,1
 1168 699 1168 699 841 622 c 0,2,3
 750 600 750 600 641 600 c 2,4,-1
 547 600 l 1,5,-1
 431 0 l 1,6,-1
 229 0 l 1,7,-1
 487 1327 l 1,8,9
 433 1327 433 1327 364 1280 c 0,10,11
 308 1242 308 1242 286 1128 c 2,12,-1
 276 1079 l 1,13,-1
 120 1079 l 1,14,-1
 134 1149 l 2,15,16
 169 1330 169 1330 281 1411.5 c 128,-1,17
 393 1493 393 1493 519 1493 c 2,18,-1
 814 1493 l 2,19,20
 1220 1493 1220 1493 1246 1201 c 0,21,22
 1252 1132 1252 1132 1236 1047 c 0,0,1
673 766 m 2,23,24
 884 766 884 766 978 923 c 0,25,26
 1011 979 1011 979 1025 1047 c 0,27,28
 1051 1180 1051 1180 987 1253.5 c 128,-1,29
 923 1327 923 1327 782 1327 c 2,30,-1
 689 1327 l 1,31,-1
 580 766 l 1,32,-1
 673 766 l 2,23,24
EndSplineSet
EndChar

StartChar: uni01A5
Encoding: 421 421 170
Width: 1233
Flags: W
LayerCount: 2
Back
Fore
SplineSet
386 559 m 0,0,1
 313 184 313 184 512 134 c 0,2,3
 540 127 540 127 574 127 c 0,4,5
 707 127 707 127 795.5 236 c 128,-1,6
 884 345 884 345 926 559 c 0,7,8
 1007 977 1007 977 759 991 c 0,9,10
 750 991 750 991 742 991 c 0,11,12
 527 991 527 991 429 718 c 0,13,14
 403 648 403 648 386 559 c 0,0,1
467 977 m 1,15,16
 590 1141 590 1141 785 1147 c 0,17,18
 792 1147 792 1147 799 1147 c 0,19,20
 1002 1147 1002 1147 1087 990 c 128,-1,21
 1172 833 1172 833 1118 555 c 0,22,23
 1065 282 1065 282 919 126.5 c 128,-1,24
 773 -29 773 -29 571 -29 c 0,25,26
 469 -29 469 -29 401 14.5 c 128,-1,27
 333 58 333 58 305 141 c 1,28,-1
 194 -426 l 1,29,-1
 9 -426 l 1,30,-1
 292 1026 l 2,31,32
 350 1328 350 1328 569 1407 c 0,33,34
 637 1432 637 1432 715 1432 c 2,35,-1
 920 1432 l 1,36,-1
 889 1276 l 1,37,-1
 704 1276 l 2,38,39
 536 1276 536 1276 483 1055 c 0,40,41
 480 1041 480 1041 477 1026 c 2,42,-1
 467 977 l 1,15,16
EndSplineSet
EndChar

StartChar: uni01A7
Encoding: 423 423 171
Width: 1233
Flags: W
LayerCount: 2
Back
Fore
SplineSet
360 1442 m 1,0,1
 473 1481 473 1481 572 1500.5 c 128,-1,2
 671 1520 671 1520 757 1520 c 0,3,4
 980 1520 980 1520 1091 1399.5 c 128,-1,5
 1202 1279 1202 1279 1163 1079 c 0,6,7
 1132 919 1132 919 1019.5 824 c 128,-1,8
 907 729 907 729 690 682 c 2,9,-1
 577 657 l 2,10,11
 426 625 426 625 356 566 c 128,-1,12
 286 507 286 507 264 395 c 0,13,14
 240 272 240 272 311.5 203.5 c 128,-1,15
 383 135 383 135 536 135 c 0,16,17
 640 135 640 135 749.5 169 c 128,-1,18
 859 203 859 203 988 276 c 1,19,-1
 946 61 l 1,20,21
 830 16 830 16 719.5 -6.5 c 128,-1,22
 609 -29 609 -29 504 -29 c 0,23,24
 252 -29 252 -29 142 83 c 128,-1,25
 32 195 32 195 73 408 c 0,26,27
 109 589 109 589 225 694 c 128,-1,28
 341 799 341 799 561 848 c 2,29,-1
 672 872 l 2,30,31
 827 907 827 907 892 959 c 128,-1,32
 957 1011 957 1011 976 1110 c 0,33,34
 998 1223 998 1223 928 1289.5 c 128,-1,35
 858 1356 858 1356 715 1356 c 0,36,37
 621 1356 621 1356 522.5 1326 c 128,-1,38
 424 1296 424 1296 321 1237 c 1,39,-1
 360 1442 l 1,0,1
EndSplineSet
EndChar

StartChar: uni01A8
Encoding: 424 424 172
Width: 1233
Flags: W
LayerCount: 2
Back
Fore
SplineSet
371 1081 m 1,0,1
 458 1114 458 1114 544 1130.5 c 128,-1,2
 630 1147 630 1147 720 1147 c 0,3,4
 922 1147 922 1147 1014 1059.5 c 128,-1,5
 1106 972 1106 972 1075 811 c 0,6,7
 1050 684 1050 684 963 610.5 c 128,-1,8
 876 537 876 537 711 506 c 2,9,-1
 639 492 l 1,10,-1
 631 490 l 1,11,12
 376 441 376 441 351 313 c 0,13,14
 334 224 334 224 391.5 174.5 c 128,-1,15
 449 125 449 125 571 125 c 0,16,17
 655 125 655 125 754 151.5 c 128,-1,18
 853 178 853 178 966 231 c 1,19,-1
 929 41 l 1,20,21
 817 6 817 6 722.5 -11.5 c 128,-1,22
 628 -29 628 -29 545 -29 c 0,23,24
 335 -29 335 -29 235 64.5 c 128,-1,25
 135 158 135 158 167 324 c 0,26,27
 192 449 192 449 277.5 527 c 128,-1,28
 363 605 363 605 505 631 c 2,29,-1
 582 645 l 2,30,31
 772 680 772 680 825 717 c 128,-1,32
 878 754 878 754 892 829 c 0,33,34
 909 912 909 912 855 952.5 c 128,-1,35
 801 993 801 993 676 993 c 0,36,37
 593 993 593 993 508.5 970 c 128,-1,38
 424 947 424 947 336 901 c 1,39,-1
 371 1081 l 1,0,1
EndSplineSet
EndChar

StartChar: uni01C0
Encoding: 448 448 173
Width: 1233
Flags: W
LayerCount: 2
Back
Fore
SplineSet
661 1493 m 1,0,-1
 863 1493 l 1,1,-1
 572 0 l 1,2,-1
 370 0 l 1,3,-1
 661 1493 l 1,0,-1
EndSplineSet
EndChar

StartChar: uni01DD
Encoding: 477 477 175
Width: 1233
Flags: W
LayerCount: 2
Back
Fore
SplineSet
113 512 m 6,0,-1
 130 602 l 5,1,-1
 927 602 l 5,2,-1
 929 608 l 5,3,4
 964 791 964 791 888 891 c 132,-1,5
 812 991 812 991 638 991 c 4,6,7
 550 991 550 991 448.5 963 c 132,-1,8
 347 935 347 935 227 878 c 5,9,-1
 263 1061 l 5,10,11
 376 1104 376 1104 477.5 1125.5 c 132,-1,12
 579 1147 579 1147 670 1147 c 4,13,14
 931 1147 931 1147 1047.5 990.5 c 132,-1,15
 1164 834 1164 834 1111 559 c 4,16,17
 1059 291 1059 291 884 131 c 132,-1,18
 709 -29 709 -29 469 -29 c 4,19,20
 255 -29 255 -29 159.5 116 c 132,-1,21
 64 261 64 261 113 512 c 6,0,-1
286 458 m 5,22,23
 259 296 259 296 315 211.5 c 132,-1,24
 371 127 371 127 507 127 c 4,25,26
 640 127 640 127 743 215 c 132,-1,27
 846 303 846 303 893 459 c 5,28,-1
 286 458 l 5,22,23
EndSplineSet
EndChar

StartChar: uni0226
Encoding: 550 550 176
Width: 1233
Flags: W
LayerCount: 2
Back
Fore
SplineSet
733 1872 m 5
 938 1872 l 5
 898 1667 l 5
 693 1667 l 5
 733 1872 l 5
EndSplineSet
Refer: 33 65 N 1 0 0 1 0 0 3
EndChar

StartChar: uni0227
Encoding: 551 551 177
Width: 1233
Flags: W
LayerCount: 2
Back
Fore
SplineSet
672 1552 m 5
 877 1552 l 5
 836 1348 l 5
 631 1348 l 5
 672 1552 l 5
EndSplineSet
Refer: 65 97 N 1 0 0 1 0 0 3
EndChar

StartChar: uni022E
Encoding: 558 558 178
Width: 1233
Flags: W
LayerCount: 2
Back
Fore
SplineSet
733 1872 m 5
 938 1872 l 5
 898 1667 l 5
 693 1667 l 5
 733 1872 l 5
EndSplineSet
Refer: 47 79 N 1 0 0 1 0 0 3
EndChar

StartChar: uni022F
Encoding: 559 559 179
Width: 1233
Flags: W
LayerCount: 2
Back
Fore
SplineSet
672 1552 m 5
 877 1552 l 5
 836 1348 l 5
 631 1348 l 5
 672 1552 l 5
EndSplineSet
Refer: 79 111 N 1 0 0 1 0 0 3
EndChar

StartChar: uni0245
Encoding: 581 581 180
Width: 1233
Flags: W
LayerCount: 2
Back
Fore
SplineSet
723 1303 m 1,0,-1
 125 0 l 1,1,-1
 -90 0 l 1,2,-1
 629 1493 l 1,3,-1
 887 1493 l 1,4,-1
 1034 0 l 1,5,-1
 836 0 l 1,6,-1
 723 1303 l 1,0,-1
EndSplineSet
EndChar

StartChar: uni0254
Encoding: 596 596 181
Width: 1233
Flags: W
LayerCount: 2
Back
Fore
SplineSet
281 1061 m 1,0,1
 363 1104 363 1104 446 1125.5 c 128,-1,2
 529 1147 529 1147 611 1147 c 0,3,4
 871 1147 871 1147 987 991 c 128,-1,5
 1103 835 1103 835 1049.5 559 c 128,-1,6
 996 283 996 283 819 127 c 128,-1,7
 642 -29 642 -29 382 -29 c 0,8,9
 301 -29 301 -29 228 -8 c 128,-1,10
 155 13 155 13 86 57 c 1,11,-1
 123 250 l 1,12,13
 184 185 184 185 252 156 c 128,-1,14
 320 127 320 127 413 127 c 0,15,16
 586 127 586 127 700.5 239 c 128,-1,17
 815 351 815 351 856 559 c 0,18,19
 896 766 896 766 824 878.5 c 128,-1,20
 752 991 752 991 580 991 c 0,21,22
 484 991 484 991 402.5 961.5 c 128,-1,23
 321 932 321 932 244 870 c 1,24,-1
 281 1061 l 1,0,1
EndSplineSet
EndChar

StartChar: uni02B0
Encoding: 688 688 182
Width: 1233
Flags: W
LayerCount: 2
Back
Fore
SplineSet
901 1031 m 2,0,-1
 827 652 l 1,1,-1
 711 652 l 1,2,-1
 784 1027 l 2,3,4
 802 1116 802 1116 771.5 1160.5 c 128,-1,5
 741 1205 741 1205 663 1205 c 0,6,7
 569 1205 569 1205 504.5 1151.5 c 128,-1,8
 440 1098 440 1098 422 1006 c 2,9,-1
 353 652 l 1,10,-1
 236 652 l 1,11,-1
 406 1523 l 1,12,-1
 522 1523 l 1,13,-1
 456 1182 l 1,14,15
 508 1238 508 1238 570 1266 c 128,-1,16
 632 1294 632 1294 706 1294 c 0,17,18
 827 1294 827 1294 876.5 1227 c 128,-1,19
 926 1160 926 1160 901 1031 c 2,0,-1
EndSplineSet
EndChar

StartChar: uni02B2
Encoding: 690 690 183
Width: 1233
Flags: W
LayerCount: 2
Back
Fore
SplineSet
691 1279 m 1,0,-1
 807 1279 l 1,1,-1
 683 641 l 2,2,3
 660 521 660 521 598 467 c 128,-1,4
 536 413 536 413 422 413 c 2,5,-1
 378 413 l 1,6,-1
 395 501 l 1,7,-1
 426 501 l 2,8,9
 492 501 492 501 521.5 528 c 128,-1,10
 551 555 551 555 567 641 c 2,11,-1
 691 1279 l 1,0,-1
739 1523 m 1,12,-1
 855 1523 l 1,13,-1
 829 1393 l 1,14,-1
 714 1393 l 1,15,-1
 739 1523 l 1,12,-1
EndSplineSet
EndChar

StartChar: uni02B3
Encoding: 691 691 184
Width: 1233
Flags: W
LayerCount: 2
Back
Fore
SplineSet
864 1183 m 1,0,1
 846 1193 846 1193 824 1197.5 c 128,-1,2
 802 1202 802 1202 774 1202 c 0,3,4
 676 1202 676 1202 612.5 1145.5 c 128,-1,5
 549 1089 549 1089 528 982 c 2,6,-1
 464 652 l 1,7,-1
 347 652 l 1,8,-1
 469 1279 l 1,9,-1
 586 1279 l 1,10,-1
 567 1182 l 1,11,12
 615 1239 615 1239 679 1266.5 c 128,-1,13
 743 1294 743 1294 826 1294 c 0,14,15
 838 1294 838 1294 852.5 1293 c 128,-1,16
 867 1292 867 1292 884 1289 c 1,17,-1
 864 1183 l 1,0,1
EndSplineSet
EndChar

StartChar: uni02B7
Encoding: 695 695 185
Width: 1233
Flags: W
LayerCount: 2
Back
Fore
SplineSet
204 1279 m 1,0,-1
 320 1279 l 1,1,-1
 370 790 l 1,2,-1
 609 1279 l 1,3,-1
 746 1279 l 1,4,-1
 796 790 l 1,5,-1
 1035 1279 l 1,6,-1
 1151 1279 l 1,7,-1
 844 652 l 1,8,-1
 708 652 l 1,9,-1
 656 1166 l 1,10,-1
 403 652 l 1,11,-1
 267 652 l 1,12,-1
 204 1279 l 1,0,-1
EndSplineSet
EndChar

StartChar: uni02B8
Encoding: 696 696 186
Width: 1233
Flags: W
LayerCount: 2
Back
Fore
SplineSet
601 594 m 2,0,1
 530 482 530 482 476.5 447.5 c 128,-1,2
 423 413 423 413 345 413 c 2,3,-1
 253 413 l 1,4,-1
 269 500 l 1,5,-1
 337 500 l 2,6,7
 385 500 385 500 415.5 520 c 128,-1,8
 446 540 446 540 493 615 c 2,9,-1
 523 662 l 1,10,-1
 357 1279 l 1,11,-1
 480 1279 l 1,12,-1
 605 789 l 1,13,-1
 921 1279 l 1,14,-1
 1044 1279 l 1,15,-1
 601 594 l 2,0,1
EndSplineSet
EndChar

StartChar: uni0394
Encoding: 916 916 190
Width: 1233
Flags: W
LayerCount: 2
Back
Fore
SplineSet
826 170 m 1,0,-1
 727 1315 l 1,1,-1
 182 170 l 1,2,-1
 826 170 l 1,0,-1
1051 0 m 1,3,-1
 -108 0 l 1,4,-1
 639 1493 l 1,5,-1
 884 1493 l 1,6,-1
 1051 0 l 1,3,-1
EndSplineSet
EndChar

StartChar: Theta
Encoding: 920 920 194
Width: 1233
Flags: W
LayerCount: 2
Back
Fore
SplineSet
809 711 m 1,0,-1
 411 711 l 1,1,-1
 444 881 l 1,2,-1
 842 881 l 1,3,-1
 809 711 l 1,0,-1
905 745 m 128,-1,5
 969 1074 969 1074 929 1215 c 128,-1,6
 889 1356 889 1356 735 1356 c 0,7,8
 582 1356 582 1356 487 1215 c 128,-1,9
 392 1074 392 1074 328 745 c 0,10,11
 264 417 264 417 304 276 c 128,-1,12
 344 135 344 135 497 135 c 0,13,14
 651 135 651 135 746 275.5 c 128,-1,4
 841 416 841 416 905 745 c 128,-1,5
1116 745 m 0,15,16
 1040 355 1040 355 879 163 c 128,-1,17
 718 -29 718 -29 465 -29 c 128,-1,18
 212 -29 212 -29 126.5 162 c 128,-1,19
 41 353 41 353 117 745 c 0,20,21
 193 1136 193 1136 354 1328 c 128,-1,22
 515 1520 515 1520 767 1520 c 0,23,24
 1020 1520 1020 1520 1106 1328 c 128,-1,25
 1192 1136 1192 1136 1116 745 c 0,15,16
EndSplineSet
EndChar

StartChar: Lambda
Encoding: 923 923 197
Width: 1233
Flags: W
LayerCount: 2
Back
Fore
SplineSet
101 0 m 1,0,-1
 -108 0 l 1,1,-1
 639 1493 l 1,2,-1
 884 1493 l 1,3,-1
 1051 0 l 1,4,-1
 842 0 l 1,5,-1
 727 1315 l 1,6,-1
 101 0 l 1,0,-1
EndSplineSet
EndChar

StartChar: Xi
Encoding: 926 926 200
Width: 1233
Flags: W
LayerCount: 2
Back
Fore
SplineSet
1241 1493 m 1,0,-1
 1208 1323 l 1,1,-1
 249 1323 l 1,2,-1
 282 1493 l 1,3,-1
 1241 1493 l 1,0,-1
886 711 m 1,4,-1
 333 711 l 1,5,-1
 366 881 l 1,6,-1
 919 881 l 1,7,-1
 886 711 l 1,4,-1
984 170 m 1,8,-1
 951 0 l 1,9,-1
 -8 0 l 1,10,-1
 25 170 l 1,11,-1
 984 170 l 1,8,-1
EndSplineSet
EndChar

StartChar: Sigma
Encoding: 931 931 204
Width: 1233
Flags: W
LayerCount: 2
Back
Fore
SplineSet
786 747 m 1,0,-1
 219 170 l 1,1,-1
 1021 170 l 1,2,-1
 988 0 l 1,3,-1
 -25 0 l 1,4,-1
 8 170 l 1,5,-1
 574 747 l 1,6,-1
 232 1323 l 1,7,-1
 265 1493 l 1,8,-1
 1278 1493 l 1,9,-1
 1245 1323 l 1,10,-1
 443 1323 l 1,11,-1
 786 747 l 1,0,-1
EndSplineSet
EndChar

StartChar: Phi
Encoding: 934 934 207
Width: 1233
Flags: W
LayerCount: 2
Back
Fore
SplineSet
829 1323 m 1,0,-1
 806 1205 l 1,1,2
 979 1186 979 1186 1058 1095 c 0,3,4
 1159 980 1159 980 1114 745 c 0,5,6
 1068 510 1068 510 923 395 c 0,7,8
 808 305 808 305 627 286 c 1,9,-1
 605 170 l 1,10,-1
 752 170 l 1,11,-1
 719 0 l 1,12,-1
 222 0 l 1,13,-1
 255 170 l 1,14,-1
 402 170 l 1,15,-1
 424 286 l 1,16,17
 251 305 251 305 172 395 c 0,18,19
 71 510 71 510 117 745 c 0,20,21
 162 980 162 980 308 1095 c 0,22,23
 423 1186 423 1186 603 1205 c 1,24,-1
 626 1323 l 1,25,-1
 479 1323 l 1,26,-1
 512 1493 l 1,27,-1
 1009 1493 l 1,28,-1
 976 1323 l 1,29,-1
 829 1323 l 1,0,-1
662 462 m 1,30,31
 741 478 741 478 792 520 c 0,32,33
 872 588 872 588 903 745 c 0,34,35
 933 903 933 903 879 971 c 0,36,37
 845 1013 845 1013 772 1029 c 1,38,-1
 662 462 l 1,30,31
459 462 m 1,39,-1
 569 1029 l 1,40,41
 490 1013 490 1013 439 971 c 0,42,43
 358 903 358 903 328 745 c 0,44,45
 297 588 297 588 352 520 c 0,46,47
 386 478 386 478 459 462 c 1,39,-1
EndSplineSet
EndChar

StartChar: Psi
Encoding: 936 936 209
Width: 1233
Flags: W
LayerCount: 2
Back
Fore
SplineSet
862 1493 m 1,0,-1
 681 560 l 1,1,2
 760 594 760 594 823 681 c 0,3,4
 926 826 926 826 989 1150 c 2,5,-1
 1056 1493 l 1,6,-1
 1259 1493 l 1,7,-1
 1192 1150 l 2,8,9
 1116 758 1116 758 956 567 c 0,10,11
 829 416 829 416 647 384 c 1,12,-1
 605 170 l 1,13,-1
 752 170 l 1,14,-1
 719 0 l 1,15,-1
 222 0 l 1,16,-1
 255 170 l 1,17,-1
 402 170 l 1,18,-1
 444 384 l 1,19,20
 273 416 273 416 205 567 c 0,21,22
 119 758 119 758 195 1150 c 2,23,-1
 262 1493 l 1,24,-1
 465 1493 l 1,25,-1
 398 1150 l 2,26,27
 335 826 335 826 383 681 c 0,28,29
 412 594 412 594 478 560 c 1,30,-1
 659 1493 l 1,31,-1
 862 1493 l 1,0,-1
EndSplineSet
EndChar

StartChar: Omega
Encoding: 937 937 210
Width: 1233
Flags: W
LayerCount: 2
Back
Fore
SplineSet
-68 0 m 1,0,-1
 -34 172 l 1,1,-1
 211 172 l 1,2,3
 114 306 114 306 87 450 c 128,-1,4
 60 594 60 594 96 782 c 0,5,6
 157 1093 157 1093 336.5 1276.5 c 128,-1,7
 516 1460 516 1460 756 1460 c 0,8,9
 998 1460 998 1460 1107 1277 c 128,-1,10
 1216 1094 1216 1094 1155 782 c 0,11,12
 1119 594 1119 594 1035 449.5 c 128,-1,13
 951 305 951 305 803 172 c 1,14,-1
 1051 172 l 1,15,-1
 1017 0 l 1,16,-1
 554 0 l 1,17,-1
 588 172 l 1,18,19
 722 248 722 248 821 412.5 c 128,-1,20
 920 577 920 577 963 799 c 0,21,22
 1008 1029 1008 1029 944 1161.5 c 128,-1,23
 880 1294 880 1294 726 1294 c 128,-1,24
 572 1294 572 1294 456.5 1161.5 c 128,-1,25
 341 1029 341 1029 296 799 c 0,26,27
 253 577 253 577 288 412.5 c 128,-1,28
 323 248 323 248 429 172 c 1,29,-1
 395 0 l 1,30,-1
 -68 0 l 1,0,-1
EndSplineSet
EndChar

StartChar: alpha
Encoding: 945 945 211
Width: 1233
Flags: W
LayerCount: 2
Back
Fore
SplineSet
758 521 m 1,0,-1
 759 752 l 2,1,2
 760 988 760 988 583 989 c 0,3,4
 486 990 486 990 403 879 c 0,5,6
 299 742 299 742 264 559 c 0,7,8
 221 339 221 339 275 234 c 0,9,10
 331 127 331 127 416 127 c 0,11,12
 549 127 549 127 662 340 c 2,13,-1
 758 521 l 1,0,-1
921 827 m 1,15,16
 921 827 921 827 1077 1120 c 1,17,-1
 1241 1120 l 1,18,-1
 918 513 l 1,19,-1
 915 294 l 2,20,21
 915 245 915 245 942 204 c 0,22,23
 973 156 973 156 1005 156 c 2,24,-1
 1094 156 l 1,25,-1
 1064 0 l 1,26,-1
 953 0 l 2,27,28
 859 0 859 0 791 84 c 0,29,30
 759 126 759 126 758 214 c 1,31,32
 691 105 691 105 582 16 c 0,33,34
 529 -26 529 -26 386 -25 c 0,35,36
 188 -23 188 -23 103 127 c 0,37,38
 16 283 16 283 70 559 c 0,39,40
 128 856 128 856 280 991 c 0,41,42
 452 1142 452 1142 614 1145 c 0,43,14
 925 1150 925 1150 921 827 c 1,15,16
EndSplineSet
EndChar

StartChar: beta
Encoding: 946 946 212
Width: 1233
Flags: W
LayerCount: 2
Back
Fore
SplineSet
239 69 m 1,0,-1
 143 -426 l 1,1,-1
 -42 -426 l 1,2,-1
 257 1113 l 2,3,4
 351 1600 351 1600 806 1569 c 0,5,6
 1201 1542 1201 1542 1131 1184 c 0,7,8
 1077 908 1077 908 886 810 c 1,9,10
 1154 756 1154 756 1097 453 c 0,11,12
 1013 2 1013 2 523 -21 c 0,13,14
 392 -27 392 -27 239 69 c 1,0,-1
292 342 m 1,15,16
 346 201 346 201 569 180 c 0,17,18
 852 155 852 155 909 450 c 0,19,20
 964 732 964 732 495 710 c 1,21,-1
 528 880 l 1,22,23
 891 874 891 874 950 1178 c 0,24,25
 987 1367 987 1367 755 1380 c 0,26,27
 497 1395 497 1395 441 1107 c 2,28,-1
 292 342 l 1,15,16
EndSplineSet
EndChar

StartChar: gamma
Encoding: 947 947 213
Width: 1233
Flags: W
LayerCount: 2
Back
Fore
SplineSet
229 836 m 2,0,1
 208 962 208 962 114 962 c 2,2,-1
 65 962 l 1,3,-1
 96 1120 l 1,4,-1
 166 1120 l 2,5,6
 360 1120 360 1120 391 944 c 2,7,-1
 513 259 l 1,8,-1
 1006 1120 l 1,9,-1
 1197 1120 l 1,10,-1
 558 0 l 1,11,-1
 475 -426 l 1,12,-1
 285 -426 l 1,13,-1
 368 0 l 1,14,-1
 229 836 l 2,0,1
EndSplineSet
EndChar

StartChar: delta
Encoding: 948 948 214
Width: 1233
Flags: W
LayerCount: 2
Back
Fore
SplineSet
659 991 m 0,0,1
 519 991 519 991 426 882 c 128,-1,2
 333 773 333 773 291 559 c 0,3,4
 250 346 250 346 300.5 236.5 c 128,-1,5
 351 127 351 127 491 127 c 0,6,7
 632 127 632 127 725.5 236.5 c 128,-1,8
 819 346 819 346 860 559 c 0,9,10
 902 773 902 773 851 882 c 128,-1,11
 800 991 800 991 659 991 c 0,0,1
392 1067 m 1,12,13
 375 1076 375 1076 342 1116 c 0,14,15
 292 1177 292 1177 310 1269 c 0,16,17
 337 1405 337 1405 471 1487 c 128,-1,18
 605 1569 605 1569 802 1569 c 0,19,20
 904 1569 904 1569 952 1557 c 2,21,-1
 1096 1521 l 1,22,-1
 1062 1348 l 1,23,24
 1001 1372 1001 1372 933 1387 c 0,25,26
 852 1404 852 1404 770 1402 c 2,27,-1
 738 1401 l 2,28,29
 664 1399 664 1399 596 1356 c 2,30,-1
 552 1328 l 2,31,32
 520 1304 520 1304 511 1258 c 0,33,34
 505 1225 505 1225 514 1206 c 0,35,36
 526 1182 526 1182 563 1161 c 0,37,38
 584 1148 584 1148 689 1147 c 0,39,40
 924 1144 924 1144 1016 996 c 0,41,42
 1111 845 1111 845 1055 559 c 0,43,44
 999 272 999 272 847 121.5 c 128,-1,45
 695 -29 695 -29 461 -29 c 0,46,47
 228 -29 228 -29 134 121.5 c 128,-1,48
 40 272 40 272 96 559 c 0,49,50
 152 845 152 845 304 996 c 0,51,52
 342 1034 342 1034 392 1067 c 1,12,13
EndSplineSet
EndChar

StartChar: epsilon
Encoding: 949 949 215
Width: 1233
Flags: W
LayerCount: 2
Back
Fore
SplineSet
434 592 m 1,0,1
 399 600 399 600 374 612 c 0,2,3
 340 629 340 629 300 679 c 0,4,5
 250 740 250 740 268 832 c 0,6,7
 294 968 294 968 428 1050 c 128,-1,8
 562 1132 562 1132 760 1132 c 0,9,10
 826 1132 826 1132 909 1120 c 128,-1,11
 992 1108 992 1108 1097 1084 c 1,12,-1
 1062 905 l 1,13,14
 974 935 974 935 891 950 c 128,-1,15
 808 965 808 965 727 965 c 2,16,-1
 696 964 l 2,17,18
 619 959 619 959 553 919 c 2,19,-1
 509 891 l 2,20,21
 478 867 478 867 469 821 c 0,22,23
 462 789 462 789 472 770 c 0,24,25
 479 754 479 754 520 724 c 0,26,27
 593 670 593 670 697 670 c 2,28,-1
 824 670 l 1,29,-1
 792 507 l 1,30,-1
 666 507 l 2,31,32
 548 507 548 507 444 441 c 0,33,34
 402 415 402 415 389 405 c 0,35,36
 350 375 350 375 340 321 c 0,37,38
 334 291 334 291 336 268 c 0,39,40
 341 221 341 221 393 179 c 0,41,42
 400 174 400 174 407 169 c 0,43,44
 471 124 471 124 591 124 c 0,45,46
 616 124 616 124 648 129 c 2,47,-1
 776 158 l 2,48,49
 783 159 783 159 791 161 c 0,50,51
 914 186 914 186 968 207 c 1,52,-1
 932 26 l 1,53,54
 834 -1 834 -1 734.5 -15 c 128,-1,55
 635 -29 635 -29 541 -29 c 0,56,57
 319 -29 319 -29 211 59 c 128,-1,58
 103 147 103 147 133 301 c 0,59,60
 155 413 155 413 240 488 c 0,61,62
 276 518 276 518 276 518 c 2,63,64
 345 573 345 573 434 592 c 1,0,1
EndSplineSet
EndChar

StartChar: zeta
Encoding: 950 950 216
Width: 1233
Flags: W
LayerCount: 2
Back
Fore
SplineSet
675 127 m 0,0,1
 807 126 807 126 871 51 c 0,2,3
 940 -28 940 -28 917 -148 c 0,4,5
 894 -263 894 -263 805 -343 c 0,6,7
 708 -430 708 -430 545 -430 c 1,8,9
 560 -355 560 -355 574 -279 c 1,10,11
 642 -284 642 -284 693 -240 c 0,12,13
 732 -205 732 -205 739 -168 c 0,14,15
 749 -115 749 -115 726 -71 c 0,16,17
 702 -29 702 -29 645 -29 c 0,18,19
 58 -29 58 -29 147 534 c 0,20,21
 224 1014 224 1014 881 1371 c 1,22,-1
 349 1371 l 1,23,-1
 385 1556 l 1,24,-1
 1255 1556 l 1,25,-1
 1219 1371 l 1,26,27
 369 956 369 956 332 534 c 0,28,29
 297 127 297 127 675 127 c 0,0,1
EndSplineSet
EndChar

StartChar: eta
Encoding: 951 951 217
Width: 1233
Flags: W
LayerCount: 2
Back
Fore
SplineSet
1116 694 m 2,0,-1
 898 -426 l 1,1,-1
 713 -426 l 1,2,-1
 931 694 l 2,3,4
 960 845 960 845 921 916 c 128,-1,5
 882 987 882 987 769 987 c 0,6,7
 640 987 640 987 552.5 895.5 c 128,-1,8
 465 804 465 804 432 633 c 2,9,-1
 309 0 l 1,10,-1
 125 0 l 1,11,-1
 343 1120 l 1,12,-1
 527 1120 l 1,13,-1
 494 952 l 1,14,15
 562 1048 562 1048 655.5 1097.5 c 128,-1,16
 749 1147 749 1147 864 1147 c 0,17,18
 1035 1147 1035 1147 1097.5 1034.5 c 128,-1,19
 1160 922 1160 922 1116 694 c 2,0,-1
EndSplineSet
EndChar

StartChar: theta
Encoding: 952 952 218
Width: 1233
Flags: W
LayerCount: 2
Back
Fore
SplineSet
917 828 m 1,0,1
 954 1054 954 1054 917 1189 c 0,2,3
 875 1342 875 1342 734 1342 c 0,4,5
 594 1342 594 1342 492 1189 c 0,6,7
 402 1054 402 1054 352 828 c 1,8,-1
 917 828 l 1,0,1
881 644 m 1,9,-1
 316 644 l 1,10,11
 279 420 279 420 316 283 c 0,12,13
 358 129 358 129 498 129 c 0,14,15
 639 129 639 129 741 283 c 0,16,17
 832 420 832 420 881 644 c 1,9,-1
765 1500 m 128,-1,19
 998 1500 998 1500 1083 1303.5 c 128,-1,20
 1168 1107 1168 1107 1096 736 c 0,21,22
 1023 362 1023 362 862 166.5 c 128,-1,23
 701 -29 701 -29 467 -29 c 0,24,25
 234 -29 234 -29 149 166.5 c 128,-1,26
 64 362 64 362 137 736 c 0,27,28
 209 1107 209 1107 370.5 1303.5 c 128,-1,18
 532 1500 532 1500 765 1500 c 128,-1,19
EndSplineSet
EndChar

StartChar: iota
Encoding: 953 953 219
Width: 1233
Flags: W
LayerCount: 2
Back
Fore
SplineSet
817 1120 m 1,0,-1
 676 395 l 2,1,2
 648 250 648 250 673 204 c 0,3,4
 700 156 700 156 808 156 c 2,5,-1
 896 156 l 1,6,-1
 866 0 l 1,7,-1
 756 0 l 2,8,9
 576 0 576 0 512 96 c 0,10,11
 449 194 449 194 491 406 c 2,12,-1
 601 977 l 1,13,-1
 391 977 l 1,14,-1
 419 1120 l 1,15,-1
 817 1120 l 1,0,-1
EndSplineSet
EndChar

StartChar: kappa
Encoding: 954 954 220
Width: 1233
Flags: W
LayerCount: 2
Back
Fore
SplineSet
345 1120 m 5,0,-1
 535 1120 l 5,1,-1
 444 655 l 5,2,-1
 1018 1120 l 5,3,-1
 1242 1120 l 5,4,-1
 719 698 l 5,5,-1
 1093 0 l 5,6,-1
 868 0 l 5,7,-1
 566 578 l 5,8,-1
 404 449 l 5,9,-1
 317 0 l 5,10,-1
 127 0 l 5,11,-1
 345 1120 l 5,0,-1
EndSplineSet
EndChar

StartChar: lambda
Encoding: 955 955 221
Width: 1233
Flags: W
LayerCount: 2
Back
Fore
SplineSet
898 1381 m 2,0,-1
 1146 0 l 1,1,-1
 951 0 l 1,2,-1
 798 828 l 1,3,-1
 251 0 l 1,4,-1
 56 0 l 1,5,-1
 756 1074 l 1,6,-1
 721 1272 l 2,7,8
 698 1399 698 1399 544 1398 c 2,9,-1
 495 1398 l 1,10,-1
 526 1556 l 1,11,-1
 595 1554 l 2,12,13
 868 1547 868 1547 898 1381 c 2,0,-1
EndSplineSet
EndChar

StartChar: uni03BC
Encoding: 956 956 222
Width: 1233
Flags: W
LayerCount: 2
Back
Fore
SplineSet
-39 -426 m 5,0,-1
 262 1120 l 5,1,-1
 449 1120 l 5,2,-1
 313 424 l 6,3,4
 307 393 307 393 304 366 c 132,-1,5
 301 339 301 339 301 319 c 4,6,7
 301 228 301 228 355.5 179.5 c 132,-1,8
 410 131 410 131 512 131 c 4,9,10
 649 131 649 131 731 214 c 132,-1,11
 813 297 813 297 846 467 c 6,12,-1
 973 1120 l 5,13,-1
 1159 1120 l 5,14,-1
 991 258 l 6,15,16
 988 240 988 240 986.5 227 c 132,-1,17
 985 214 985 214 985 203 c 4,18,19
 985 173 985 173 997.5 157 c 132,-1,20
 1010 141 1010 141 1034 141 c 4,21,22
 1043 141 1043 141 1059 146 c 132,-1,23
 1075 151 1075 151 1106 164 c 5,24,-1
 1077 16 l 5,25,26
 1037 -6 1037 -6 1000 -17.5 c 132,-1,27
 963 -29 963 -29 930 -29 c 4,28,29
 863 -29 863 -29 823.5 13.5 c 132,-1,30
 784 56 784 56 784 129 c 5,31,32
 731 47 731 47 661.5 9 c 132,-1,33
 592 -29 592 -29 494 -29 c 4,34,35
 402 -29 402 -29 340 12.5 c 132,-1,36
 278 54 278 54 246 137 c 5,37,-1
 137 -426 l 5,38,-1
 -39 -426 l 5,0,-1
EndSplineSet
EndChar

StartChar: nu
Encoding: 957 957 223
Width: 1233
Flags: W
LayerCount: 2
Back
Fore
SplineSet
349 0 m 1,0,-1
 225 1120 l 1,1,-1
 423 1120 l 1,2,-1
 529 180 l 1,3,4
 673 304 673 304 807 476 c 0,5,6
 908 605 908 605 934 717 c 0,7,8
 946 770 946 770 941 870 c 0,9,10
 936 989 936 989 856 1120 c 1,11,-1
 1042 1120 l 1,12,-1
 1042 1120 l 1,13,14
 1094 1031 1094 1031 1115 907 c 0,15,16
 1135 793 1135 793 1120 715 c 0,17,18
 1082 519 1082 519 912 344 c 0,19,20
 690 116 690 116 545 0 c 1,21,-1
 349 0 l 1,0,-1
EndSplineSet
EndChar

StartChar: xi
Encoding: 958 958 224
Width: 1233
Flags: W
LayerCount: 2
Back
Fore
SplineSet
700 127 m 0,0,1
 832 126 832 126 896 51 c 0,2,3
 965 -28 965 -28 942 -148 c 0,4,5
 919 -263 919 -263 830 -343 c 0,6,7
 733 -430 733 -430 570 -430 c 1,8,9
 585 -355 585 -355 599 -279 c 1,10,11
 667 -284 667 -284 718 -240 c 0,12,13
 757 -205 757 -205 764 -168 c 0,14,15
 774 -115 774 -115 751 -71 c 0,16,17
 727 -29 727 -29 670 -29 c 0,18,19
 48 -29 48 -29 140 452 c 0,20,21
 185 684 185 684 540 796 c 1,22,23
 267 832 267 832 318 1092 c 0,24,25
 356 1289 356 1289 592 1371 c 1,26,-1
 384 1371 l 1,27,-1
 420 1556 l 1,28,-1
 1209 1556 l 1,29,-1
 1173 1371 l 1,30,31
 544 1371 544 1371 487 1080 c 0,32,33
 450 889 450 889 977 880 c 1,34,-1
 944 710 l 1,35,36
 367 672 367 672 325 452 c 0,37,38
 265 131 265 131 700 127 c 0,0,1
EndSplineSet
EndChar

StartChar: pi
Encoding: 960 960 226
Width: 1233
Flags: W
LayerCount: 2
Back
Fore
SplineSet
148 1120 m 1,0,-1
 1221 1120 l 1,1,-1
 1185 936 l 1,2,-1
 1044 936 l 1,3,-1
 910 248 l 2,4,5
 896 176 896 176 914.5 144.5 c 128,-1,6
 933 113 933 113 988 113 c 0,7,8
 1003 113 1003 113 1025.5 115.5 c 128,-1,9
 1048 118 1048 118 1055 119 c 1,10,-1
 1029 -14 l 1,11,12
 992 -27 992 -27 953.5 -33 c 128,-1,13
 915 -39 915 -39 878 -39 c 0,14,15
 765 -39 765 -39 732 26.5 c 128,-1,16
 699 92 699 92 733 268 c 2,17,-1
 863 936 l 1,18,-1
 435 936 l 1,19,-1
 253 0 l 1,20,-1
 73 0 l 1,21,-1
 255 936 l 1,22,-1
 112 936 l 1,23,-1
 148 1120 l 1,0,-1
EndSplineSet
EndChar

StartChar: rho
Encoding: 961 961 227
Width: 1233
Flags: W
LayerCount: 2
Back
Fore
SplineSet
797 1147 m 0,0,1
 1029 1148 1029 1148 1115 990 c 0,2,3
 1200 833 1200 833 1146 555 c 0,4,5
 1093 282 1093 282 946.5 126.5 c 128,-1,6
 800 -29 800 -29 598 -29 c 0,7,8
 496 -29 496 -29 428 14.5 c 128,-1,9
 360 58 360 58 332 141 c 1,10,-1
 222 -426 l 1,11,-1
 37 -426 l 1,12,-1
 225 540 l 2,13,14
 286 856 286 856 422 990 c 0,15,16
 584 1147 584 1147 797 1147 c 0,0,1
953.5 559 m 128,-1,18
 995 773 995 773 949 882 c 128,-1,19
 903 991 903 991 770 991 c 0,20,21
 636 991 636 991 545.5 881.5 c 128,-1,22
 455 772 455 772 414 559 c 0,23,24
 372 347 372 347 420 237 c 128,-1,25
 468 127 468 127 602 127 c 0,26,27
 735 127 735 127 823.5 236 c 128,-1,17
 912 345 912 345 953.5 559 c 128,-1,18
EndSplineSet
EndChar

StartChar: sigma1
Encoding: 962 962 228
Width: 1233
Flags: W
LayerCount: 2
Back
Fore
SplineSet
703 127 m 0,0,1
 835 126 835 126 899 51 c 0,2,3
 968 -28 968 -28 945 -148 c 0,4,5
 922 -263 922 -263 833 -343 c 0,6,7
 735 -430 735 -430 573 -430 c 1,8,9
 587 -355 587 -355 602 -279 c 1,10,11
 670 -284 670 -284 721 -240 c 0,12,13
 759 -205 759 -205 767 -168 c 0,14,15
 777 -115 777 -115 754 -71 c 0,16,17
 730 -29 730 -29 673 -29 c 0,18,19
 413 -29 413 -29 296.5 127 c 128,-1,20
 180 283 180 283 234 559 c 128,-1,21
 288 835 288 835 464.5 991 c 128,-1,22
 641 1147 641 1147 901 1147 c 0,23,24
 982 1147 982 1147 1055 1126 c 128,-1,25
 1128 1105 1128 1105 1198 1061 c 1,26,-1
 1160 868 l 1,27,28
 1100 933 1100 933 1032 962 c 128,-1,29
 964 991 964 991 871 991 c 0,30,31
 698 991 698 991 583 879 c 128,-1,32
 468 767 468 767 428 559 c 0,33,34
 387 350 387 350 459 240 c 0,35,36
 532 129 532 129 703 127 c 0,0,1
EndSplineSet
EndChar

StartChar: sigma
Encoding: 963 963 229
Width: 1233
Flags: W
LayerCount: 2
Back
Fore
SplineSet
641 935 m 1,0,1
 507 926 507 926 448 855 c 0,2,3
 354 744 354 744 318 559 c 0,4,5
 277 346 277 346 327.5 236.5 c 128,-1,6
 378 127 378 127 518 127 c 0,7,8
 659 127 659 127 752.5 236.5 c 128,-1,9
 846 346 846 346 887 559 c 0,10,11
 925 754 925 754 749 869 c 0,12,13
 685 911 685 911 641 935 c 1,0,1
949 936 m 1,14,15
 1126 790 1126 790 1082 559 c 0,16,17
 1026 273 1026 273 874 122 c 256,18,19
 722 -29 722 -29 488 -29 c 0,20,21
 255 -29 255 -29 161 121.5 c 128,-1,22
 67 272 67 272 123 559 c 0,23,24
 175 824 175 824 327 977 c 0,25,26
 470 1120 470 1120 711 1120 c 2,27,-1
 1226 1120 l 1,28,-1
 1190 936 l 1,29,-1
 949 936 l 1,14,15
EndSplineSet
EndChar

StartChar: tau
Encoding: 964 964 230
Width: 1233
Flags: W
LayerCount: 2
Back
Fore
SplineSet
673 204 m 0,0,1
 700 156 700 156 808 156 c 2,2,-1
 896 156 l 1,3,-1
 866 0 l 1,4,-1
 756 0 l 2,5,6
 576 0 576 0 512 96 c 0,7,8
 449 194 449 194 491 406 c 2,9,-1
 594 936 l 1,10,-1
 233 936 l 1,11,-1
 268 1120 l 1,12,-1
 1182 1120 l 1,13,-1
 1147 936 l 1,14,-1
 782 936 l 1,15,-1
 676 395 l 2,16,17
 648 250 648 250 673 204 c 0,0,1
EndSplineSet
EndChar

StartChar: upsilon
Encoding: 965 965 231
Width: 1233
Flags: W
LayerCount: 2
Back
Fore
SplineSet
549 156 m 0,0,1
 699 156 699 156 824 335 c 0,2,3
 906 453 906 453 958 640 c 0,4,5
 985 742 985 742 980 870 c 0,6,7
 975 989 975 989 895 1120 c 1,8,-1
 1081 1120 l 1,9,-1
 1081 1120 l 1,10,11
 1133 1030 1133 1030 1154 907 c 0,12,13
 1174 792 1174 792 1144 638 c 0,14,15
 1100 413 1100 413 933 210 c 0,16,17
 759 -1 759 -1 497 0 c 0,18,19
 317 0 317 0 253 96 c 0,20,21
 190 194 190 194 232 406 c 2,22,-1
 342 977 l 1,23,-1
 132 977 l 1,24,-1
 160 1120 l 1,25,-1
 558 1120 l 1,26,-1
 417 395 l 2,27,28
 389 250 389 250 414 204 c 0,29,30
 441 156 441 156 549 156 c 0,0,1
EndSplineSet
EndChar

StartChar: phi
Encoding: 966 966 232
Width: 1233
Flags: W
LayerCount: 2
Back
Fore
SplineSet
894 971 m 0,0,1
 829 971 829 971 800 826 c 2,2,-1
 667 140 l 1,3,4
 761 140 761 140 866 244 c 0,5,6
 962 337 962 337 1004 560 c 0,7,8
 1045 781 1045 781 989 880 c 0,9,10
 937 971 937 971 894 971 c 0,0,1
924 1128 m 0,11,12
 1066 1128 1066 1128 1155 996 c 0,13,14
 1251 855 1251 855 1198 560 c 0,15,16
 1147 278 1147 278 986 128 c 0,17,18
 824 -24 824 -24 635 -24 c 1,19,-1
 557 -426 l 1,20,-1
 374 -426 l 1,21,-1
 452 -25 l 1,22,23
 253 -25 253 -25 159 128 c 0,24,25
 64 283 64 283 116 559 c 0,26,27
 174 859 174 859 327 991 c 0,28,29
 454 1100 454 1100 611 1128 c 1,30,-1
 579 965 l 1,31,32
 508 938 508 938 446 864 c 0,33,34
 346 749 346 749 310 559 c 0,35,36
 270 343 270 343 324 242 c 0,37,38
 381 139 381 139 484 139 c 1,39,-1
 617 826 l 2,40,41
 676 1128 676 1128 924 1128 c 0,11,12
EndSplineSet
EndChar

StartChar: chi
Encoding: 967 967 233
Width: 1233
Flags: W
LayerCount: 2
Back
Fore
SplineSet
634 -250 m 2,0,-1
 565 128 l 1,1,-1
 193 -426 l 1,2,-1
 2 -426 l 1,3,-1
 524 351 l 1,4,-1
 436 836 l 2,5,6
 413 962 413 962 258 962 c 2,7,-1
 209 962 l 1,8,-1
 239 1120 l 1,9,-1
 309 1120 l 2,10,11
 566 1120 566 1120 598 944 c 2,12,-1
 667 564 l 1,13,-1
 1041 1120 l 1,14,-1
 1232 1120 l 1,15,-1
 708 340 l 1,16,-1
 796 -142 l 2,17,18
 819 -268 819 -268 975 -268 c 2,19,-1
 1024 -268 l 1,20,-1
 994 -426 l 1,21,-1
 924 -426 l 2,22,23
 666 -426 666 -426 634 -250 c 2,0,-1
EndSplineSet
EndChar

StartChar: psi
Encoding: 968 968 234
Width: 1233
Flags: W
LayerCount: 2
Back
Fore
SplineSet
668 140 m 1,0,1
 735 162 735 162 809 226 c 0,2,3
 910 313 910 313 943 479 c 2,4,-1
 1067 1120 l 1,5,-1
 1252 1120 l 1,6,-1
 1126 472 l 2,7,8
 1084 256 1084 256 926 111 c 0,9,10
 779 -24 779 -24 636 -25 c 1,11,-1
 558 -426 l 1,12,-1
 375 -426 l 1,13,-1
 453 -25 l 1,14,15
 310 -24 310 -24 215 111 c 0,16,17
 113 256 113 256 155 472 c 2,18,-1
 281 1120 l 1,19,-1
 466 1120 l 1,20,-1
 342 479 l 2,21,22
 309 313 309 313 376 226 c 0,23,24
 426 162 426 162 485 140 c 1,25,-1
 675 1120 l 1,26,-1
 858 1120 l 1,27,-1
 668 140 l 1,0,1
EndSplineSet
EndChar

StartChar: omega
Encoding: 969 969 235
Width: 1233
Flags: W
LayerCount: 2
Back
Fore
SplineSet
1151 1120 m 1,0,1
 1230 856 1230 856 1174 567.5 c 128,-1,2
 1118 279 1118 279 1044 156 c 0,3,4
 933 -29 933 -29 747 -29 c 0,5,6
 662 -29 662 -29 607 22.5 c 128,-1,7
 552 74 552 74 546 150 c 1,8,9
 512 78 512 78 438 24.5 c 128,-1,10
 364 -29 364 -29 275 -29 c 0,11,12
 89 -29 89 -29 51 156 c 0,13,14
 24 279 24 279 80 567.5 c 128,-1,15
 136 856 136 856 319 1120 c 1,16,-1
 509 1120 l 1,17,18
 329 845 329 845 273 558 c 0,19,20
 229 332 229 332 234 270 c 0,21,22
 248 125 248 125 312 127 c 0,23,24
 398 129 398 129 454 240 c 0,25,26
 495 322 495 322 568 699 c 1,27,-1
 738 699 l 1,28,29
 665 322 665 322 674 240 c 0,30,31
 686 129 686 129 772 127 c 0,32,33
 835 125 835 125 904 270 c 0,34,35
 934 332 934 332 977 558 c 0,36,37
 1033 845 1033 845 961 1120 c 1,38,-1
 1151 1120 l 1,0,1
EndSplineSet
EndChar

StartChar: uni03DD
Encoding: 989 989 236
Width: 1233
Flags: W
LayerCount: 2
Back
Fore
SplineSet
545 1154 m 2,0,1
 577 1314 577 1314 740 1456 c 0,2,3
 855 1556 855 1556 1025 1556 c 0,4,5
 1074 1556 1074 1556 1121.5 1547 c 128,-1,6
 1169 1538 1169 1538 1217 1520 c 1,7,-1
 1185 1356 l 1,8,9
 1154 1384 1154 1384 1116 1398.5 c 128,-1,10
 1078 1413 1078 1413 1034 1413 c 0,11,12
 914 1413 914 1413 844 1351 c 0,13,14
 753 1270 753 1270 731 1159 c 2,15,-1
 671 848 l 1,16,-1
 992 848 l 1,17,-1
 964 705 l 1,18,-1
 643 705 l 1,19,-1
 506 0 l 2,20,21
 478 -146 478 -146 306 -311 c 0,22,23
 186 -426 186 -426 13 -426 c 0,24,25
 -44 -426 -44 -426 -93 -415.5 c 128,-1,26
 -142 -405 -142 -405 -183 -383 c 1,27,-1
 -151 -219 l 1,28,29
 -108 -250 -108 -250 -61.5 -266.5 c 128,-1,30
 -15 -283 -15 -283 33 -283 c 0,31,32
 120 -283 120 -283 199 -208 c 0,33,34
 299 -113 299 -113 321 0 c 2,35,-1
 545 1154 l 2,0,1
EndSplineSet
EndChar

StartChar: uni03FF
Encoding: 1023 1023 238
Width: 1233
Flags: W
LayerCount: 2
Back
Fore
SplineSet
4 53 m 5
 4 53 4 53 45 260 c 5
 106 199 106 199 184 167 c 4
 262 135 262 135 350 135 c 4
 547 135 547 135 674.5 287 c 4
 802 439 802 439 862 745 c 4
 922 1052 922 1052 853.5 1204 c 4
 785 1356 785 1356 588 1356 c 4
 502 1356 502 1356 410.5 1324 c 4
 319 1292 319 1292 233 1231 c 5
 274 1438 l 5
 359 1479 359 1479 444 1499.5 c 4
 529 1520 529 1520 620 1520 c 4
 905 1520 905 1520 1024.5 1315.5 c 4
 1144 1111 1144 1111 1073 745 c 4
 1001 377 1001 377 803 174 c 4
 605 -29 605 -29 318 -29 c 4
 227 -29 227 -29 150 -8.5 c 4
 73 12 73 12 4 53 c 5
EndSplineSet
Refer: 112 183 N 1 0 0 1 -156 0 3
EndChar

StartChar: uni0411
Encoding: 1041 1041 241
Width: 1233
Flags: W
LayerCount: 2
Back
Fore
SplineSet
362 713 m 1,0,-1
 256 166 l 1,1,-1
 495 166 l 2,2,3
 671 166 671 166 758 227.5 c 128,-1,4
 845 289 845 289 872 430 c 0,5,6
 901 576 901 576 835 644.5 c 128,-1,7
 769 713 769 713 601 713 c 2,8,-1
 362 713 l 1,0,-1
1181 1327 m 1,9,-1
 482 1327 l 1,10,-1
 394 877 l 1,11,-1
 629 877 l 1,12,13
 1005 862 1005 862 1069 671 c 0,14,15
 1103 571 1103 571 1072 410 c 0,16,17
 1032 207 1032 207 879 103.5 c 128,-1,18
 726 0 726 0 463 0 c 2,19,-1
 21 0 l 1,20,-1
 311 1493 l 1,21,-1
 1213 1493 l 1,22,-1
 1181 1327 l 1,9,-1
EndSplineSet
EndChar

StartChar: uni0413
Encoding: 1043 1043 243
Width: 1233
Flags: W
LayerCount: 2
Back
Fore
SplineSet
70 0 m 1,0,-1
 360 1493 l 1,1,-1
 1284 1493 l 1,2,-1
 1251 1323 l 1,3,-1
 530 1323 l 1,4,-1
 273 0 l 1,5,-1
 70 0 l 1,0,-1
EndSplineSet
EndChar

StartChar: uni0414
Encoding: 1044 1044 244
Width: 1233
Flags: W
LayerCount: 2
Back
Fore
SplineSet
-143 -322 m 1,0,-1
 -48 170 l 1,1,-1
 29 170 l 2,2,3
 77 170 77 170 169 464 c 128,-1,4
 261 758 261 758 313 1027 c 2,5,-1
 403 1493 l 1,6,-1
 1255 1493 l 1,7,-1
 998 170 l 1,8,-1
 1119 170 l 1,9,-1
 1024 -322 l 1,10,-1
 854 -322 l 1,11,-1
 916 0 l 1,12,-1
 89 0 l 1,13,-1
 27 -322 l 1,14,-1
 -143 -322 l 1,0,-1
287 188 m 1,15,16
 287 170 287 170 330 170 c 2,17,-1
 795 170 l 1,18,-1
 1019 1323 l 1,19,-1
 573 1323 l 1,20,-1
 516 1026 l 2,21,22
 472 802 472 802 379.5 483.5 c 128,-1,23
 287 165 287 165 287 188 c 1,15,16
EndSplineSet
EndChar

StartChar: uni0416
Encoding: 1046 1046 246
Width: 1233
Flags: W
LayerCount: 2
Back
Fore
SplineSet
-130 0 m 1,0,-1
 347 891 l 1,1,-1
 177 1493 l 1,2,-1
 384 1493 l 1,3,-1
 552 898 l 1,4,-1
 668 1493 l 1,5,-1
 855 1493 l 1,6,-1
 739 898 l 1,7,-1
 1139 1493 l 1,8,-1
 1346 1493 l 1,9,-1
 942 891 l 1,10,-1
 1073 0 l 1,11,-1
 876 0 l 1,12,-1
 780 650 l 1,13,-1
 655 464 l 1,14,-1
 565 0 l 1,15,-1
 378 0 l 1,16,-1
 468 464 l 1,17,-1
 415 650 l 1,18,-1
 67 0 l 1,19,-1
 -130 0 l 1,0,-1
EndSplineSet
EndChar

StartChar: uni0418
Encoding: 1048 1048 248
Width: 1233
Flags: W
LayerCount: 2
Back
Fore
SplineSet
-6 0 m 1,0,-1
 284 1493 l 1,1,-1
 479 1493 l 1,2,-1
 240 264 l 1,3,-1
 983 1493 l 1,4,-1
 1239 1493 l 1,5,-1
 949 0 l 1,6,-1
 754 0 l 1,7,-1
 993 1229 l 1,8,-1
 250 0 l 1,9,-1
 -6 0 l 1,0,-1
EndSplineSet
EndChar

StartChar: uni0419
Encoding: 1049 1049 249
Width: 1233
Flags: W
LayerCount: 2
Back
Fore
SplineSet
529 1901 m 5
 648 1901 l 5
 649 1847 649 1847 693.5 1818.5 c 4
 738 1790 738 1790 820 1790 c 4
 903 1790 903 1790 957 1817.5 c 4
 1011 1845 1011 1845 1037 1901 c 5
 1156 1901 l 5
 1121 1782 1121 1782 1029.5 1720.5 c 4
 938 1659 938 1659 794 1659 c 260
 650 1659 650 1659 583 1720 c 4
 516 1781 516 1781 529 1901 c 5
EndSplineSet
Refer: 248 1048 N 1 0 0 1 0 0 3
EndChar

StartChar: uni041B
Encoding: 1051 1051 251
Width: 1233
Flags: W
LayerCount: 2
Back
Fore
SplineSet
595 1323 m 1,0,-1
 546 1073 l 2,1,2
 483 748 483 748 422 493 c 128,-1,3
 361 238 361 238 236.5 119 c 128,-1,4
 112 0 112 0 -141 0 c 1,5,-1
 -109 164 l 1,6,7
 29 164 29 164 102 235.5 c 128,-1,8
 175 307 175 307 225.5 515.5 c 128,-1,9
 276 724 276 724 342 1067 c 2,10,-1
 425 1493 l 1,11,-1
 1239 1493 l 1,12,-1
 949 0 l 1,13,-1
 746 0 l 1,14,-1
 1003 1323 l 1,15,-1
 595 1323 l 1,0,-1
EndSplineSet
EndChar

StartChar: uni041F
Encoding: 1055 1055 255
Width: 1233
Flags: W
LayerCount: 2
Back
Fore
SplineSet
282 1493 m 1,0,-1
 1241 1493 l 1,1,-1
 951 0 l 1,2,-1
 748 0 l 1,3,-1
 1005 1323 l 1,4,-1
 452 1323 l 1,5,-1
 195 0 l 1,6,-1
 -8 0 l 1,7,-1
 282 1493 l 1,0,-1
EndSplineSet
EndChar

StartChar: uni0423
Encoding: 1059 1059 259
Width: 1233
Flags: W
LayerCount: 2
Back
Fore
SplineSet
679 425 m 2,0,1
 589 267 589 267 498 156 c 0,2,3
 440 82 440 82 355 39 c 0,4,5
 279 0 279 0 187 0 c 2,6,-1
 39 0 l 1,7,-1
 72 172 l 1,8,-1
 181 172 l 2,9,10
 262 172 262 172 317 219 c 0,11,12
 372 265 372 265 420 342 c 0,13,14
 440 374 440 374 464 416 c 1,15,-1
 249 1493 l 1,16,-1
 466 1493 l 1,17,-1
 616 663 l 1,18,-1
 1085 1493 l 1,19,-1
 1298 1493 l 1,20,-1
 679 425 l 2,0,1
EndSplineSet
EndChar

StartChar: uni0424
Encoding: 1060 1060 260
Width: 1233
Flags: W
LayerCount: 2
Back
Fore
SplineSet
48 541 m 128,-1,1
 48 651 48 651 69 762 c 0,2,3
 120 1022 120 1022 244.5 1191.5 c 128,-1,4
 369 1361 369 1361 636 1371 c 1,5,-1
 660 1493 l 1,6,-1
 863 1493 l 1,7,-1
 839 1371 l 1,8,9
 1104 1361 1104 1361 1148.5 1229.5 c 128,-1,10
 1193 1098 1193 1098 1193 989.5 c 128,-1,11
 1193 881 1193 881 1170 762 c 0,12,13
 1119 502 1119 502 995 332 c 128,-1,14
 871 162 871 162 602 152 c 1,15,-1
 573 0 l 1,16,-1
 370 0 l 1,17,-1
 399 152 l 1,18,19
 151 162 151 162 99.5 296.5 c 128,-1,0
 48 431 48 431 48 541 c 128,-1,1
252 550.5 m 128,-1,21
 252 483 252 483 261.5 412.5 c 128,-1,22
 271 342 271 342 431 316 c 1,23,-1
 605 1207 l 1,24,25
 434 1181 434 1181 376.5 1071 c 128,-1,26
 319 961 319 961 285.5 789.5 c 128,-1,20
 252 618 252 618 252 550.5 c 128,-1,21
634 316 m 1,27,28
 804 342 804 342 862 452 c 128,-1,29
 920 562 920 562 953.5 733.5 c 128,-1,30
 987 905 987 905 987 972.5 c 128,-1,31
 987 1040 987 1040 977 1110.5 c 128,-1,32
 967 1181 967 1181 808 1207 c 1,33,-1
 634 316 l 1,27,28
EndSplineSet
EndChar

StartChar: uni0426
Encoding: 1062 1062 262
Width: 1233
Flags: W
LayerCount: 2
Back
Fore
SplineSet
-34 0 m 1,0,-1
 256 1493 l 1,1,-1
 459 1493 l 1,2,-1
 202 170 l 1,3,-1
 755 170 l 1,4,-1
 1012 1493 l 1,5,-1
 1215 1493 l 1,6,-1
 958 170 l 1,7,-1
 1092 170 l 1,8,-1
 997 -322 l 1,9,-1
 827 -322 l 1,10,-1
 889 0 l 1,11,-1
 -34 0 l 1,0,-1
EndSplineSet
EndChar

StartChar: uni0427
Encoding: 1063 1063 263
Width: 1233
Flags: W
LayerCount: 2
Back
Fore
SplineSet
167 820 m 128,-1,1
 167 903 167 903 182 980 c 2,2,-1
 282 1493 l 1,3,-1
 485 1493 l 1,4,-1
 390 1006 l 2,5,6
 378 941 378 941 378 884 c 128,-1,7
 378 827 378 827 406 803 c 0,8,9
 453 763 453 763 562 763 c 0,10,11
 679 763 679 763 743 777.5 c 128,-1,12
 807 792 807 792 911 861 c 1,13,-1
 1034 1493 l 1,14,-1
 1237 1493 l 1,15,-1
 947 0 l 1,16,-1
 744 0 l 1,17,-1
 872 658 l 1,18,19
 743 600 743 600 665.5 588.5 c 128,-1,20
 588 577 588 577 462 577 c 0,21,22
 279 577 279 577 211 675 c 0,23,0
 167 737 167 737 167 820 c 128,-1,1
EndSplineSet
EndChar

StartChar: uni0428
Encoding: 1064 1064 264
Width: 1233
Flags: W
LayerCount: 2
Back
Fore
SplineSet
975 0 m 1,0,-1
 -31 0 l 1,1,-1
 259 1493 l 1,2,-1
 445 1493 l 1,3,-1
 188 170 l 1,4,-1
 412 170 l 1,5,-1
 669 1493 l 1,6,-1
 855 1493 l 1,7,-1
 598 170 l 1,8,-1
 822 170 l 1,9,-1
 1079 1493 l 1,10,-1
 1265 1493 l 1,11,-1
 975 0 l 1,0,-1
EndSplineSet
EndChar

StartChar: uni0429
Encoding: 1065 1065 265
Width: 1233
Flags: W
LayerCount: 2
Back
Fore
SplineSet
-54 0 m 1,0,-1
 236 1493 l 1,1,-1
 422 1493 l 1,2,-1
 165 170 l 1,3,-1
 389 170 l 1,4,-1
 646 1493 l 1,5,-1
 832 1493 l 1,6,-1
 575 170 l 1,7,-1
 799 170 l 1,8,-1
 1056 1493 l 1,9,-1
 1242 1493 l 1,10,-1
 985 170 l 1,11,-1
 1119 170 l 1,12,-1
 1024 -322 l 1,13,-1
 854 -322 l 1,14,-1
 916 0 l 1,15,-1
 -54 0 l 1,0,-1
EndSplineSet
EndChar

StartChar: uni042A
Encoding: 1066 1066 266
Width: 1233
Flags: W
LayerCount: 2
Back
Fore
SplineSet
382 166 m 1,0,-1
 520 166 l 2,1,2
 661 166 661 166 753.5 239.5 c 128,-1,3
 846 313 846 313 871.5 446 c 128,-1,4
 897 579 897 579 833 653 c 128,-1,5
 769 727 769 727 629 727 c 2,6,-1
 491 727 l 1,7,-1
 382 166 l 1,0,-1
148 0 m 1,8,-1
 405 1323 l 1,9,-1
 144 1323 l 1,10,-1
 177 1493 l 1,11,-1
 640 1493 l 1,12,-1
 523 893 l 1,13,-1
 661 893 l 2,14,15
 912 893 912 893 1019 780 c 128,-1,16
 1126 667 1126 667 1083 446 c 0,17,18
 1040 227 1040 227 889 113.5 c 128,-1,19
 738 0 738 0 488 0 c 2,20,-1
 148 0 l 1,8,-1
EndSplineSet
EndChar

StartChar: uni042B
Encoding: 1067 1067 267
Width: 1233
Flags: W
LayerCount: 2
Back
Fore
SplineSet
786 0 m 1,0,-1
 1076 1493 l 1,1,-1
 1279 1493 l 1,2,-1
 989 0 l 1,3,-1
 786 0 l 1,0,-1
154 166 m 1,4,-1
 245 166 l 2,5,6
 347 166 347 166 439 240 c 0,7,8
 510 296 510 296 540 446 c 0,9,10
 565 579 565 579 519 653 c 128,-1,11
 473 727 473 727 354 727 c 2,12,-1
 263 727 l 1,13,-1
 154 166 l 1,4,-1
-80 0 m 1,14,-1
 210 1493 l 1,15,-1
 412 1493 l 1,16,-1
 295 893 l 1,17,-1
 386 893 l 2,18,19
 580 893 580 893 687 780 c 128,-1,20
 794 667 794 667 751 446 c 0,21,22
 708 227 708 227 557 113.5 c 128,-1,23
 406 0 406 0 213 0 c 2,24,-1
 -80 0 l 1,14,-1
EndSplineSet
EndChar

StartChar: uni042C
Encoding: 1068 1068 268
Width: 1233
Flags: W
LayerCount: 2
Back
Fore
SplineSet
286 166 m 1,0,-1
 520 166 l 2,1,2
 661 166 661 166 753.5 239.5 c 128,-1,3
 846 313 846 313 871.5 446 c 128,-1,4
 897 579 897 579 833 653 c 128,-1,5
 769 727 769 727 629 727 c 2,6,-1
 395 727 l 1,7,-1
 286 166 l 1,0,-1
52 0 m 1,8,-1
 342 1493 l 1,9,-1
 544 1493 l 1,10,-1
 427 893 l 1,11,-1
 661 893 l 2,12,13
 912 893 912 893 1019 780 c 128,-1,14
 1126 667 1126 667 1083 446 c 0,15,16
 1040 227 1040 227 889 113.5 c 128,-1,17
 738 0 738 0 488 0 c 2,18,-1
 52 0 l 1,8,-1
EndSplineSet
EndChar

StartChar: uni042D
Encoding: 1069 1069 269
Width: 1233
Flags: W
LayerCount: 2
Back
Fore
SplineSet
318 -29 m 0,0,1
 142 -29 142 -29 4 53 c 1,2,-1
 45 260 l 1,3,4
 170 135 170 135 358.5 135 c 128,-1,5
 547 135 547 135 672 282 c 0,6,7
 796 430 796 430 846 661 c 1,8,-1
 214 661 l 1,9,-1
 247 831 l 1,10,-1
 874 831 l 1,11,12
 882 926 882 926 882 1033 c 128,-1,13
 882 1140 882 1140 853 1204 c 0,14,15
 785 1356 785 1356 597.5 1356 c 128,-1,16
 410 1356 410 1356 233 1231 c 1,17,-1
 274 1438 l 1,18,19
 444 1520 444 1520 620 1520 c 0,20,21
 905 1520 905 1520 1025 1316 c 0,22,23
 1100 1188 1100 1188 1100 996 c 0,24,25
 1100 881 1100 881 1073 744 c 0,26,27
 1001 377 1001 377 803 174 c 128,-1,28
 605 -29 605 -29 318 -29 c 0,0,1
EndSplineSet
EndChar

StartChar: uni042E
Encoding: 1070 1070 270
Width: 1233
Flags: W
LayerCount: 2
Back
Fore
SplineSet
1059 745 m 128,-1,1
 1123 1074 1123 1074 1103 1215 c 128,-1,2
 1083 1356 1083 1356 975 1356 c 0,3,4
 868 1356 868 1356 793.5 1215 c 128,-1,5
 719 1074 719 1074 655 745 c 0,6,7
 591 417 591 417 611 276 c 128,-1,8
 631 135 631 135 738 135 c 0,9,10
 846 135 846 135 920.5 275.5 c 128,-1,0
 995 416 995 416 1059 745 c 128,-1,1
365 836 m 1,11,-1
 476 836 l 1,12,13
 550 1159 550 1159 677.5 1339.5 c 128,-1,14
 805 1520 805 1520 1007 1520 c 256,15,16
 1209 1520 1209 1520 1270.5 1328 c 128,-1,17
 1332 1136 1332 1136 1256 745 c 0,18,19
 1181 355 1181 355 1044.5 163 c 128,-1,20
 908 -29 908 -29 706 -29 c 128,-1,21
 504 -29 504 -29 445.5 152 c 128,-1,22
 387 333 387 333 443 666 c 1,23,-1
 332 666 l 1,24,-1
 202 0 l 1,25,-1
 -1 0 l 1,26,-1
 290 1493 l 1,27,-1
 493 1493 l 1,28,-1
 365 836 l 1,11,-1
EndSplineSet
EndChar

StartChar: uni042F
Encoding: 1071 1071 271
Width: 1233
Flags: W
LayerCount: 2
Back
Fore
SplineSet
-69 0 m 1,0,-1
 429 666 l 1,1,2
 329 705 329 705 269 779.5 c 128,-1,3
 209 854 209 854 209 955 c 0,4,5
 209 1003 209 1003 220 1061 c 0,6,7
 261 1271 261 1271 413.5 1382 c 128,-1,8
 566 1493 566 1493 812 1493 c 2,9,-1
 1278 1493 l 1,10,-1
 988 0 l 1,11,-1
 785 0 l 1,12,-1
 908 631 l 1,13,-1
 618 631 l 1,14,-1
 145 0 l 1,15,-1
 -69 0 l 1,0,-1
425 985 m 0,16,17
 425 797 425 797 669 797 c 2,18,-1
 940 797 l 1,19,-1
 1043 1327 l 1,20,-1
 780 1327 l 2,21,22
 636 1327 636 1327 547 1258.5 c 128,-1,23
 458 1190 458 1190 433 1061 c 0,24,25
 425 1020 425 1020 425 985 c 0,16,17
EndSplineSet
EndChar

StartChar: uni0431
Encoding: 1073 1073 273
Width: 1233
Flags: W
LayerCount: 2
Back
Fore
SplineSet
858 559 m 0,0,1
 877 657 877 657 877 733 c 0,2,3
 877 991 877 991 657 991 c 0,4,5
 373 991 373 991 289 559 c 0,6,7
 270 463 270 463 270 380 c 128,-1,8
 270 297 270 297 309.5 212 c 128,-1,9
 349 127 349 127 489 127 c 0,10,11
 774 127 774 127 858 559 c 0,0,1
332 1024 m 1,12,13
 476 1147 476 1147 698 1147 c 128,-1,14
 920 1147 920 1147 996.5 1024 c 128,-1,15
 1073 901 1073 901 1073 751 c 0,16,17
 1073 664 1073 664 1053 558 c 0,18,19
 997 272 997 272 845 121.5 c 128,-1,20
 693 -29 693 -29 459.5 -29 c 128,-1,21
 226 -29 226 -29 148.5 95 c 128,-1,22
 71 219 71 219 71 363 c 0,23,24
 71 452 71 452 87 528 c 128,-1,25
 103 604 103 604 106 621 c 2,26,-1
 131 788 l 2,27,28
 161 978 161 978 170 1004 c 0,29,30
 219 1153 219 1153 269 1226 c 0,31,32
 396 1411 396 1411 580 1496 c 0,33,34
 721 1561 721 1561 1007 1573 c 0,35,36
 1058 1575 1058 1575 1096 1591 c 1,37,-1
 1139 1449 l 1,38,39
 1102 1436 1102 1436 1049 1431 c 2,40,-1
 805 1407 l 2,41,42
 705 1397 705 1397 622 1354 c 0,43,44
 402 1238 402 1238 352 1084 c 2,45,-1
 332 1024 l 1,12,13
EndSplineSet
EndChar

StartChar: uni0432
Encoding: 1074 1074 274
Width: 1233
Flags: W
LayerCount: 2
Back
Fore
SplineSet
318 1120 m 1,0,-1
 715 1120 l 2,1,2
 885 1120 885 1120 961.5 1051 c 128,-1,3
 1038 982 1038 982 1038 899 c 0,4,5
 1038 877 1038 877 1033 854 c 0,6,7
 989 628 989 628 790 600 c 1,8,9
 918 575 918 575 951.5 519.5 c 128,-1,10
 985 464 985 464 985 412 c 0,11,12
 985 194 985 194 827 84 c 0,13,14
 706 0 706 0 513 0 c 2,15,-1
 100 0 l 1,16,-1
 318 1120 l 1,0,-1
473 970 m 1,17,-1
 413 665 l 1,18,-1
 641 665 l 2,19,20
 726 665 726 665 776 708 c 0,21,22
 844 764 844 764 844 853 c 0,23,24
 844 896 844 896 815 933 c 128,-1,25
 786 970 786 970 700 970 c 2,26,-1
 473 970 l 1,17,-1
384 515 m 1,27,-1
 313 150 l 1,28,-1
 552 150 l 2,29,30
 647 150 647 150 708.5 206 c 128,-1,31
 770 262 770 262 780 314.5 c 128,-1,32
 790 367 790 367 790 401.5 c 128,-1,33
 790 436 790 436 762 475.5 c 128,-1,34
 734 515 734 515 627 515 c 2,35,-1
 384 515 l 1,27,-1
EndSplineSet
EndChar

StartChar: uni0433
Encoding: 1075 1075 275
Width: 1233
Flags: W
LayerCount: 2
Back
Fore
SplineSet
521 970 m 1,0,-1
 332 0 l 1,1,-1
 148 0 l 1,2,-1
 366 1120 l 1,3,-1
 1118 1120 l 1,4,-1
 1089 970 l 1,5,-1
 521 970 l 1,0,-1
EndSplineSet
EndChar

StartChar: uni0434
Encoding: 1076 1076 276
Width: 1233
Flags: W
LayerCount: 2
Back
Fore
SplineSet
-32 -286 m 1,0,-1
 53 150 l 1,1,-1
 120 150 l 2,2,3
 175 150 175 150 235 377 c 128,-1,4
 295 604 295 604 315 704 c 2,5,-1
 396 1120 l 1,6,-1
 1144 1120 l 1,7,-1
 955 150 l 1,8,-1
 1076 150 l 1,9,-1
 991 -286 l 1,10,-1
 841 -286 l 1,11,-1
 897 0 l 1,12,-1
 174 0 l 1,13,-1
 118 -286 l 1,14,-1
 -32 -286 l 1,0,-1
350 161 m 128,-1,16
 350 150 350 150 382 150 c 2,17,-1
 770 150 l 1,18,-1
 929 970 l 1,19,-1
 549 970 l 1,20,-1
 497 700 l 2,21,22
 478 600 478 600 410 353 c 0,23,24
 374 209 374 209 362 190.5 c 128,-1,15
 350 172 350 172 350 161 c 128,-1,16
EndSplineSet
EndChar

StartChar: uni0436
Encoding: 1078 1078 278
Width: 1233
Flags: W
LayerCount: 2
Back
Fore
SplineSet
-50 0 m 1,0,-1
 348 716 l 1,1,-1
 188 1120 l 1,2,-1
 387 1120 l 1,3,-1
 558 688 l 1,4,-1
 642 1120 l 1,5,-1
 810 1120 l 1,6,-1
 726 688 l 1,7,-1
 1065 1120 l 1,8,-1
 1264 1120 l 1,9,-1
 946 716 l 1,10,-1
 1066 0 l 1,11,-1
 887 0 l 1,12,-1
 799 528 l 1,13,-1
 660 351 l 1,14,-1
 592 0 l 1,15,-1
 424 0 l 1,16,-1
 492 351 l 1,17,-1
 423 528 l 1,18,-1
 129 0 l 1,19,-1
 -50 0 l 1,0,-1
EndSplineSet
EndChar

StartChar: uni0437
Encoding: 1079 1079 279
Width: 1233
Flags: W
LayerCount: 2
Back
Fore
SplineSet
792 607 m 5,0,1
 919 584 919 584 979 510 c 260,2,3
 1039 436 1039 436 1018 327 c 4,4,5
 986 161 986 161 829 69 c 4,6,7
 673 -22 673 -22 418 -22 c 4,8,9
 333 -22 333 -22 245 -8 c 132,-1,10
 157 6 157 6 66 34 c 5,11,-1
 100 207 l 5,12,13
 169 173 169 173 257 156 c 4,14,15
 344 138 344 138 444 138 c 4,16,17
 617 138 617 138 718 190 c 4,18,19
 819 243 819 243 838 341 c 4,20,21
 854 422 854 422 779 477 c 4,22,23
 706 532 706 532 556 532 c 6,24,-1
 398 532 l 5,25,-1
 426 676 l 5,26,-1
 591 676 l 6,27,28
 727 676 727 676 808 720 c 4,29,30
 888 763 888 763 900 824 c 4,31,32
 914 898 914 898 849 941 c 4,33,34
 782 984 782 984 644 984 c 4,35,36
 569 984 569 984 480 972 c 4,37,38
 391 959 391 959 282 932 c 5,39,-1
 314 1099 l 5,40,41
 424 1123 424 1123 517 1135 c 4,42,43
 612 1147 612 1147 692 1147 c 4,44,45
 902 1147 902 1147 1008.5 1068 c 132,-1,46
 1115 989 1115 989 1089 855 c 4,47,48
 1071 761 1071 761 993 697 c 4,49,50
 916 632 916 632 792 607 c 5,0,1
EndSplineSet
EndChar

StartChar: uni0438
Encoding: 1080 1080 280
Width: 1233
Flags: W
LayerCount: 2
Back
Fore
SplineSet
914 809 m 1,0,-1
 270 0 l 1,1,-1
 86 0 l 1,2,-1
 304 1120 l 1,3,-1
 488 1120 l 1,4,-1
 331 311 l 1,5,-1
 975 1120 l 1,6,-1
 1159 1120 l 1,7,-1
 941 0 l 1,8,-1
 757 0 l 1,9,-1
 914 809 l 1,0,-1
EndSplineSet
EndChar

StartChar: uni0439
Encoding: 1081 1081 281
Width: 1233
Flags: W
LayerCount: 2
Back
Fore
SplineSet
472 1608 m 5
 592 1608 l 5
 592 1591 l 6
 592 1526 592 1526 635.5 1492 c 4
 679 1458 679 1458 764 1458 c 4
 844 1458 844 1458 897 1495 c 4
 950 1532 950 1532 979 1608 c 5
 1098 1608 l 5
 1066 1467 1066 1467 976.5 1394 c 4
 887 1321 887 1321 748 1321 c 4
 614 1321 614 1321 541.5 1385 c 4
 469 1449 469 1449 469 1567 c 4
 469 1584 469 1584 469.5 1592 c 4
 470 1600 470 1600 472 1608 c 5
EndSplineSet
Refer: 280 1080 N 1 0 0 1 0 0 3
EndChar

StartChar: uni043A
Encoding: 1082 1082 282
Width: 1233
Flags: W
LayerCount: 2
Back
Fore
SplineSet
345 1120 m 5,0,-1
 535 1120 l 5,1,-1
 444 655 l 5,2,-1
 1018 1120 l 5,3,-1
 1242 1120 l 5,4,-1
 719 698 l 5,5,-1
 1093 0 l 5,6,-1
 868 0 l 5,7,-1
 566 578 l 5,8,-1
 404 449 l 5,9,-1
 317 0 l 5,10,-1
 127 0 l 5,11,-1
 345 1120 l 5,0,-1
EndSplineSet
EndChar

StartChar: uni043B
Encoding: 1083 1083 283
Width: 1233
Flags: W
LayerCount: 2
Back
Fore
SplineSet
374 1120 m 1,0,-1
 1159 1120 l 1,1,-1
 941 0 l 1,2,-1
 757 0 l 1,3,-1
 946 970 l 1,4,-1
 529 970 l 1,5,-1
 481 725 l 2,6,7
 444 536 444 536 401 384.5 c 128,-1,8
 358 233 358 233 252 106 c 0,9,10
 162 0 162 0 -24 0 c 2,11,-1
 -79 0 l 1,12,-1
 -50 150 l 1,13,-1
 -15 150 l 2,14,15
 70 150 70 150 128.5 209 c 128,-1,16
 187 268 187 268 225 408 c 128,-1,17
 263 548 263 548 296 722 c 2,18,-1
 374 1120 l 1,0,-1
EndSplineSet
EndChar

StartChar: uni043C
Encoding: 1084 1084 284
Width: 1233
Flags: W
LayerCount: 2
Back
Fore
SplineSet
595 429 m 1,0,-1
 1104 1120 l 1,1,-1
 1288 1120 l 1,2,-1
 1070 0 l 1,3,-1
 886 0 l 1,4,-1
 1030 741 l 1,5,-1
 654 260 l 1,6,-1
 470 260 l 1,7,-1
 280 741 l 1,8,-1
 136 0 l 1,9,-1
 -48 0 l 1,10,-1
 170 1120 l 1,11,-1
 354 1120 l 1,12,-1
 595 429 l 1,0,-1
EndSplineSet
EndChar

StartChar: uni043D
Encoding: 1085 1085 285
Width: 1233
Flags: W
LayerCount: 2
Back
Fore
SplineSet
857 515 m 1,0,-1
 370 515 l 1,1,-1
 270 0 l 1,2,-1
 86 0 l 1,3,-1
 304 1120 l 1,4,-1
 488 1120 l 1,5,-1
 399 665 l 1,6,-1
 886 665 l 1,7,-1
 975 1120 l 1,8,-1
 1159 1120 l 1,9,-1
 941 0 l 1,10,-1
 757 0 l 1,11,-1
 857 515 l 1,0,-1
EndSplineSet
EndChar

StartChar: uni043F
Encoding: 1087 1087 287
Width: 1233
Flags: W
LayerCount: 2
Back
Fore
SplineSet
946 970 m 1,0,-1
 459 970 l 1,1,-1
 270 0 l 1,2,-1
 86 0 l 1,3,-1
 304 1120 l 1,4,-1
 1159 1120 l 1,5,-1
 941 0 l 1,6,-1
 757 0 l 1,7,-1
 946 970 l 1,0,-1
EndSplineSet
EndChar

StartChar: uni0442
Encoding: 1090 1090 290
Width: 1233
Flags: W
LayerCount: 2
Back
Fore
SplineSet
800 970 m 1,0,-1
 611 0 l 1,1,-1
 427 0 l 1,2,-1
 616 970 l 1,3,-1
 305 970 l 1,4,-1
 334 1120 l 1,5,-1
 1140 1120 l 1,6,-1
 1111 970 l 1,7,-1
 800 970 l 1,0,-1
EndSplineSet
EndChar

StartChar: uni0444
Encoding: 1092 1092 292
Width: 1233
Flags: W
LayerCount: 2
Back
Fore
SplineSet
601 982 m 1,0,1
 476 957 476 957 408 880.5 c 128,-1,2
 340 804 340 804 303 613 c 128,-1,3
 266 422 266 422 266 345.5 c 128,-1,4
 266 269 266 269 293 210.5 c 128,-1,5
 320 152 320 152 435 127 c 1,6,-1
 601 982 l 1,0,1
405 -29 m 1,7,8
 189 -7 189 -7 131 97.5 c 128,-1,9
 73 202 73 202 73 315 c 128,-1,10
 73 428 73 428 114.5 643 c 128,-1,11
 156 858 156 858 281.5 991.5 c 128,-1,12
 407 1125 407 1125 633 1147 c 1,13,-1
 713 1556 l 1,14,-1
 897 1556 l 1,15,-1
 817 1147 l 1,16,17
 1035 1125 1035 1125 1092.5 1021 c 128,-1,18
 1150 917 1150 917 1150 804 c 128,-1,19
 1150 691 1150 691 1108 475.5 c 128,-1,20
 1066 260 1066 260 939.5 126.5 c 128,-1,21
 813 -7 813 -7 589 -29 c 1,22,-1
 511 -426 l 1,23,-1
 327 -426 l 1,24,-1
 405 -29 l 1,7,8
785 982 m 1,25,-1
 619 127 l 1,26,27
 744 152 744 152 812.5 233 c 128,-1,28
 881 314 881 314 918 504.5 c 128,-1,29
 955 695 955 695 955 770.5 c 128,-1,30
 955 846 955 846 927.5 901.5 c 128,-1,31
 900 957 900 957 785 982 c 1,25,-1
EndSplineSet
EndChar

StartChar: uni0446
Encoding: 1094 1094 294
Width: 1233
Flags: W
LayerCount: 2
Back
Fore
SplineSet
43 0 m 1,0,-1
 261 1120 l 1,1,-1
 445 1120 l 1,2,-1
 256 150 l 1,3,-1
 742 150 l 1,4,-1
 931 1120 l 1,5,-1
 1115 1120 l 1,6,-1
 926 150 l 1,7,-1
 1066 150 l 1,8,-1
 981 -286 l 1,9,-1
 831 -286 l 1,10,-1
 887 0 l 1,11,-1
 43 0 l 1,0,-1
EndSplineSet
EndChar

StartChar: uni0447
Encoding: 1095 1095 295
Width: 1233
Flags: W
LayerCount: 2
Back
Fore
SplineSet
221 649 m 0,0,1
 221 697 221 697 233 755 c 2,2,-1
 304 1122 l 1,3,-1
 488 1122 l 1,4,-1
 417 755 l 2,5,6
 411 725 411 725 411 699 c 0,7,8
 411 562 411 562 596 562 c 0,9,10
 684 562 684 562 743 572 c 128,-1,11
 802 582 802 582 879 621 c 1,12,-1
 976 1122 l 1,13,-1
 1160 1122 l 1,14,-1
 942 0 l 1,15,-1
 758 0 l 1,16,-1
 849 466 l 1,17,18
 791 445 791 445 717 423.5 c 128,-1,19
 643 402 643 402 504 402 c 0,20,21
 364 402 364 402 280 484 c 0,22,23
 221 540 221 540 221 649 c 0,0,1
EndSplineSet
EndChar

StartChar: uni0448
Encoding: 1096 1096 296
Width: 1233
Flags: W
LayerCount: 2
Back
Fore
SplineSet
1000 0 m 1,0,-1
 16 0 l 1,1,-1
 234 1120 l 1,2,-1
 402 1120 l 1,3,-1
 213 150 l 1,4,-1
 453 150 l 1,5,-1
 642 1120 l 1,6,-1
 810 1120 l 1,7,-1
 621 150 l 1,8,-1
 861 150 l 1,9,-1
 1050 1120 l 1,10,-1
 1218 1120 l 1,11,-1
 1000 0 l 1,0,-1
EndSplineSet
EndChar

StartChar: uni0449
Encoding: 1097 1097 297
Width: 1233
Flags: W
LayerCount: 2
Back
Fore
SplineSet
-1 0 m 1,0,-1
 217 1120 l 1,1,-1
 385 1120 l 1,2,-1
 196 150 l 1,3,-1
 436 150 l 1,4,-1
 625 1120 l 1,5,-1
 793 1120 l 1,6,-1
 604 150 l 1,7,-1
 844 150 l 1,8,-1
 1033 1120 l 1,9,-1
 1201 1120 l 1,10,-1
 1012 150 l 1,11,-1
 1156 150 l 1,12,-1
 1071 -286 l 1,13,-1
 921 -286 l 1,14,-1
 977 0 l 1,15,-1
 -1 0 l 1,0,-1
EndSplineSet
EndChar

StartChar: uni044A
Encoding: 1098 1098 298
Width: 1233
Flags: W
LayerCount: 2
Back
Fore
SplineSet
139 1120 m 1,0,-1
 571 1120 l 1,1,-1
 483 667 l 1,2,-1
 739 667 l 2,3,4
 948 667 948 667 1037.5 593.5 c 128,-1,5
 1127 520 1127 520 1127 408 c 0,6,7
 1127 373 1127 373 1107 268.5 c 128,-1,8
 1087 164 1087 164 955 82 c 128,-1,9
 823 0 823 0 609 0 c 2,10,-1
 169 0 l 1,11,-1
 358 970 l 1,12,-1
 110 970 l 1,13,-1
 139 1120 l 1,0,-1
631 153 m 2,14,15
 889 153 889 153 924 334 c 0,16,17
 928 356 928 356 928 374 c 0,18,19
 928 514 928 514 701 514 c 2,20,-1
 453 514 l 1,21,-1
 383 153 l 1,22,-1
 631 153 l 2,14,15
EndSplineSet
EndChar

StartChar: uni044B
Encoding: 1099 1099 299
Width: 1233
Flags: W
LayerCount: 2
Back
Fore
SplineSet
268 0 m 2,0,-1
 -5 0 l 1,1,-1
 213 1120 l 1,2,-1
 395 1120 l 1,3,-1
 307 667 l 1,4,-1
 398 667 l 2,5,6
 607 667 607 667 709 584 c 0,7,8
 786 520 786 520 786 408 c 0,9,10
 786 373 786 373 778 332 c 0,11,12
 746 164 746 164 614 82 c 128,-1,13
 482 0 482 0 268 0 c 2,0,-1
290 153 m 2,14,15
 548 153 548 153 583 334 c 0,16,17
 587 356 587 356 587 374 c 0,18,19
 587 514 587 514 360 514 c 2,20,-1
 277 514 l 1,21,-1
 207 153 l 1,22,-1
 290 153 l 2,14,15
1238 1120 m 1,23,-1
 1020 0 l 1,24,-1
 836 0 l 1,25,-1
 1054 1120 l 1,26,-1
 1238 1120 l 1,23,-1
EndSplineSet
EndChar

StartChar: uni044C
Encoding: 1100 1100 300
Width: 1233
Flags: W
LayerCount: 2
Back
Fore
SplineSet
302 153 m 1,0,-1
 550 153 l 2,1,2
 680 153 680 153 752.5 197.5 c 128,-1,3
 825 242 825 242 842 332 c 0,4,5
 860 426 860 426 804 470 c 128,-1,6
 748 514 748 514 621 514 c 2,7,-1
 373 514 l 1,8,-1
 302 153 l 1,0,-1
89 0 m 1,9,-1
 306 1120 l 1,10,-1
 490 1120 l 1,11,-1
 402 667 l 1,12,-1
 658 667 l 2,13,14
 867 667 867 667 969 583.5 c 128,-1,15
 1071 500 1071 500 1038.5 332 c 128,-1,16
 1006 164 1006 164 874.5 82 c 128,-1,17
 743 0 743 0 529 0 c 2,18,-1
 89 0 l 1,9,-1
EndSplineSet
EndChar

StartChar: uni044D
Encoding: 1101 1101 301
Width: 1233
Flags: W
LayerCount: 2
Back
Fore
SplineSet
97 57 m 1,0,-1
 135 248 l 1,1,2
 238 127 238 127 417 127 c 128,-1,3
 596 127 596 127 705 233.5 c 128,-1,4
 814 340 814 340 858 516 c 1,5,-1
 316 516 l 1,6,-1
 344 660 l 1,7,-1
 881 660 l 1,8,9
 882 679 882 679 882 697 c 0,10,11
 882 808 882 808 836 879 c 0,12,13
 764 991 764 991 590.5 991 c 128,-1,14
 417 991 417 991 255 868 c 1,15,-1
 293 1061 l 1,16,17
 462 1147 462 1147 622 1147 c 0,18,19
 882 1147 882 1147 998 991 c 0,20,21
 1078 884 1078 884 1078 721 c 0,22,23
 1078 646 1078 646 1061 559 c 0,24,25
 1007 283 1007 283 830.5 127 c 128,-1,26
 654 -29 654 -29 394 -29 c 0,27,28
 229 -29 229 -29 97 57 c 1,0,-1
EndSplineSet
EndChar

StartChar: uni044E
Encoding: 1102 1102 302
Width: 1233
Flags: W
LayerCount: 2
Back
Fore
SplineSet
863 252 m 128,-1,1
 938 377 938 377 976 575 c 0,2,3
 997 679 997 679 997 754.5 c 128,-1,4
 997 830 997 830 980 882 c 0,5,6
 945 990 945 990 869 990 c 128,-1,7
 793 990 793 990 712.5 868 c 128,-1,8
 632 746 632 746 595 553 c 0,9,10
 574 446 574 446 574 370.5 c 128,-1,11
 574 295 574 295 596 211 c 128,-1,12
 618 127 618 127 703 127 c 128,-1,0
 788 127 788 127 863 252 c 128,-1,1
277 634 m 1,13,-1
 419 634 l 1,14,15
 485 890 485 890 615 1018.5 c 128,-1,16
 745 1147 745 1147 902 1147 c 128,-1,17
 1059 1147 1059 1147 1125 1031 c 128,-1,18
 1191 915 1191 915 1191 796.5 c 128,-1,19
 1191 678 1191 678 1149.5 465 c 128,-1,20
 1108 252 1108 252 966 111.5 c 128,-1,21
 824 -29 824 -29 670.5 -29 c 128,-1,22
 517 -29 517 -29 438 109 c 0,23,24
 381 209 381 209 381 361 c 0,25,26
 381 419 381 419 389 484 c 1,27,-1
 247 484 l 1,28,-1
 153 0 l 1,29,-1
 -31 0 l 1,30,-1
 187 1120 l 1,31,-1
 371 1120 l 1,32,-1
 277 634 l 1,13,-1
EndSplineSet
EndChar

StartChar: uni044F
Encoding: 1103 1103 303
Width: 1233
Flags: W
LayerCount: 2
Back
Fore
SplineSet
59 0 m 1,0,-1
 424 479 l 1,1,2
 376 501 376 501 314.5 556 c 128,-1,3
 253 611 253 611 253 704 c 0,4,5
 253 746 253 746 263 798 c 0,6,7
 296 966 296 966 421 1043 c 128,-1,8
 546 1120 546 1120 696 1120 c 2,9,-1
 1093 1120 l 1,10,-1
 875 0 l 1,11,-1
 691 0 l 1,12,-1
 780 455 l 1,13,-1
 587 455 l 1,14,-1
 240 0 l 1,15,-1
 59 0 l 1,0,-1
442 737 m 0,16,17
 442 678 442 678 484 641.5 c 128,-1,18
 526 605 526 605 581 605 c 2,19,-1
 809 605 l 1,20,-1
 880 970 l 1,21,-1
 653 970 l 2,22,23
 597 970 597 970 531.5 927 c 128,-1,24
 466 884 466 884 447 787 c 0,25,26
 442 760 442 760 442 737 c 0,16,17
EndSplineSet
EndChar

StartChar: uni1D16
Encoding: 7446 7446 305
Width: 1233
Flags: W
LayerCount: 2
Back
Fore
SplineSet
246 559 m 1,0,1
 301 845 301 845 453.5 996 c 128,-1,2
 606 1147 606 1147 839 1147 c 128,-1,3
 1072 1147 1072 1147 1166 996 c 128,-1,4
 1260 845 1260 845 1205 559 c 1,5,-1
 1010 559 l 1,6,7
 1051 773 1051 773 1000.5 882 c 128,-1,8
 950 991 950 991 809 991 c 0,9,10
 669 991 669 991 575.5 882 c 128,-1,11
 482 773 482 773 441 559 c 1,12,-1
 246 559 l 1,0,1
EndSplineSet
EndChar

StartChar: uni1D17
Encoding: 7447 7447 306
Width: 1233
Flags: W
LayerCount: 2
Back
Fore
SplineSet
1204 559 m 1,0,1
 1148 273 1148 273 995.5 122 c 128,-1,2
 843 -29 843 -29 610 -29 c 128,-1,3
 377 -29 377 -29 283 122 c 128,-1,4
 189 273 189 273 245 559 c 1,5,-1
 440 559 l 1,6,7
 398 345 398 345 449 236 c 128,-1,8
 500 127 500 127 641 127 c 0,9,10
 781 127 781 127 874 236 c 128,-1,11
 967 345 967 345 1009 559 c 1,12,-1
 1204 559 l 1,0,1
EndSplineSet
EndChar

StartChar: uni1D2C
Encoding: 7468 7468 307
Width: 1233
Flags: W
LayerCount: 2
Back
Fore
SplineSet
678 1404 m 1,0,-1
 461 977 l 1,1,-1
 729 977 l 1,2,-1
 678 1404 l 1,0,-1
621 1504 m 1,3,-1
 775 1504 l 1,4,-1
 901 668 l 1,5,-1
 769 668 l 1,6,-1
 743 886 l 1,7,-1
 413 886 l 1,8,-1
 303 668 l 1,9,-1
 171 668 l 1,10,-1
 621 1504 l 1,3,-1
EndSplineSet
EndChar

StartChar: uni1D2E
Encoding: 7470 7470 308
Width: 1233
Flags: W
LayerCount: 2
Back
Fore
SplineSet
434 1067 m 1,0,-1
 375 761 l 1,1,-1
 526 761 l 2,2,3
 637 761 637 761 690.5 795.5 c 128,-1,4
 744 830 744 830 760 909 c 0,5,6
 764 931 764 931 764 951 c 0,7,8
 764 1001 764 1001 727.5 1034 c 128,-1,9
 691 1067 691 1067 585 1067 c 2,10,-1
 434 1067 l 1,0,-1
501 1411 m 1,11,-1
 452 1159 l 1,12,-1
 601 1159 l 2,13,14
 692 1159 692 1159 739.5 1190.5 c 128,-1,15
 787 1222 787 1222 801 1292 c 0,16,17
 804 1308 804 1308 804 1322 c 0,18,19
 804 1362 804 1362 773.5 1386.5 c 128,-1,20
 743 1411 743 1411 650 1411 c 2,21,-1
 501 1411 l 1,11,-1
392 1504 m 1,22,-1
 670 1504 l 2,23,24
 814 1504 814 1504 874.5 1455 c 128,-1,25
 935 1406 935 1406 935 1336 c 0,26,27
 935 1315 935 1315 930 1292 c 0,28,29
 915 1215 915 1215 865 1171 c 128,-1,30
 815 1127 815 1127 730 1115 c 1,31,32
 820 1103 820 1103 855 1054 c 128,-1,33
 890 1005 890 1005 890 949 c 0,34,35
 890 925 890 925 885 898 c 0,36,37
 863 784 863 784 768.5 726 c 128,-1,38
 674 668 674 668 508 668 c 2,39,-1
 230 668 l 1,40,-1
 392 1504 l 1,22,-1
EndSplineSet
EndChar

StartChar: uni1D30
Encoding: 7472 7472 309
Width: 1233
Flags: W
LayerCount: 2
Back
Fore
SplineSet
437 761 m 2,0,1
 597 761 597 761 674.5 831.5 c 128,-1,2
 752 902 752 902 788 1085 c 0,3,4
 803 1163 803 1163 803 1220 c 0,5,6
 803 1300 803 1300 763.5 1355.5 c 128,-1,7
 724 1411 724 1411 563 1411 c 2,8,-1
 502 1411 l 1,9,-1
 376 761 l 1,10,-1
 437 761 l 2,0,1
583 1504 m 2,11,12
 799 1504 799 1504 867.5 1419 c 128,-1,13
 936 1334 936 1334 936 1217 c 0,14,15
 936 1158 936 1158 922 1085 c 0,16,17
 880 871 880 871 758.5 769.5 c 128,-1,18
 637 668 637 668 421 668 c 2,19,-1
 230 668 l 1,20,-1
 392 1504 l 1,21,-1
 583 1504 l 2,11,12
EndSplineSet
EndChar

StartChar: uni1D31
Encoding: 7473 7473 310
Width: 1233
Flags: W
LayerCount: 2
Back
Fore
SplineSet
413 1504 m 1,0,-1
 971 1504 l 1,1,-1
 953 1409 l 1,2,-1
 521 1409 l 1,3,-1
 473 1161 l 1,4,-1
 885 1161 l 1,5,-1
 866 1066 l 1,6,-1
 454 1066 l 1,7,-1
 395 763 l 1,8,-1
 839 763 l 1,9,-1
 821 668 l 1,10,-1
 251 668 l 1,11,-1
 413 1504 l 1,0,-1
EndSplineSet
EndChar

StartChar: uni1D32
Encoding: 7474 7474 311
Width: 1233
Flags: W
LayerCount: 2
Back
Fore
SplineSet
821 668 m 1,0,-1
 251 668 l 1,1,-1
 269 763 l 1,2,-1
 711 763 l 1,3,-1
 770 1066 l 1,4,-1
 358 1066 l 1,5,-1
 377 1161 l 1,6,-1
 789 1161 l 1,7,-1
 837 1409 l 1,8,-1
 407 1409 l 1,9,-1
 425 1504 l 1,10,-1
 983 1504 l 1,11,-1
 821 668 l 1,0,-1
EndSplineSet
EndChar

StartChar: uni1D33
Encoding: 7475 7475 312
Width: 1233
Flags: W
LayerCount: 2
Back
Fore
SplineSet
864 737 m 1,0,1
 804 695 804 695 737 673.5 c 128,-1,2
 670 652 670 652 594 652 c 0,3,4
 416 652 416 652 351 746.5 c 128,-1,5
 286 841 286 841 286 956 c 0,6,7
 286 1016 286 1016 300 1085 c 0,8,9
 340 1290 340 1290 463 1404.5 c 128,-1,10
 586 1519 586 1519 766 1519 c 0,11,12
 826 1519 826 1519 877.5 1504.5 c 128,-1,13
 929 1490 929 1490 973 1459 c 1,14,-1
 950 1343 l 1,15,16
 906 1386 906 1386 857 1406.5 c 128,-1,17
 808 1427 808 1427 748 1427 c 0,18,19
 624 1427 624 1427 545.5 1342 c 128,-1,20
 467 1257 467 1257 434 1085 c 0,21,22
 419 1009 419 1009 419 951 c 0,23,24
 419 875 419 875 453.5 809.5 c 128,-1,25
 488 744 488 744 612 744 c 0,26,27
 654 744 654 744 687.5 752.5 c 128,-1,28
 721 761 721 761 750 779 c 1,29,-1
 794 1004 l 1,30,-1
 658 1004 l 1,31,-1
 676 1097 l 1,32,-1
 934 1097 l 1,33,-1
 864 737 l 1,0,1
EndSplineSet
EndChar

StartChar: uni1D34
Encoding: 7476 7476 313
Width: 1233
Flags: W
LayerCount: 2
Back
Fore
SplineSet
395 1504 m 1,0,-1
 523 1504 l 1,1,-1
 457 1161 l 1,2,-1
 807 1161 l 1,3,-1
 873 1504 l 1,4,-1
 999 1504 l 1,5,-1
 837 668 l 1,6,-1
 711 668 l 1,7,-1
 788 1066 l 1,8,-1
 438 1066 l 1,9,-1
 361 668 l 1,10,-1
 233 668 l 1,11,-1
 395 1504 l 1,0,-1
EndSplineSet
EndChar

StartChar: uni1D35
Encoding: 7477 7477 314
Width: 1233
Flags: W
LayerCount: 2
Back
Fore
SplineSet
437 1504 m 1,0,-1
 959 1504 l 1,1,-1
 941 1409 l 1,2,-1
 743 1409 l 1,3,-1
 617 763 l 1,4,-1
 815 763 l 1,5,-1
 797 668 l 1,6,-1
 275 668 l 1,7,-1
 293 763 l 1,8,-1
 489 763 l 1,9,-1
 615 1409 l 1,10,-1
 419 1409 l 1,11,-1
 437 1504 l 1,0,-1
EndSplineSet
EndChar

StartChar: uni1D36
Encoding: 7478 7478 315
Width: 1233
Flags: W
LayerCount: 2
Back
Fore
SplineSet
277 702 m 1,0,-1
 303 834 l 1,1,2
 351 789 351 789 407.5 766.5 c 128,-1,3
 464 744 464 744 530 744 c 0,4,5
 620 744 620 744 663.5 785.5 c 128,-1,6
 707 827 707 827 729 941 c 2,7,-1
 820 1409 l 1,8,-1
 580 1409 l 1,9,-1
 599 1504 l 1,10,-1
 966 1504 l 1,11,-1
 856 941 l 2,12,13
 826 783 826 783 746.5 717.5 c 128,-1,14
 667 652 667 652 512 652 c 0,15,16
 451 652 451 652 394 664 c 128,-1,17
 337 676 337 676 277 702 c 1,0,-1
EndSplineSet
EndChar

StartChar: uni1D37
Encoding: 7479 7479 316
Width: 1233
Flags: W
LayerCount: 2
Back
Fore
SplineSet
355 1504 m 1,0,-1
 483 1504 l 1,1,-1
 411 1132 l 1,2,-1
 881 1504 l 1,3,-1
 1029 1504 l 1,4,-1
 597 1162 l 1,5,-1
 879 668 l 1,6,-1
 725 668 l 1,7,-1
 498 1087 l 1,8,-1
 384 995 l 1,9,-1
 321 668 l 1,10,-1
 193 668 l 1,11,-1
 355 1504 l 1,0,-1
EndSplineSet
EndChar

StartChar: uni1D38
Encoding: 7480 7480 317
Width: 1233
Flags: W
LayerCount: 2
Back
Fore
SplineSet
406 1504 m 1,0,-1
 534 1504 l 1,1,-1
 390 763 l 1,2,-1
 845 763 l 1,3,-1
 827 668 l 1,4,-1
 244 668 l 1,5,-1
 406 1504 l 1,0,-1
EndSplineSet
EndChar

StartChar: uni1D39
Encoding: 7481 7481 318
Width: 1233
Flags: W
LayerCount: 2
Back
Fore
SplineSet
364 1504 m 1,0,-1
 534 1504 l 1,1,-1
 614 1078 l 1,2,-1
 861 1504 l 1,3,-1
 1031 1504 l 1,4,-1
 869 668 l 1,5,-1
 752 668 l 1,6,-1
 895 1407 l 1,7,-1
 642 966 l 1,8,-1
 546 966 l 1,9,-1
 462 1407 l 1,10,-1
 319 668 l 1,11,-1
 202 668 l 1,12,-1
 364 1504 l 1,0,-1
EndSplineSet
EndChar

StartChar: uni1D3A
Encoding: 7482 7482 319
Width: 1233
Flags: W
LayerCount: 2
Back
Fore
SplineSet
397 1504 m 1,0,-1
 558 1504 l 1,1,-1
 742 816 l 1,2,-1
 875 1504 l 1,3,-1
 998 1504 l 1,4,-1
 836 668 l 1,5,-1
 675 668 l 1,6,-1
 490 1356 l 1,7,-1
 357 668 l 1,8,-1
 235 668 l 1,9,-1
 397 1504 l 1,0,-1
EndSplineSet
EndChar

StartChar: uni1D3C
Encoding: 7484 7484 320
Width: 1233
Flags: W
LayerCount: 2
Back
Fore
SplineSet
798 1085 m 0,0,1
 818 1189 818 1189 818 1260 c 0,2,3
 818 1314 818 1314 798.5 1370.5 c 128,-1,4
 779 1427 779 1427 682 1427 c 0,5,6
 586 1427 586 1427 528.5 1348 c 128,-1,7
 471 1269 471 1269 435 1085 c 0,8,9
 415 981 415 981 415 911 c 0,10,11
 415 857 415 857 434.5 800.5 c 128,-1,12
 454 744 454 744 550 744 c 0,13,14
 647 744 647 744 704.5 822.5 c 128,-1,15
 762 901 762 901 798 1085 c 0,0,1
931 1085 m 0,16,17
 889 867 889 867 790 759.5 c 128,-1,18
 691 652 691 652 532 652 c 128,-1,19
 373 652 373 652 328.5 736 c 128,-1,20
 284 820 284 820 284 917 c 0,21,22
 284 991 284 991 302 1085 c 0,23,24
 344 1304 344 1304 442.5 1411.5 c 128,-1,25
 541 1519 541 1519 700 1519 c 128,-1,26
 859 1519 859 1519 904 1434.5 c 128,-1,27
 949 1350 949 1350 949 1251 c 0,28,29
 949 1178 949 1178 931 1085 c 0,16,17
EndSplineSet
EndChar

StartChar: uni1D3E
Encoding: 7486 7486 321
Width: 1233
Flags: W
LayerCount: 2
Back
Fore
SplineSet
509 1411 m 1,0,-1
 448 1097 l 1,1,-1
 596 1097 l 2,2,3
 684 1097 684 1097 741.5 1138.5 c 128,-1,4
 799 1180 799 1180 814 1254 c 0,5,6
 818 1273 818 1273 818 1290 c 0,7,8
 818 1339 818 1339 782 1375 c 128,-1,9
 746 1411 746 1411 657 1411 c 2,10,-1
 509 1411 l 1,0,-1
400 1504 m 1,11,-1
 675 1504 l 2,12,13
 832 1504 832 1504 892.5 1448.5 c 128,-1,14
 953 1393 953 1393 953 1313 c 0,15,16
 953 1286 953 1286 947 1254 c 0,17,18
 923 1131 923 1131 829.5 1067.5 c 128,-1,19
 736 1004 736 1004 578 1004 c 2,20,-1
 430 1004 l 1,21,-1
 365 668 l 1,22,-1
 238 668 l 1,23,-1
 400 1504 l 1,11,-1
EndSplineSet
EndChar

StartChar: uni1D3F
Encoding: 7487 7487 322
Width: 1233
Flags: W
LayerCount: 2
Back
Fore
SplineSet
658 1063 m 1,0,1
 704 1052 704 1052 732.5 1020.5 c 128,-1,2
 761 989 761 989 795 896 c 2,3,-1
 879 668 l 1,4,-1
 742 668 l 1,5,-1
 671 879 l 2,6,7
 639 969 639 969 605.5 995 c 128,-1,8
 572 1021 572 1021 510 1021 c 2,9,-1
 388 1021 l 1,10,-1
 320 668 l 1,11,-1
 192 668 l 1,12,-1
 354 1504 l 1,13,-1
 616 1504 l 2,14,15
 771 1504 771 1504 833 1449.5 c 128,-1,16
 895 1395 895 1395 895 1317 c 0,17,18
 895 1291 895 1291 889 1262 c 0,19,20
 873 1179 873 1179 812.5 1127 c 128,-1,21
 752 1075 752 1075 658 1063 c 1,0,1
464 1411 m 1,22,-1
 406 1114 l 1,23,-1
 545 1114 l 2,24,25
 637 1114 637 1114 689 1150.5 c 128,-1,26
 741 1187 741 1187 755 1262 c 0,27,28
 759 1281 759 1281 759 1297 c 0,29,30
 759 1344 759 1344 724 1377.5 c 128,-1,31
 689 1411 689 1411 598 1411 c 2,32,-1
 464 1411 l 1,22,-1
EndSplineSet
EndChar

StartChar: uni1D40
Encoding: 7488 7488 323
Width: 1233
Flags: W
LayerCount: 2
Back
Fore
SplineSet
339 1504 m 1,0,-1
 1056 1504 l 1,1,-1
 1038 1409 l 1,2,-1
 744 1409 l 1,3,-1
 600 668 l 1,4,-1
 472 668 l 1,5,-1
 616 1409 l 1,6,-1
 321 1409 l 1,7,-1
 339 1504 l 1,0,-1
EndSplineSet
EndChar

StartChar: uni1D41
Encoding: 7489 7489 324
Width: 1233
Flags: W
LayerCount: 2
Back
Fore
SplineSet
304 989 m 2,0,-1
 404 1504 l 1,1,-1
 531 1504 l 1,2,-1
 421 937 l 2,3,4
 409 876 409 876 408 850 c 128,-1,5
 407 824 407 824 414 810 c 0,6,7
 427 777 427 777 462 760.5 c 128,-1,8
 497 744 497 744 551 744 c 0,9,10
 606 744 606 744 646.5 760.5 c 128,-1,11
 687 777 687 777 715 810 c 0,12,13
 728 824 728 824 736.5 850 c 128,-1,14
 745 876 745 876 756 936 c 2,15,-1
 867 1504 l 1,16,-1
 995 1504 l 1,17,-1
 895 989 l 2,18,19
 870 861 870 861 841.5 807 c 128,-1,20
 813 753 813 753 762 717 c 0,21,22
 713 684 713 684 656.5 668 c 128,-1,23
 600 652 600 652 533 652 c 0,24,25
 467 652 467 652 416.5 668 c 128,-1,26
 366 684 366 684 331 717 c 0,27,28
 294 752 294 752 289.5 786 c 128,-1,29
 285 820 285 820 285 836 c 0,30,31
 285 891 285 891 304 989 c 2,0,-1
EndSplineSet
EndChar

StartChar: uni1D42
Encoding: 7490 7490 325
Width: 1233
Flags: W
LayerCount: 2
Back
Fore
SplineSet
309 1504 m 1,0,-1
 433 1504 l 1,1,-1
 391 825 l 1,2,-1
 586 1274 l 1,3,-1
 719 1274 l 1,4,-1
 740 824 l 1,5,-1
 962 1504 l 1,6,-1
 1086 1504 l 1,7,-1
 783 668 l 1,8,-1
 663 668 l 1,9,-1
 631 1165 l 1,10,-1
 408 668 l 1,11,-1
 287 668 l 1,12,-1
 309 1504 l 1,0,-1
EndSplineSet
EndChar

StartChar: uni1D43
Encoding: 7491 7491 326
Width: 1233
Flags: W
LayerCount: 2
Back
Fore
SplineSet
687 983 m 2,0,1
 612 983 612 983 575.5 979 c 128,-1,2
 539 975 539 975 512 965 c 0,3,4
 469 950 469 950 443.5 915.5 c 128,-1,5
 418 881 418 881 418 840 c 0,6,7
 418 793 418 793 450.5 765.5 c 128,-1,8
 483 738 483 738 538 738 c 0,9,10
 631 738 631 738 699 797.5 c 128,-1,11
 767 857 767 857 791 960 c 2,12,-1
 796 983 l 1,13,-1
 687 983 l 2,0,1
921 1026 m 2,14,-1
 842 668 l 1,15,-1
 726 668 l 1,16,-1
 747 761 l 1,17,18
 701 708 701 708 639.5 680 c 128,-1,19
 578 652 578 652 508 652 c 0,20,21
 412 652 412 652 354.5 698.5 c 128,-1,22
 297 745 297 745 297 823 c 0,23,24
 297 932 297 932 394 998 c 128,-1,25
 491 1064 491 1064 658 1064 c 2,26,-1
 813 1064 l 1,27,-1
 820 1098 l 2,28,29
 822 1103 822 1103 822.5 1108.5 c 128,-1,30
 823 1114 823 1114 823 1124 c 0,31,32
 823 1172 823 1172 783 1197.5 c 128,-1,33
 743 1223 743 1223 670 1223 c 0,34,35
 616 1223 616 1223 553 1208.5 c 128,-1,36
 490 1194 490 1194 420 1166 c 1,37,-1
 442 1267 l 1,38,39
 510 1288 510 1288 571.5 1299 c 128,-1,40
 633 1310 633 1310 689 1310 c 0,41,42
 806 1310 806 1310 871 1264 c 128,-1,43
 936 1218 936 1218 936 1137 c 0,44,45
 936 1119 936 1119 932.5 1090 c 128,-1,46
 929 1061 929 1061 921 1026 c 2,14,-1
EndSplineSet
EndChar

StartChar: uni1D47
Encoding: 7495 7495 327
Width: 1233
Flags: W
LayerCount: 2
Back
Fore
SplineSet
588 739 m 0,0,1
 641 739 641 739 684 764.5 c 128,-1,2
 727 790 727 790 756 838 c 0,3,4
 787 890 787 890 805 955 c 128,-1,5
 823 1020 823 1020 823 1081 c 0,6,7
 823 1152 823 1152 791 1188 c 128,-1,8
 759 1224 759 1224 696 1224 c 0,9,10
 643 1224 643 1224 600 1198.5 c 128,-1,11
 557 1173 557 1173 525 1123 c 0,12,13
 495 1075 495 1075 476.5 1010 c 128,-1,14
 458 945 458 945 458 882 c 0,15,16
 458 814 458 814 491.5 776.5 c 128,-1,17
 525 739 525 739 588 739 c 0,0,1
522 1215 m 1,18,19
 561 1262 561 1262 613 1286 c 128,-1,20
 665 1310 665 1310 729 1310 c 0,21,22
 832 1310 832 1310 889.5 1252 c 128,-1,23
 947 1194 947 1194 947 1090 c 0,24,25
 947 1009 947 1009 921 928.5 c 128,-1,26
 895 848 895 848 850 787 c 0,27,28
 802 723 802 723 733 687.5 c 128,-1,29
 664 652 664 652 586 652 c 0,30,31
 524 652 524 652 482 676 c 128,-1,32
 440 700 440 700 419 747 c 1,33,-1
 403 668 l 1,34,-1
 286 668 l 1,35,-1
 477 1539 l 1,36,-1
 594 1539 l 1,37,-1
 522 1215 l 1,18,19
EndSplineSet
EndChar

StartChar: uni1D48
Encoding: 7496 7496 328
Width: 1233
Flags: W
LayerCount: 2
Back
Fore
SplineSet
616 1223 m 0,0,1
 561 1223 561 1223 519 1198.5 c 128,-1,2
 477 1174 477 1174 448 1126 c 0,3,4
 417 1075 417 1075 400 1011 c 128,-1,5
 383 947 383 947 383 882 c 0,6,7
 383 811 383 811 415 775 c 128,-1,8
 447 739 447 739 511 739 c 0,9,10
 564 739 564 739 607.5 764.5 c 128,-1,11
 651 790 651 790 681 839 c 0,12,13
 712 888 712 888 729.5 952.5 c 128,-1,14
 747 1017 747 1017 747 1081 c 0,15,16
 747 1148 747 1148 712.5 1185.5 c 128,-1,17
 678 1223 678 1223 616 1223 c 0,0,1
785 1215 m 1,18,-1
 858 1539 l 1,19,-1
 974 1539 l 1,20,-1
 783 668 l 1,21,-1
 667 668 l 1,22,-1
 684 747 l 1,23,24
 643 700 643 700 591 676 c 128,-1,25
 539 652 539 652 476 652 c 0,26,27
 373 652 373 652 316 710.5 c 128,-1,28
 259 769 259 769 259 875 c 0,29,30
 259 955 259 955 284.5 1036 c 128,-1,31
 310 1117 310 1117 353 1177 c 0,32,33
 400 1243 400 1243 464 1276.5 c 128,-1,34
 528 1310 528 1310 606 1310 c 0,35,36
 668 1310 668 1310 714 1286 c 128,-1,37
 760 1262 760 1262 785 1215 c 1,18,-1
EndSplineSet
EndChar

StartChar: uni1D49
Encoding: 7497 7497 329
Width: 1233
Flags: W
LayerCount: 2
Back
Fore
SplineSet
822 1037 m 1,0,1
 826 1052 826 1052 827 1062 c 128,-1,2
 828 1072 828 1072 828 1081 c 0,3,4
 828 1148 828 1148 787 1185.5 c 128,-1,5
 746 1223 746 1223 673 1223 c 0,6,7
 596 1223 596 1223 532 1172.5 c 128,-1,8
 468 1122 468 1122 440 1037 c 1,9,-1
 822 1037 l 1,0,1
836 700 m 1,10,11
 770 676 770 676 707 664 c 128,-1,12
 644 652 644 652 579 652 c 0,13,14
 439 652 439 652 366 714.5 c 128,-1,15
 293 777 293 777 293 896 c 0,16,17
 293 984 293 984 330.5 1068 c 128,-1,18
 368 1152 368 1152 435 1213 c 0,19,20
 487 1261 487 1261 550.5 1286 c 128,-1,21
 614 1311 614 1311 683 1311 c 0,22,23
 800 1311 800 1311 870 1247 c 128,-1,24
 940 1183 940 1183 940 1076 c 0,25,26
 940 1057 940 1057 937 1029 c 128,-1,27
 934 1001 934 1001 926 957 c 1,28,-1
 418 957 l 1,29,30
 414 939 414 939 412 924.5 c 128,-1,31
 410 910 410 910 410 899 c 0,32,33
 410 821 410 821 459 780 c 128,-1,34
 508 739 508 739 600 739 c 0,35,36
 656 739 656 739 721.5 755 c 128,-1,37
 787 771 787 771 859 802 c 1,38,-1
 836 700 l 1,10,11
EndSplineSet
EndChar

StartChar: uni1D4D
Encoding: 7501 7501 330
Width: 1233
Flags: W
LayerCount: 2
Back
Fore
SplineSet
560 749 m 0,0,1
 610 749 610 749 651.5 774.5 c 128,-1,2
 693 800 693 800 722 847 c 0,3,4
 753 897 753 897 770.5 959.5 c 128,-1,5
 788 1022 788 1022 788 1082 c 0,6,7
 788 1148 788 1148 752.5 1185.5 c 128,-1,8
 717 1223 717 1223 654 1223 c 0,9,10
 557 1223 557 1223 490.5 1128.5 c 128,-1,11
 424 1034 424 1034 424 891 c 0,12,13
 424 825 424 825 460 787 c 128,-1,14
 496 749 496 749 560 749 c 0,0,1
831 708 m 2,15,16
 797 557 797 557 713 489.5 c 128,-1,17
 629 422 629 422 473 422 c 0,18,19
 422 422 422 422 372 429.5 c 128,-1,20
 322 437 322 437 274 452 c 1,21,-1
 298 554 l 1,22,23
 344 530 344 530 393.5 517 c 128,-1,24
 443 504 443 504 493 504 c 0,25,26
 587 504 587 504 638.5 549 c 128,-1,27
 690 594 690 594 714 698 c 2,28,-1
 729 763 l 1,29,30
 692 714 692 714 637 689 c 128,-1,31
 582 664 582 664 513 664 c 0,32,33
 416 664 416 664 359 724 c 128,-1,34
 302 784 302 784 302 887 c 0,35,36
 302 965 302 965 327 1042 c 128,-1,37
 352 1119 352 1119 397 1178 c 0,38,39
 444 1241 444 1241 509.5 1275.5 c 128,-1,40
 575 1310 575 1310 645 1310 c 0,41,42
 708 1310 708 1310 756 1283 c 128,-1,43
 804 1256 804 1256 826 1208 c 1,44,-1
 843 1293 l 1,45,-1
 959 1293 l 1,46,-1
 831 708 l 2,15,16
EndSplineSet
EndChar

StartChar: uni1D4F
Encoding: 7503 7503 331
Width: 1233
Flags: W
LayerCount: 2
Back
Fore
SplineSet
456 1539 m 1,0,-1
 577 1539 l 1,1,-1
 470 1050 l 1,2,-1
 816 1295 l 1,3,-1
 967 1295 l 1,4,-1
 640 1059 l 1,5,-1
 875 668 l 1,6,-1
 741 668 l 1,7,-1
 547 994 l 1,8,-1
 441 919 l 1,9,-1
 386 668 l 1,10,-1
 266 668 l 1,11,-1
 456 1539 l 1,0,-1
EndSplineSet
EndChar

StartChar: uni1D50
Encoding: 7504 7504 332
Width: 1233
Flags: W
LayerCount: 2
Back
Fore
SplineSet
721 1231 m 1,0,1
 746 1269 746 1269 785 1289.5 c 128,-1,2
 824 1310 824 1310 873 1310 c 0,3,4
 927 1310 927 1310 959.5 1279.5 c 128,-1,5
 992 1249 992 1249 992 1198 c 0,6,7
 992 1168 992 1168 986.5 1129.5 c 128,-1,8
 981 1091 981 1091 967 1031 c 2,9,-1
 887 668 l 1,10,-1
 782 668 l 1,11,-1
 860 1027 l 2,12,13
 872 1078 872 1078 878 1111 c 128,-1,14
 884 1144 884 1144 884 1157 c 0,15,16
 884 1193 884 1193 869.5 1208.5 c 128,-1,17
 855 1224 855 1224 823 1224 c 0,18,19
 775 1224 775 1224 748.5 1188 c 128,-1,20
 722 1152 722 1152 695 1027 c 2,21,-1
 616 668 l 1,22,-1
 511 668 l 1,23,-1
 589 1027 l 2,24,25
 601 1081 601 1081 606.5 1113 c 128,-1,26
 612 1145 612 1145 612 1157 c 0,27,28
 612 1192 612 1192 597 1208 c 128,-1,29
 582 1224 582 1224 552 1224 c 0,30,31
 505 1224 505 1224 479.5 1190.5 c 128,-1,32
 454 1157 454 1157 426 1027 c 2,33,-1
 347 668 l 1,34,-1
 241 668 l 1,35,-1
 378 1295 l 1,36,-1
 484 1295 l 1,37,-1
 472 1241 l 1,38,39
 499 1275 499 1275 534 1292.5 c 128,-1,40
 569 1310 569 1310 610 1310 c 0,41,42
 657 1310 657 1310 686 1289 c 128,-1,43
 715 1268 715 1268 721 1231 c 1,0,1
EndSplineSet
EndChar

StartChar: uni1D52
Encoding: 7506 7506 333
Width: 1233
Flags: W
LayerCount: 2
Back
Fore
SplineSet
667 1223 m 0,0,1
 564 1223 564 1223 495 1127 c 128,-1,2
 426 1031 426 1031 426 884 c 0,3,4
 426 811 426 811 461 775 c 128,-1,5
 496 739 496 739 567 739 c 0,6,7
 670 739 670 739 739 835 c 128,-1,8
 808 931 808 931 808 1078 c 0,9,10
 808 1151 808 1151 773 1187 c 128,-1,11
 738 1223 738 1223 667 1223 c 0,0,1
678 1310 m 0,12,13
 801 1310 801 1310 866 1250 c 128,-1,14
 931 1190 931 1190 931 1075 c 0,15,16
 931 998 931 998 905 921.5 c 128,-1,17
 879 845 879 845 832 784 c 0,18,19
 783 718 783 718 711.5 685 c 128,-1,20
 640 652 640 652 548 652 c 0,21,22
 430 652 430 652 366 713 c 128,-1,23
 302 774 302 774 302 888 c 0,24,25
 302 964 302 964 328 1039.5 c 128,-1,26
 354 1115 354 1115 401 1178 c 0,27,28
 451 1243 451 1243 521.5 1276.5 c 128,-1,29
 592 1310 592 1310 678 1310 c 0,12,13
EndSplineSet
EndChar

StartChar: uni1D56
Encoding: 7510 7510 334
Width: 1233
Flags: W
LayerCount: 2
Back
Fore
SplineSet
446 747 m 1,0,-1
 376 429 l 1,1,-1
 261 429 l 1,2,-1
 450 1295 l 1,3,-1
 566 1295 l 1,4,-1
 548 1215 l 1,5,6
 587 1261 587 1261 641 1285.5 c 128,-1,7
 695 1310 695 1310 758 1310 c 0,8,9
 860 1310 860 1310 916 1252 c 128,-1,10
 972 1194 972 1194 972 1089 c 0,11,12
 972 1009 972 1009 947.5 928.5 c 128,-1,13
 923 848 923 848 879 786 c 0,14,15
 831 720 831 720 767 686 c 128,-1,16
 703 652 703 652 626 652 c 0,17,18
 563 652 563 652 518.5 675.5 c 128,-1,19
 474 699 474 699 446 747 c 1,0,-1
620 739 m 0,20,21
 671 739 671 739 713.5 764 c 128,-1,22
 756 789 756 789 784 837 c 0,23,24
 815 888 815 888 832.5 952.5 c 128,-1,25
 850 1017 850 1017 850 1081 c 0,26,27
 850 1152 850 1152 817.5 1187.5 c 128,-1,28
 785 1223 785 1223 721 1223 c 0,29,30
 668 1223 668 1223 624.5 1198 c 128,-1,31
 581 1173 581 1173 551 1123 c 0,32,33
 520 1074 520 1074 502.5 1010 c 128,-1,34
 485 946 485 946 485 882 c 0,35,36
 485 814 485 814 520 776.5 c 128,-1,37
 555 739 555 739 620 739 c 0,20,21
EndSplineSet
EndChar

StartChar: uni1D57
Encoding: 7511 7511 335
Width: 1233
Flags: W
LayerCount: 2
Back
Fore
SplineSet
685 1473 m 1,0,-1
 646 1295 l 1,1,-1
 909 1295 l 1,2,-1
 891 1215 l 1,3,-1
 628 1215 l 1,4,-1
 553 875 l 2,5,6
 549 858 549 858 547.5 843.5 c 128,-1,7
 546 829 546 829 546 817 c 0,8,9
 546 780 546 780 570.5 765 c 128,-1,10
 595 750 595 750 659 750 c 2,11,-1
 789 750 l 1,12,-1
 771 668 l 1,13,-1
 631 668 l 2,14,15
 525 668 525 668 476 699 c 128,-1,16
 427 730 427 730 427 796 c 0,17,18
 427 810 427 810 429.5 829 c 128,-1,19
 432 848 432 848 437 875 c 2,20,-1
 512 1215 l 1,21,-1
 324 1215 l 1,22,-1
 342 1295 l 1,23,-1
 530 1295 l 1,24,-1
 569 1473 l 1,25,-1
 685 1473 l 1,0,-1
EndSplineSet
EndChar

StartChar: uni1D58
Encoding: 7512 7512 336
Width: 1233
Flags: W
LayerCount: 2
Back
Fore
SplineSet
310 907 m 2,0,-1
 394 1295 l 1,1,-1
 511 1295 l 1,2,-1
 426 907 l 2,3,4
 421 886 421 886 418.5 867 c 128,-1,5
 416 848 416 848 416 834 c 0,6,7
 416 790 416 790 445.5 766 c 128,-1,8
 475 742 475 742 528 742 c 0,9,10
 608 742 608 742 663.5 794 c 128,-1,11
 719 846 719 846 740 941 c 2,12,-1
 817 1295 l 1,13,-1
 934 1295 l 1,14,-1
 797 668 l 1,15,-1
 681 668 l 1,16,-1
 702 762 l 1,17,18
 656 707 656 707 599.5 680 c 128,-1,19
 543 653 543 653 477 653 c 0,20,21
 395 653 395 653 347 694 c 128,-1,22
 299 735 299 735 299 806 c 0,23,24
 299 828 299 828 302 854 c 128,-1,25
 305 880 305 880 310 907 c 2,0,-1
EndSplineSet
EndChar

StartChar: uni1D5B
Encoding: 7515 7515 337
Width: 1233
Flags: W
LayerCount: 2
Back
Fore
SplineSet
291 1295 m 1,0,-1
 404 1295 l 1,1,-1
 501 760 l 1,2,-1
 817 1295 l 1,3,-1
 942 1295 l 1,4,-1
 555 668 l 1,5,-1
 405 668 l 1,6,-1
 291 1295 l 1,0,-1
EndSplineSet
EndChar

StartChar: uni1D9C
Encoding: 7580 7580 341
Width: 1233
Flags: W
LayerCount: 2
Back
Fore
SplineSet
801 697 m 1,0,1
 755 675 755 675 702.5 663.5 c 128,-1,2
 650 652 650 652 594 652 c 0,3,4
 452 652 452 652 379.5 715 c 128,-1,5
 307 778 307 778 307 901 c 0,6,7
 307 984 307 984 341 1064.5 c 128,-1,8
 375 1145 375 1145 432 1200 c 0,9,10
 491 1255 491 1255 561 1282.5 c 128,-1,11
 631 1310 631 1310 715 1310 c 0,12,13
 771 1310 771 1310 823.5 1298 c 128,-1,14
 876 1286 876 1286 926 1262 c 1,15,-1
 902 1160 l 1,16,17
 861 1193 861 1193 816.5 1208 c 128,-1,18
 772 1223 772 1223 719 1223 c 0,19,20
 650 1223 650 1223 596 1198 c 128,-1,21
 542 1173 542 1173 505 1123 c 0,22,23
 469 1077 469 1077 449.5 1018 c 128,-1,24
 430 959 430 959 430 901 c 0,25,26
 430 820 430 820 473 779.5 c 128,-1,27
 516 739 516 739 602 739 c 0,28,29
 662 739 662 739 718 756.5 c 128,-1,30
 774 774 774 774 826 809 c 1,31,-1
 801 697 l 1,0,1
EndSplineSet
EndChar

StartChar: uni1DA0
Encoding: 7584 7584 342
Width: 1233
Flags: W
LayerCount: 2
Back
Fore
SplineSet
926 1539 m 1,0,-1
 906 1454 l 1,1,-1
 775 1454 l 2,2,3
 715 1454 715 1454 685 1430.5 c 128,-1,4
 655 1407 655 1407 642 1351 c 2,5,-1
 629 1295 l 1,6,-1
 871 1295 l 1,7,-1
 855 1215 l 1,8,-1
 612 1215 l 1,9,-1
 492 668 l 1,10,-1
 376 668 l 1,11,-1
 496 1215 l 1,12,-1
 307 1215 l 1,13,-1
 326 1295 l 1,14,-1
 513 1295 l 1,15,-1
 523 1339 l 2,16,17
 547 1447 547 1447 607.5 1493 c 128,-1,18
 668 1539 668 1539 786 1539 c 2,19,-1
 926 1539 l 1,0,-1
EndSplineSet
EndChar

StartChar: uni1DBB
Encoding: 7611 7611 343
Width: 1233
Flags: W
LayerCount: 2
Back
Fore
SplineSet
436 1295 m 1,0,-1
 949 1295 l 1,1,-1
 928 1201 l 1,2,-1
 433 750 l 1,3,-1
 830 750 l 1,4,-1
 811 668 l 1,5,-1
 284 668 l 1,6,-1
 305 762 l 1,7,-1
 799 1213 l 1,8,-1
 418 1213 l 1,9,-1
 436 1295 l 1,0,-1
EndSplineSet
EndChar

StartChar: uni1E02
Encoding: 7682 7682 344
Width: 1233
Flags: W
LayerCount: 2
Back
Fore
SplineSet
733 1872 m 5
 938 1872 l 5
 898 1667 l 5
 693 1667 l 5
 733 1872 l 5
EndSplineSet
Refer: 34 66 N 1 0 0 1 0 0 3
EndChar

StartChar: uni1E03
Encoding: 7683 7683 345
Width: 1233
Flags: W
LayerCount: 2
Back
Fore
SplineSet
722 1552 m 5
 927 1552 l 5
 886 1348 l 5
 681 1348 l 5
 722 1552 l 5
EndSplineSet
Refer: 66 98 N 1 0 0 1 0 0 3
EndChar

StartChar: uni1E0A
Encoding: 7690 7690 346
Width: 1233
Flags: W
LayerCount: 2
Back
Fore
SplineSet
684 1872 m 5
 889 1872 l 5
 849 1667 l 5
 644 1667 l 5
 684 1872 l 5
EndSplineSet
Refer: 36 68 N 1 0 0 1 0 0 3
EndChar

StartChar: uni1E0B
Encoding: 7691 7691 347
Width: 1233
Flags: W
LayerCount: 2
Back
Fore
SplineSet
623 1552 m 5
 828 1552 l 5
 787 1348 l 5
 582 1348 l 5
 623 1552 l 5
EndSplineSet
Refer: 68 100 N 1 0 0 1 0 0 3
EndChar

StartChar: uni1E1E
Encoding: 7710 7710 348
Width: 1233
Flags: W
LayerCount: 2
Back
Fore
SplineSet
747 1872 m 5
 952 1872 l 5
 912 1667 l 5
 707 1667 l 5
 747 1872 l 5
EndSplineSet
Refer: 38 70 N 1 0 0 1 0 0 3
EndChar

StartChar: uni1E1F
Encoding: 7711 7711 349
Width: 1233
Flags: W
LayerCount: 2
Back
Fore
SplineSet
733 1872 m 5
 938 1872 l 5
 898 1667 l 5
 693 1667 l 5
 733 1872 l 5
EndSplineSet
Refer: 70 102 N 1 0 0 1 0 0 3
EndChar

StartChar: uni1E22
Encoding: 7714 7714 350
Width: 1233
Flags: W
LayerCount: 2
Back
Fore
SplineSet
733 1872 m 5
 938 1872 l 5
 898 1667 l 5
 693 1667 l 5
 733 1872 l 5
EndSplineSet
Refer: 40 72 N 1 0 0 1 0 0 3
EndChar

StartChar: uni1E23
Encoding: 7715 7715 351
Width: 1233
Flags: W
LayerCount: 2
Back
Fore
SplineSet
733 1872 m 5
 938 1872 l 5
 898 1667 l 5
 693 1667 l 5
 733 1872 l 5
EndSplineSet
Refer: 72 104 N 1 0 0 1 0 0 3
EndChar

StartChar: uni1E26
Encoding: 7718 7718 352
Width: 1233
Flags: W
LayerCount: 2
Back
Fore
SplineSet
942 1870 m 5
 1145 1870 l 5
 1106 1667 l 5
 903 1667 l 5
 942 1870 l 5
551 1870 m 5
 755 1870 l 5
 714 1667 l 5
 512 1667 l 5
 551 1870 l 5
EndSplineSet
Refer: 40 72 N 1 0 0 1 0 0 2
EndChar

StartChar: uni1E40
Encoding: 7744 7744 354
Width: 1233
Flags: W
LayerCount: 2
Back
Fore
SplineSet
733 1872 m 5
 938 1872 l 5
 898 1667 l 5
 693 1667 l 5
 733 1872 l 5
EndSplineSet
Refer: 45 77 N 1 0 0 1 0 0 3
EndChar

StartChar: uni1E41
Encoding: 7745 7745 355
Width: 1233
Flags: W
LayerCount: 2
Back
Fore
SplineSet
672 1552 m 5
 877 1552 l 5
 836 1348 l 5
 631 1348 l 5
 672 1552 l 5
EndSplineSet
Refer: 77 109 N 1 0 0 1 0 0 3
EndChar

StartChar: uni1E44
Encoding: 7748 7748 356
Width: 1233
Flags: W
LayerCount: 2
Back
Fore
SplineSet
733 1872 m 5
 938 1872 l 5
 898 1667 l 5
 693 1667 l 5
 733 1872 l 5
EndSplineSet
Refer: 46 78 N 1 0 0 1 0 0 3
EndChar

StartChar: uni1E45
Encoding: 7749 7749 357
Width: 1233
Flags: W
LayerCount: 2
Back
Fore
SplineSet
672 1552 m 5
 877 1552 l 5
 836 1348 l 5
 631 1348 l 5
 672 1552 l 5
EndSplineSet
Refer: 78 110 N 1 0 0 1 0 0 3
EndChar

StartChar: uni1E56
Encoding: 7766 7766 358
Width: 1233
Flags: W
LayerCount: 2
Back
Fore
SplineSet
733 1872 m 5
 938 1872 l 5
 898 1667 l 5
 693 1667 l 5
 733 1872 l 5
EndSplineSet
Refer: 48 80 N 1 0 0 1 0 0 3
EndChar

StartChar: uni1E57
Encoding: 7767 7767 359
Width: 1233
Flags: W
LayerCount: 2
Back
Fore
SplineSet
672 1552 m 5
 877 1552 l 5
 836 1348 l 5
 631 1348 l 5
 672 1552 l 5
EndSplineSet
Refer: 80 112 N 1 0 0 1 0 0 3
EndChar

StartChar: uni1E58
Encoding: 7768 7768 360
Width: 1233
Flags: W
LayerCount: 2
Back
Fore
SplineSet
684 1872 m 5
 889 1872 l 5
 849 1667 l 5
 644 1667 l 5
 684 1872 l 5
EndSplineSet
Refer: 50 82 N 1 0 0 1 0 0 3
EndChar

StartChar: uni1E59
Encoding: 7769 7769 361
Width: 1233
Flags: W
LayerCount: 2
Back
Fore
SplineSet
672 1552 m 5
 877 1552 l 5
 836 1348 l 5
 631 1348 l 5
 672 1552 l 5
EndSplineSet
Refer: 82 114 N 1 0 0 1 0 0 3
EndChar

StartChar: uni1E60
Encoding: 7776 7776 362
Width: 1233
Flags: W
LayerCount: 2
Back
Fore
SplineSet
733 1872 m 5
 938 1872 l 5
 898 1667 l 5
 693 1667 l 5
 733 1872 l 5
EndSplineSet
Refer: 51 83 N 1 0 0 1 0 0 3
EndChar

StartChar: uni1E61
Encoding: 7777 7777 363
Width: 1233
Flags: W
LayerCount: 2
Back
Fore
SplineSet
672 1552 m 5
 877 1552 l 5
 836 1348 l 5
 631 1348 l 5
 672 1552 l 5
EndSplineSet
Refer: 83 115 N 1 0 0 1 0 0 3
EndChar

StartChar: uni1E6A
Encoding: 7786 7786 364
Width: 1233
Flags: W
LayerCount: 2
Back
Fore
SplineSet
733 1872 m 5
 938 1872 l 5
 898 1667 l 5
 693 1667 l 5
 733 1872 l 5
EndSplineSet
Refer: 52 84 N 1 0 0 1 0 0 3
EndChar

StartChar: uni1E6B
Encoding: 7787 7787 365
Width: 1233
Flags: W
LayerCount: 2
Back
Fore
SplineSet
733 1872 m 5
 938 1872 l 5
 898 1667 l 5
 693 1667 l 5
 733 1872 l 5
EndSplineSet
Refer: 84 116 N 1 0 0 1 0 0 3
EndChar

StartChar: uni1E86
Encoding: 7814 7814 368
Width: 1233
Flags: W
LayerCount: 2
Back
Fore
SplineSet
733 1872 m 5
 938 1872 l 5
 898 1667 l 5
 693 1667 l 5
 733 1872 l 5
EndSplineSet
Refer: 55 87 N 1 0 0 1 0 0 3
EndChar

StartChar: uni1E87
Encoding: 7815 7815 369
Width: 1233
Flags: W
LayerCount: 2
Back
Fore
SplineSet
672 1552 m 5
 877 1552 l 5
 836 1348 l 5
 631 1348 l 5
 672 1552 l 5
EndSplineSet
Refer: 87 119 N 1 0 0 1 0 0 3
EndChar

StartChar: uni1E8A
Encoding: 7818 7818 370
Width: 1233
Flags: W
LayerCount: 2
Back
Fore
SplineSet
733 1872 m 5
 938 1872 l 5
 898 1667 l 5
 693 1667 l 5
 733 1872 l 5
EndSplineSet
Refer: 56 88 N 1 0 0 1 0 0 3
EndChar

StartChar: uni1E8B
Encoding: 7819 7819 371
Width: 1233
Flags: W
LayerCount: 2
Back
Fore
SplineSet
672 1552 m 5
 877 1552 l 5
 836 1348 l 5
 631 1348 l 5
 672 1552 l 5
EndSplineSet
Refer: 88 120 N 1 0 0 1 0 0 3
EndChar

StartChar: uni1E8C
Encoding: 7820 7820 372
Width: 1233
Flags: W
LayerCount: 2
Back
Fore
SplineSet
942 1870 m 5
 1145 1870 l 5
 1106 1667 l 5
 903 1667 l 5
 942 1870 l 5
551 1870 m 5
 755 1870 l 5
 714 1667 l 5
 512 1667 l 5
 551 1870 l 5
EndSplineSet
Refer: 56 88 N 1 0 0 1 0 0 2
EndChar

StartChar: uni1E8E
Encoding: 7822 7822 374
Width: 1233
Flags: W
LayerCount: 2
Back
Fore
SplineSet
733 1872 m 5
 938 1872 l 5
 898 1667 l 5
 693 1667 l 5
 733 1872 l 5
EndSplineSet
Refer: 57 89 N 1 0 0 1 0 0 3
EndChar

StartChar: uni1E8F
Encoding: 7823 7823 375
Width: 1233
Flags: W
LayerCount: 2
Back
Fore
SplineSet
672 1552 m 5
 877 1552 l 5
 836 1348 l 5
 631 1348 l 5
 672 1552 l 5
EndSplineSet
Refer: 89 121 N 1 0 0 1 0 0 3
EndChar

StartChar: quotedblleft
Encoding: 8220 8220 378
Width: 1233
Flags: W
LayerCount: 2
Back
Fore
SplineSet
956 967 m 1,0,-1
 705 967 l 1,1,-1
 743 1174 l 1,2,-1
 1016 1556 l 1,3,-1
 1169 1556 l 1,4,-1
 997 1174 l 1,5,-1
 956 967 l 1,0,-1
498 967 m 1,6,-1
 246 967 l 1,7,-1
 285 1174 l 1,8,-1
 557 1556 l 1,9,-1
 711 1556 l 1,10,-1
 537 1174 l 1,11,-1
 498 967 l 1,6,-1
EndSplineSet
EndChar

StartChar: quotedblright
Encoding: 8221 8221 379
Width: 1233
Flags: W
LayerCount: 2
Back
Fore
SplineSet
434 1556 m 1,0,-1
 686 1556 l 1,1,-1
 645 1350 l 1,2,-1
 375 967 l 1,3,-1
 221 967 l 1,4,-1
 393 1350 l 1,5,-1
 434 1556 l 1,0,-1
893 1556 m 1,6,-1
 1145 1556 l 1,7,-1
 1104 1350 l 1,8,-1
 834 967 l 1,9,-1
 680 967 l 1,10,-1
 852 1350 l 1,11,-1
 893 1556 l 1,6,-1
EndSplineSet
EndChar

StartChar: quotedblbase
Encoding: 8222 8222 380
Width: 1233
Flags: W
LayerCount: 2
Back
Fore
SplineSet
197 303 m 1,0,-1
 449 303 l 1,1,-1
 410 96 l 1,2,-1
 137 -287 l 1,3,-1
 -16 -287 l 1,4,-1
 156 96 l 1,5,-1
 197 303 l 1,0,-1
655 303 m 1,6,-1
 907 303 l 1,7,-1
 868 96 l 1,8,-1
 596 -287 l 1,9,-1
 442 -287 l 1,10,-1
 614 96 l 1,11,-1
 655 303 l 1,6,-1
EndSplineSet
EndChar

StartChar: uni201F
Encoding: 8223 8223 381
Width: 1233
Flags: W
LayerCount: 2
Back
Fore
SplineSet
1051 1556 m 1,0,-1
 1009 1350 l 1,1,-1
 1026 967 l 1,2,-1
 872 967 l 1,3,-1
 757 1350 l 1,4,-1
 799 1556 l 1,5,-1
 1051 1556 l 1,0,-1
592 1556 m 1,6,-1
 550 1350 l 1,7,-1
 567 967 l 1,8,-1
 413 967 l 1,9,-1
 298 1350 l 1,10,-1
 340 1556 l 1,11,-1
 592 1556 l 1,6,-1
EndSplineSet
EndChar

StartChar: dagger
Encoding: 8224 8224 382
Width: 1233
Flags: W
LayerCount: 2
Back
Fore
SplineSet
674 1493 m 1,0,-1
 850 1493 l 1,1,-1
 768 1073 l 1,2,-1
 1135 1073 l 1,3,-1
 1104 920 l 1,4,-1
 737 920 l 1,5,-1
 520 -197 l 1,6,-1
 346 -197 l 1,7,-1
 563 920 l 1,8,-1
 195 920 l 1,9,-1
 225 1073 l 1,10,-1
 592 1073 l 1,11,-1
 674 1493 l 1,0,-1
EndSplineSet
EndChar

StartChar: daggerdbl
Encoding: 8225 8225 383
Width: 1233
Flags: W
LayerCount: 2
Back
Fore
SplineSet
969 223 m 1,0,-1
 602 223 l 1,1,-1
 520 -197 l 1,2,-1
 346 -197 l 1,3,-1
 426 223 l 1,4,-1
 59 223 l 1,5,-1
 90 377 l 1,6,-1
 457 377 l 1,7,-1
 563 920 l 1,8,-1
 195 920 l 1,9,-1
 225 1073 l 1,10,-1
 592 1073 l 1,11,-1
 674 1493 l 1,12,-1
 850 1493 l 1,13,-1
 768 1073 l 1,14,-1
 1135 1073 l 1,15,-1
 1104 920 l 1,16,-1
 737 920 l 1,17,-1
 633 377 l 1,18,-1
 999 377 l 1,19,-1
 969 223 l 1,0,-1
EndSplineSet
EndChar

StartChar: ellipsis
Encoding: 8230 8230 384
Width: 1233
Flags: W
LayerCount: 2
Back
Fore
SplineSet
-6 303 m 1,0,-1
 246 303 l 1,1,-1
 186 0 l 1,2,-1
 -66 0 l 1,3,-1
 -6 303 l 1,0,-1
813 303 m 1,4,-1
 1065 303 l 1,5,-1
 1006 0 l 1,6,-1
 754 0 l 1,7,-1
 813 303 l 1,4,-1
403 303 m 1,8,-1
 655 303 l 1,9,-1
 596 0 l 1,10,-1
 344 0 l 1,11,-1
 403 303 l 1,8,-1
EndSplineSet
EndChar

StartChar: minute
Encoding: 8242 8242 385
Width: 1233
Flags: W
LayerCount: 2
Back
Fore
SplineSet
646 1120 m 1,0,-1
 891 1493 l 1,1,-1
 1094 1493 l 1,2,-1
 733 1120 l 1,3,-1
 646 1120 l 1,0,-1
EndSplineSet
EndChar

StartChar: guilsinglleft
Encoding: 8249 8249 388
Width: 1233
Flags: W
LayerCount: 2
Back
Fore
SplineSet
877 1059 m 1,0,-1
 834 848 l 1,1,-1
 483 584 l 1,2,-1
 731 317 l 1,3,-1
 698 141 l 1,4,-1
 309 559 l 1,5,-1
 326 641 l 1,6,-1
 877 1059 l 1,0,-1
EndSplineSet
EndChar

StartChar: guilsinglright
Encoding: 8250 8250 389
Width: 1233
Flags: W
LayerCount: 2
Back
Fore
SplineSet
317 141 m 1,0,-1
 360 352 l 1,1,-1
 711 614 l 1,2,-1
 461 883 l 1,3,-1
 496 1059 l 1,4,-1
 883 641 l 1,5,-1
 866 559 l 1,6,-1
 317 141 l 1,0,-1
EndSplineSet
EndChar

StartChar: uni2047
Encoding: 8263 8263 391
Width: 1233
Flags: W
LayerCount: 2
Back
Fore
SplineSet
867 401 m 5,0,-1
 673 401 l 5,1,-1
 703 555 l 6,2,3
 722 653 722 653 755 722 c 4,4,5
 787 788 787 788 859 872 c 6,6,-1
 934 961 l 6,7,8
 986 1020 986 1020 1010 1064 c 132,-1,9
 1034 1108 1034 1108 1043 1157 c 4,10,11
 1047 1179 1047 1179 1047 1197 c 4,12,13
 1047 1242 1047 1242 1023 1272 c 4,14,15
 994 1309 994 1309 932 1313 c 4,16,17
 928 1313 928 1313 923 1313 c 4,18,19
 873 1313 873 1313 834 1293 c 4,20,21
 770 1258 770 1258 693 1190 c 5,22,-1
 735 1407 l 5,23,24
 813 1469 813 1469 874 1492 c 4,25,26
 949 1521 949 1521 1025 1521 c 4,27,28
 1038 1521 1038 1521 1052 1520 c 4,29,30
 1176 1513 1176 1513 1226 1424 c 4,31,32
 1259 1364 1259 1364 1259 1278 c 4,33,34
 1259 1227 1259 1227 1247 1167 c 4,35,36
 1232 1091 1232 1091 1199 1026 c 4,37,38
 1164 960 1164 960 1085 868 c 6,39,-1
 1011 782 l 6,40,41
 952 713 952 713 932 674 c 4,42,43
 912 632 912 632 900 571 c 6,44,-1
 867 401 l 5,0,-1
640 254 m 5,45,-1
 843 254 l 5,46,-1
 793 0 l 5,47,-1
 590 0 l 5,48,-1
 640 254 l 5,45,-1
252 401 m 5,49,-1
 58 401 l 5,50,-1
 88 555 l 6,51,52
 107 653 107 653 140 722 c 4,53,54
 172 788 172 788 244 872 c 6,55,-1
 319 961 l 6,56,57
 371 1020 371 1020 395 1064 c 132,-1,58
 419 1108 419 1108 428 1157 c 4,59,60
 432 1179 432 1179 432 1197 c 4,61,62
 432 1242 432 1242 408 1272 c 4,63,64
 379 1309 379 1309 317 1313 c 4,65,66
 313 1313 313 1313 308 1313 c 4,67,68
 258 1313 258 1313 219 1293 c 4,69,70
 155 1258 155 1258 78 1190 c 5,71,-1
 120 1407 l 5,72,73
 198 1469 198 1469 259 1492 c 4,74,75
 334 1521 334 1521 410 1521 c 4,76,77
 423 1521 423 1521 437 1520 c 4,78,79
 561 1513 561 1513 611 1424 c 4,80,81
 644 1364 644 1364 644 1278 c 4,82,83
 644 1227 644 1227 632 1167 c 4,84,85
 617 1091 617 1091 584 1026 c 4,86,87
 549 960 549 960 470 868 c 6,88,-1
 396 782 l 6,89,90
 337 713 337 713 317 674 c 4,91,92
 297 632 297 632 285 571 c 6,93,-1
 252 401 l 5,49,-1
25 254 m 5,94,-1
 228 254 l 5,95,-1
 178 0 l 5,96,-1
 -25 0 l 5,97,-1
 25 254 l 5,94,-1
EndSplineSet
EndChar

StartChar: uni2048
Encoding: 8264 8264 392
Width: 1233
Flags: W
LayerCount: 2
Back
Fore
SplineSet
398 401 m 5
 204 401 l 5
 234 555 l 6
 253 653 253 653 286 722 c 4
 318 788 318 788 390 872 c 6
 465 961 l 6
 517 1020 517 1020 541 1064 c 4
 565 1108 565 1108 574 1157 c 4
 578 1179 578 1179 578 1197 c 4
 578 1242 578 1242 554 1272 c 4
 525 1309 525 1309 463 1313 c 4
 459 1313 459 1313 454 1313 c 4
 404 1313 404 1313 365 1293 c 4
 301 1258 301 1258 224 1190 c 5
 266 1407 l 5
 344 1469 344 1469 405 1492 c 4
 480 1521 480 1521 556 1521 c 4
 569 1521 569 1521 583 1520 c 4
 707 1513 707 1513 757 1424 c 4
 790 1364 790 1364 790 1278 c 4
 790 1227 790 1227 778 1167 c 4
 763 1091 763 1091 730 1026 c 4
 695 960 695 960 616 868 c 6
 542 782 l 6
 483 713 483 713 463 674 c 4
 443 632 443 632 431 571 c 6
 398 401 l 5
171 254 m 5
 374 254 l 5
 324 0 l 5
 121 0 l 5
 171 254 l 5
EndSplineSet
Refer: 1 33 N 1 0 0 1 339 0 2
EndChar

StartChar: uni2049
Encoding: 8265 8265 393
Width: 1233
Flags: W
LayerCount: 2
Back
Fore
SplineSet
843 401 m 5
 649 401 l 5
 679 555 l 6
 698 653 698 653 731 722 c 4
 763 788 763 788 835 872 c 6
 910 961 l 6
 962 1020 962 1020 986 1064 c 4
 1010 1108 1010 1108 1019 1157 c 4
 1023 1179 1023 1179 1023 1197 c 4
 1023 1242 1023 1242 999 1272 c 4
 970 1309 970 1309 908 1313 c 4
 904 1313 904 1313 899 1313 c 4
 849 1313 849 1313 810 1293 c 4
 746 1258 746 1258 669 1190 c 5
 711 1407 l 5
 789 1469 789 1469 850 1492 c 4
 925 1521 925 1521 1001 1521 c 4
 1014 1521 1014 1521 1028 1520 c 4
 1152 1513 1152 1513 1202 1424 c 4
 1235 1364 1235 1364 1235 1278 c 4
 1235 1227 1235 1227 1223 1167 c 4
 1208 1091 1208 1091 1175 1026 c 4
 1140 960 1140 960 1061 868 c 6
 987 782 l 6
 928 713 928 713 908 674 c 4
 888 632 888 632 876 571 c 6
 843 401 l 5
616 254 m 5
 819 254 l 5
 769 0 l 5
 566 0 l 5
 616 254 l 5
EndSplineSet
Refer: 1 33 N 1 0 0 1 -307 0 3
EndChar

StartChar: uni2070
Encoding: 8304 8304 394
Width: 1233
Flags: W
LayerCount: 2
Back
Fore
SplineSet
610 1088 m 0,0,1
 610 1120 610 1120 637 1143 c 0,2,3
 664 1165 664 1165 701 1165 c 128,-1,4
 738 1165 738 1165 764 1143 c 0,5,6
 791 1120 791 1120 791 1088 c 0,7,8
 791 1057 791 1057 765 1035 c 0,9,10
 739 1014 739 1014 701 1014 c 0,11,12
 664 1014 664 1014 637 1036 c 128,-1,13
 610 1058 610 1058 610 1088 c 0,0,1
1050 1240 m 0,14,15
 1050 1133 1050 1133 1011 1009 c 128,-1,16
 972 885 972 885 916 808 c 0,17,18
 859 729 859 729 785 691 c 0,19,20
 710 653 710 653 610 653 c 0,21,22
 479 653 479 653 416 722 c 0,23,24
 353 790 353 790 353 934 c 0,25,26
 353 1042 353 1042 391 1165 c 0,27,28
 429 1287 429 1287 487 1366 c 0,29,30
 544 1445 544 1445 618 1483 c 0,31,32
 692 1520 692 1520 791 1520 c 0,33,34
 922 1520 922 1520 986 1451 c 0,35,36
 1050 1383 1050 1383 1050 1240 c 0,14,15
627 745 m 0,37,38
 681 745 681 745 727 773 c 0,39,40
 771 800 771 800 804 856 c 0,41,42
 851 934 851 934 882 1050 c 0,43,44
 913 1165 913 1165 913 1265 c 0,45,46
 913 1351 913 1351 880 1390 c 0,47,48
 847 1428 847 1428 775 1428 c 0,49,50
 719 1428 719 1428 675 1400 c 0,51,52
 629 1371 629 1371 597 1318 c 0,53,54
 550 1240 550 1240 519 1124 c 0,55,56
 488 1007 488 1007 488 901 c 0,57,58
 488 822 488 822 523 783 c 0,59,60
 557 745 557 745 627 745 c 0,37,38
EndSplineSet
EndChar

StartChar: uni2074
Encoding: 8308 8308 395
Width: 1233
Flags: W
LayerCount: 2
Back
Fore
SplineSet
764 1503 m 1,0,-1
 926 1503 l 1,1,-1
 821 963 l 1,2,-1
 938 963 l 1,3,-1
 918 852 l 1,4,-1
 799 852 l 1,5,-1
 766 668 l 1,6,-1
 627 668 l 1,7,-1
 662 852 l 1,8,-1
 276 852 l 1,9,-1
 299 973 l 1,10,-1
 764 1503 l 1,0,-1
760 1354 m 1,11,-1
 418 963 l 1,12,-1
 684 963 l 1,13,-1
 760 1354 l 1,11,-1
EndSplineSet
EndChar

StartChar: uni2075
Encoding: 8309 8309 396
Width: 1233
Flags: W
LayerCount: 2
Back
Fore
SplineSet
542 1503 m 1,0,-1
 1050 1503 l 1,1,-1
 1027 1408 l 1,2,-1
 644 1408 l 1,3,-1
 595 1204 l 1,4,5
 627 1213 627 1213 657 1217 c 128,-1,6
 687 1221 687 1221 716 1221 c 0,7,8
 843 1221 843 1221 920 1158 c 0,9,10
 997 1094 997 1094 997 991 c 0,11,12
 997 921 997 921 962 856 c 0,13,14
 927 790 927 790 862 742 c 0,15,16
 800 696 800 696 727 675 c 0,17,18
 650 653 650 653 554 653 c 0,19,20
 482 653 482 653 419 662 c 128,-1,21
 356 671 356 671 308 689 c 1,22,-1
 335 803 l 1,23,24
 392 775 392 775 451 761 c 128,-1,25
 510 747 510 747 573 747 c 0,26,27
 698 747 698 747 780 812 c 0,28,29
 862 878 862 878 862 975 c 0,30,31
 862 1047 862 1047 808 1087 c 0,32,33
 754 1128 754 1128 658 1128 c 0,34,35
 605 1128 605 1128 550 1117 c 0,36,37
 494 1106 494 1106 444 1085 c 1,38,-1
 542 1503 l 1,0,-1
EndSplineSet
EndChar

StartChar: uni2076
Encoding: 8310 8310 397
Width: 1233
Flags: W
LayerCount: 2
Back
Fore
SplineSet
870 1001 m 0,0,1
 870 1064 870 1064 831 1099 c 0,2,3
 792 1133 792 1133 720 1133 c 0,4,5
 622 1133 622 1133 555 1062 c 0,6,7
 489 992 489 992 489 885 c 0,8,9
 489 818 489 818 530 779 c 0,10,11
 571 741 571 741 643 741 c 0,12,13
 740 741 740 741 805 816 c 128,-1,14
 870 891 870 891 870 1001 c 0,0,1
1050 1487 m 1,15,-1
 1026 1383 l 1,16,17
 987 1403 987 1403 941 1414 c 128,-1,18
 895 1425 895 1425 845 1425 c 0,19,20
 715 1425 715 1425 631 1345 c 256,21,22
 547 1265 547 1265 510 1105 c 1,23,24
 559 1166 559 1166 618 1193 c 0,25,26
 681 1222 681 1222 757 1222 c 0,27,28
 875 1222 875 1222 941 1166 c 0,29,30
 1006 1111 1006 1111 1006 1007 c 0,31,32
 1006 944 1006 944 979 874 c 0,33,34
 953 807 953 807 907 761 c 0,35,36
 854 706 854 706 788 680 c 0,37,38
 721 653 721 653 639 653 c 0,39,40
 502 653 502 653 428 718 c 0,41,42
 354 784 354 784 354 904 c 0,43,44
 354 997 354 997 380 1097 c 0,45,46
 407 1198 407 1198 452 1280 c 0,47,48
 518 1400 518 1400 620 1460 c 0,49,50
 723 1520 723 1520 862 1520 c 0,51,52
 912 1520 912 1520 960 1511 c 0,53,54
 1008 1503 1008 1503 1050 1487 c 1,15,-1
EndSplineSet
EndChar

StartChar: uni2077
Encoding: 8311 8311 398
Width: 1233
Flags: W
LayerCount: 2
Back
Fore
SplineSet
421 1503 m 1,0,-1
 1050 1503 l 1,1,-1
 1040 1450 l 1,2,-1
 499 668 l 1,3,-1
 353 668 l 1,4,-1
 876 1408 l 1,5,-1
 400 1408 l 1,6,-1
 421 1503 l 1,0,-1
EndSplineSet
EndChar

StartChar: uni2078
Encoding: 8312 8312 399
Width: 1233
Flags: W
LayerCount: 2
Back
Fore
SplineSet
845 927 m 0,0,1
 845 992 845 992 800 1029 c 0,2,3
 756 1066 756 1066 677 1066 c 0,4,5
 581 1066 581 1066 520 1010 c 0,6,7
 458 955 458 955 458 869 c 0,8,9
 458 810 458 810 503 775 c 128,-1,10
 548 740 548 740 624 740 c 0,11,12
 723 740 723 740 784 791 c 0,13,14
 845 843 845 843 845 927 c 0,0,1
582 1114 m 1,15,16
 510 1135 510 1135 474 1175 c 0,17,18
 437 1216 437 1216 437 1275 c 0,19,20
 437 1376 437 1376 537 1448 c 0,21,22
 636 1520 636 1520 780 1520 c 0,23,24
 900 1520 900 1520 975 1469 c 128,-1,25
 1050 1418 1050 1418 1050 1338 c 0,26,27
 1050 1259 1050 1259 984 1194 c 0,28,29
 919 1130 919 1130 812 1107 c 1,30,31
 895 1091 895 1091 939 1043 c 0,32,33
 982 997 982 997 982 922 c 0,34,35
 982 805 982 805 880 729 c 128,-1,36
 778 653 778 653 619 653 c 0,37,38
 480 653 480 653 400 710 c 0,39,40
 321 767 321 767 321 867 c 0,41,42
 321 960 321 960 391 1026 c 0,43,44
 462 1092 462 1092 582 1114 c 1,15,16
768 1433 m 0,45,46
 683 1433 683 1433 628 1388 c 128,-1,47
 573 1343 573 1343 573 1273 c 0,48,49
 573 1218 573 1218 612 1186 c 128,-1,50
 651 1154 651 1154 720 1154 c 0,51,52
 802 1154 802 1154 859 1203 c 0,53,54
 915 1252 915 1252 915 1322 c 0,55,56
 915 1372 915 1372 875 1403 c 0,57,58
 835 1433 835 1433 768 1433 c 0,45,46
EndSplineSet
EndChar

StartChar: uni2079
Encoding: 8313 8313 400
Width: 1233
Flags: W
LayerCount: 2
Back
Fore
SplineSet
533 1171 m 0,0,1
 533 1107 533 1107 572 1073 c 128,-1,2
 611 1039 611 1039 683 1039 c 0,3,4
 779 1039 779 1039 847 1110 c 0,5,6
 914 1180 914 1180 914 1287 c 0,7,8
 914 1356 914 1356 873 1394 c 0,9,10
 833 1432 833 1432 761 1432 c 0,11,12
 664 1432 664 1432 599 1357 c 0,13,14
 533 1282 533 1282 533 1171 c 0,0,1
353 686 m 1,15,-1
 377 790 l 1,16,17
 416 770 416 770 462 759 c 0,18,19
 507 748 507 748 558 748 c 0,20,21
 687 748 687 748 772 828 c 0,22,23
 856 908 856 908 893 1067 c 1,24,25
 847 1010 847 1010 784 980 c 0,26,27
 722 951 722 951 646 951 c 0,28,29
 526 951 526 951 461 1007 c 128,-1,30
 396 1063 396 1063 396 1166 c 0,31,32
 396 1233 396 1233 423 1299 c 0,33,34
 450 1366 450 1366 495 1412 c 0,35,36
 548 1466 548 1466 615 1493 c 128,-1,37
 682 1520 682 1520 764 1520 c 0,38,39
 900 1520 900 1520 975 1454 c 0,40,41
 1050 1389 1050 1389 1050 1269 c 0,42,43
 1050 1175 1050 1175 1024 1075 c 128,-1,44
 998 975 998 975 952 893 c 0,45,46
 886 774 886 774 783 713 c 0,47,48
 681 653 681 653 541 653 c 0,49,50
 490 653 490 653 443 661 c 0,51,52
 396 670 396 670 353 686 c 1,15,-1
EndSplineSet
EndChar

StartChar: uni207A
Encoding: 8314 8314 401
Width: 1233
Flags: W
LayerCount: 2
Back
Fore
SplineSet
670 1324 m 1,0,-1
 670 1075 l 1,1,-1
 950 1075 l 1,2,-1
 950 980 l 1,3,-1
 670 980 l 1,4,-1
 670 731 l 1,5,-1
 564 731 l 1,6,-1
 564 980 l 1,7,-1
 284 980 l 1,8,-1
 284 1075 l 1,9,-1
 564 1075 l 1,10,-1
 564 1324 l 1,11,-1
 670 1324 l 1,0,-1
EndSplineSet
EndChar

StartChar: uni207B
Encoding: 8315 8315 402
Width: 1233
Flags: W
LayerCount: 2
Back
Fore
SplineSet
284 1075 m 1,0,-1
 950 1075 l 1,1,-1
 950 980 l 1,2,-1
 284 980 l 1,3,-1
 284 1075 l 1,0,-1
EndSplineSet
EndChar

StartChar: uni207D
Encoding: 8317 8317 403
Width: 1233
Flags: W
LayerCount: 2
Back
Fore
SplineSet
827 1538 m 1,0,1
 679 1370 679 1370 603.5 1199 c 128,-1,2
 528 1028 528 1028 528 858 c 0,3,4
 528 777 528 777 546.5 692.5 c 128,-1,5
 565 608 565 608 603 517 c 1,6,-1
 502 517 l 1,7,8
 453 623 453 623 429.5 710.5 c 128,-1,9
 406 798 406 798 406 878 c 0,10,11
 406 1048 406 1048 487.5 1215.5 c 128,-1,12
 569 1383 569 1383 727 1538 c 1,13,-1
 827 1538 l 1,0,1
EndSplineSet
EndChar

StartChar: uni207E
Encoding: 8318 8318 404
Width: 1233
Flags: W
LayerCount: 2
Back
Fore
SplineSet
406 517 m 1,0,1
 554 685 554 685 630 856 c 128,-1,2
 706 1027 706 1027 706 1197 c 0,3,4
 706 1278 706 1278 687 1363 c 128,-1,5
 668 1448 668 1448 630 1538 c 1,6,-1
 732 1538 l 1,7,8
 780 1433 780 1433 804 1345 c 128,-1,9
 828 1257 828 1257 828 1177 c 0,10,11
 828 1007 828 1007 746 839.5 c 128,-1,12
 664 672 664 672 506 517 c 1,13,-1
 406 517 l 1,0,1
EndSplineSet
EndChar

StartChar: uni207F
Encoding: 8319 8319 405
Width: 1233
Flags: W
LayerCount: 2
Back
Fore
SplineSet
933 1057 m 2,0,-1
 858 668 l 1,1,-1
 729 668 l 1,2,-1
 804 1057 l 2,3,4
 821 1141 821 1141 791.5 1181 c 128,-1,5
 762 1221 762 1221 682 1221 c 0,6,7
 592 1221 592 1221 533 1169 c 0,8,9
 475 1118 475 1118 456 1022 c 2,10,-1
 388 668 l 1,11,-1
 259 668 l 1,12,-1
 380 1295 l 1,13,-1
 509 1295 l 1,14,-1
 491 1201 l 1,15,16
 536 1255 536 1255 600 1283 c 0,17,18
 664 1310 664 1310 744 1310 c 0,19,20
 864 1310 864 1310 911 1247 c 128,-1,21
 958 1184 958 1184 933 1057 c 2,0,-1
EndSplineSet
EndChar

StartChar: uni2093
Encoding: 8339 8339 423
Width: 1233
Flags: W
LayerCount: 2
Back
Fore
SplineSet
1006 628 m 5,0,-1
 692 323 l 5,1,-1
 898 1 l 5,2,-1
 761 1 l 5,3,-1
 603 247 l 5,4,-1
 350 1 l 5,5,-1
 213 1 l 5,6,-1
 551 329 l 5,7,-1
 359 628 l 5,8,-1
 495 628 l 5,9,-1
 639 405 l 5,10,-1
 870 628 l 5,11,-1
 1006 628 l 5,0,-1
EndSplineSet
EndChar

StartChar: uni2102
Encoding: 8450 8450 424
Width: 1233
Flags: W
LayerCount: 2
Back
Fore
SplineSet
393 131 m 1,0,1
 478 76 478 76 602 76 c 0,2,3
 702 76 702 76 786.5 108 c 128,-1,4
 871 140 871 140 964 184 c 1,5,-1
 938 53 l 1,6,7
 928 48 928 48 821 10 c 128,-1,8
 714 -28 714 -28 582 -28 c 0,9,10
 318 -28 318 -28 195 184 c 0,11,12
 116 321 116 321 116 514 c 0,13,14
 116 621 116 621 140 745 c 0,15,16
 212 1115 212 1115 413.5 1317.5 c 128,-1,17
 615 1520 615 1520 893 1520 c 0,18,19
 1018 1520 1018 1520 1085 1494 c 128,-1,20
 1152 1468 1152 1468 1208 1438 c 1,21,-1
 1182 1308 l 1,22,23
 1099 1350 1099 1350 1042 1379 c 128,-1,24
 985 1408 985 1408 869 1408 c 128,-1,25
 753 1408 753 1408 632 1360 c 1,26,-1
 393 131 l 1,0,1
512 1282 m 1,27,28
 503 1274 503 1274 489 1260 c 0,29,30
 317 1082 317 1082 252 745 c 0,31,32
 229 628 229 628 229 527 c 0,33,34
 229 365 229 365 289 247 c 0,35,36
 298 230 298 230 306 219 c 1,37,-1
 512 1282 l 1,27,28
EndSplineSet
EndChar
